STARTFONT 2.1
COMMENT
COMMENT Converted from OpenType font "Q:\font stuff\winfont\Weltron 2001.ttf" by "otf2bdf 3.0".
COMMENT
FONT -FreeType-Weltron 2001-Medium-R-Normal--84-840-72-72-P-496-ISO10646-1
SIZE 84 72 72
FONTBOUNDINGBOX 110 152 -22 -46
STARTPROPERTIES 19
FOUNDRY "FreeType"
FAMILY_NAME "Weltron 2001"
WEIGHT_NAME "Medium"
SLANT "R"
SETWIDTH_NAME "Normal"
ADD_STYLE_NAME ""
PIXEL_SIZE 84
POINT_SIZE 840
RESOLUTION_X 72
RESOLUTION_Y 72
SPACING "P"
AVERAGE_WIDTH 496
CHARSET_REGISTRY "ISO10646"
CHARSET_ENCODING "1"
FONT_ASCENT 105
FONT_DESCENT 45
COPYRIGHT "Weltron ©2001 Font"a"licious Fonts."
_OTF_FONTFILE "Q:\font stuff\winfont\Weltron 2001.ttf"
_OTF_PSNAME "Weltron2001"
ENDPROPERTIES
CHARS 233
STARTCHAR 0020
ENCODING 32
SWIDTH 214 0
DWIDTH 18 0
BBX 0 0 0 0
BITMAP
ENDCHAR
STARTCHAR 0021
ENCODING 33
SWIDTH 238 0
DWIDTH 20 0
BBX 24 98 0 -21
BITMAP
FFFFFF
FFFFFF
FFFFFF
FFFFFF
F0000F
F0000F
F0000F
F0000F
F0000F
F0000F
F0000F
F0000F
F0000F
F0000F
F0000F
F0000F
F0000F
F0000F
F0000F
F0000F
F0000F
F0000F
F0000F
F0000F
F0000F
F0000F
F0000F
F0000F
F0000F
F0000F
F0000F
F0000F
F0000F
F0000F
F0000F
F0000F
F0000F
F0000F
F0000F
F0000F
F0000F
F0000F
F0000F
F0000F
F0000F
F0000F
F0000F
F0000F
F0000F
F0000F
F0000F
F0000F
F0000F
F0000F
F0000F
FFFFFF
FFFFFF
FFFFFF
FFFFFF
F0000F
F0000F
F0000F
F0000F
F0000F
F0000F
F0000F
F0000F
F0000F
F0000F
F0000F
F0000F
F0000F
F0000F
F0000F
F0000F
F0000F
F0000F
FFFFFF
FFFFFF
FFFFFF
FFFFFF
FFFFFF
FFFFFF
FFFFFF
FFFFFF
FFFFFF
FFFFFF
FFFFFF
FFFFFF
FFFFFF
FFFFFF
FFFFFF
FFFFFF
FFFFFF
FFFFFF
FFFFFF
FFFFFF
FFFFFF
ENDCHAR
STARTCHAR 0022
ENCODING 34
SWIDTH 511 0
DWIDTH 43 0
BBX 47 52 0 30
BITMAP
FFFFFFFFFFFE
FFFFFFFFFFFE
FFFFFFFFFFFE
FFFFFFFFFFFE
F0000FE0001E
F0000FE0001E
F0000FE0001E
F0000FE0001E
F0000FE0001E
F0000FE0001E
F0000FE0001E
F0000FE0001E
F0000FE0001E
F0000FE0001E
F0000FE0001E
F0000FE0001E
F0000FE0001E
F0000FE0001E
F0000FE0001E
F0000FE0001E
F0000FE0001E
F0000FE0001E
F0000FE0001E
F0000FE0001E
F0000FE0001E
F0000FE0001E
F0000FE0001E
F0000FE0001E
F0000FE0001E
F0000FE0001E
F0000FE0001E
FFFFFFFFFFFE
FFFFFFFFFFFE
FFFFFFFFFFFE
FFFFFFFFFFFE
FFFFFFFFFFFE
FFFFFFFFFFFE
FFFFFFFFFFFE
FFFFFFFFFFFE
FFFFFFFFFFFE
FFFFFFFFFFFE
FFFFFFFFFFFE
FFFFFFFFFFFE
FFFFFFFFFFFE
FFFFFFFFFFFE
FFFFFFFFFFFE
FFFFFFFFFFFE
FFFFFFFFFFFE
FFFFFFFFFFFE
FFFFFFFFFFFE
FFFFFFFFFFFE
FFFFFFFFFFFE
ENDCHAR
STARTCHAR 0023
ENCODING 35
SWIDTH 488 0
DWIDTH 41 0
BBX 45 79 0 -11
BITMAP
07FFFFFFFF00
07FFFFFFFF00
07FFFFFFFF00
07FFFFFFFF00
078000000F00
078000000F00
078000000F00
078000000F00
078000000F00
078000000F00
078000000F00
FF8000000FF8
FF8000000FF8
FF8000000FF8
FF8000000FF8
F00000000078
F00000000078
F00000000078
F00000000078
F00000000078
F00000000078
F00000000078
F00000000078
F00000000078
F00000000078
F00000000078
F00000000078
F00000000078
F00000000078
F00000000078
F00000000078
F00000000078
F00000000078
F00000000078
F00000000078
F00000000078
F00000000078
F00000000078
F00000000078
F00000000078
F00000000078
F00000000078
F00000000078
F00000000078
F00000000078
F00000000078
FF8000000FF8
FF8000000FF8
FF8000000FF8
FF8000000FF8
FF8000000FF8
FF8000000FF8
FF8000000FF8
FF8000000FF8
FF8000000FF8
FF8000000FF8
FF8000000FF8
FF8000000FF8
FFFFFFFFFFF8
FFFFFFFFFFF8
FFFFFFFFFFF8
FFFFFFFFFFF8
FFFFFFFFFFF8
FFFFFFFFFFF8
FFFFFFFFFFF8
FFFFFFFFFFF8
FFFFFFFFFFF8
07FFFFFFFF00
07FFFFFFFF00
07FFFFFFFF00
07FFFFFFFF00
07FFFFFFFF00
07FFFFFFFF00
07FFFFFFFF00
07FFFFFFFF00
07FFFFFFFF00
07FFFFFFFF00
07FFFFFFFF00
07FFFFFFFF00
ENDCHAR
STARTCHAR 0024
ENCODING 36
SWIDTH 488 0
DWIDTH 41 0
BBX 45 98 0 -21
BITMAP
003FFFFFE000
003FFFFFE000
003FFFFFE000
003FFFFFE000
003C0001E000
003C0001E000
003C0001E000
003C0001E000
003C0001E000
003C0001E000
003C0001E000
00FC0001F800
01FC0001FC00
03F00000FE00
07E000003F00
0F8000000F80
1F00000007C0
1E00000003C0
3C00000003E0
3C00000001E0
7800000001F0
7800000000F0
F800000000F0
F00000000078
F00000000078
F00000000078
F00000000078
F00000000078
F0000F000078
F0000F000078
F0000F000078
F00007FFFFF8
F00001FFFFF8
F000003FFFF8
F000000FFFF8
F0000003FE00
F8000000FF00
780000003F80
7C0000001FC0
7C00000007C0
3E00000003E0
3F00000003E0
1FC0000001F0
0FE0000000F0
07F8000000F0
03FE000000F8
FFFF00000078
FFFFC0000078
FFFFF8000078
FFFFFE000078
F0000F000078
F0000F000078
F00000000078
F00000000078
F00000000078
F00000000078
F00000000078
F000000000F8
F800000000F8
F800000000F8
F800000001F8
FC00000001F8
FE00000003F8
FE00000003F8
FF00000007F8
FF8000000FF8
FFE000003FF8
FFF80000FFF8
FFFC0001FFF8
FFFC0001FFF8
FFFC0001FFF8
FFFC0001FFF8
FFFC0001FFF8
FFFC0001FFF8
FFFC0001FFF8
FFFC0001FFF0
7FFC0001FFF0
7FFFFFFFFFF0
7FFFFFFFFFE0
3FFFFFFFFFE0
3FFFFFFFFFC0
1FFFFFFFFFC0
0FFFFFFFFF80
07FFFFFFFF00
03FFFFFFFE00
01FFFFFFFC00
00FFFFFFF800
003FFFFFE000
003FFFFFE000
003FFFFFE000
003FFFFFE000
003FFFFFE000
003FFFFFE000
003FFFFFE000
003FFFFFE000
003FFFFFE000
003FFFFFE000
003FFFFFE000
ENDCHAR
STARTCHAR 0025
ENCODING 37
SWIDTH 988 0
DWIDTH 83 0
BBX 88 104 0 -22
BITMAP
0003FFE00007FFFFFE0000
001FFFFC0007FFFFFE0000
007FFFFF0007FFFFFC0000
00FFFFFF800FFFFFFC0000
01FE003FC00F80007C0000
07F00007F00F0000780000
07E00003F81F0000780000
0F800000F81F0000F80000
1F0000007C1E0000F00000
3E0000003E3E0000F00000
3C0000003E3E0001F00000
7C0000001F3C0001E00000
780000001F7C0001E00000
780000000F7C0003E00000
F80000000FF80003C00000
F00000000FF80003C00000
F000000007F80007C00000
F000000007F00007800000
F000000007F00007800000
F000000007F0000F800000
F000080007E0000F000000
F000080007E0000F000000
F000080007C0001F000000
F000080007C0001E000000
F000080007C0001E000000
F00008000780003E000000
F00000000780003C000000
F00000000780003C000000
F00000000700007C000000
F000000007000078000000
F00000000F000078000000
F00000000E0000F8000000
F80000000E0000F0000000
F80000001E0000F0000000
FC0000001C0001F0000000
FC0000003C0001E0000000
FE0000003C0001E0000000
FF000000780003E0000000
FF800000F80003C0000000
FFC00003F80003C0000000
FFF00007F00007FFFF8000
FFFE003FF00007FFFFF000
FFFFFFFFF0000FFFFFFC00
FFFFFFFFE0000FFFFFFF00
FFFFFFFFE0000FFC007F80
FFFFFFFFE0001FE0001FC0
FFFFFFFFC0001F800007E0
FFFFFFFFC0001F000003F0
FFFFFFFFC0003E000000F8
7FFFFFFF80003C000000F8
7FFFFFFF8000380000007C
7FFFFFFF0000780000003C
3FFFFFFF0000700000003E
3FFFFFFF0000700000001E
1FFFFFFE0000E00000001E
0FFFFFFE0000E00000001F
07FFFFFE0000E00000000F
07FFFFFC0001E00000000F
01FFFFFC0001E00000000F
00FFFFFC0001E00000000F
007FFFF80003E00000000F
001FFFF80003E00020000F
0003FFF80003E00020000F
000000F00007E00020000F
000000F00007E00020000F
000001F00007E00020000F
000001E0000FE00020000F
000001E0000FE00000000F
000003E0000FE00000000F
000003C0001FE00000000F
000003C0001FE00000000F
000007C0001FE00000001F
00000780003FE00000001F
00000780003FF00000001F
00000F80003FF00000003F
00000F00007FF80000003F
00000F00007FF80000007F
00001F00007FFC000000FF
00001E0000FFFE000000FF
00001E0000FFFF000003FF
00003E0000FFFF800007FF
00003C0001FFFFE0000FFF
00003FFFFFFFFFFC007FFF
00007FFFFFFFFFFFFFFFFF
00007FFFFFFFFFFFFFFFFF
00007FFFFFFFFFFFFFFFFF
0000FFFFFFFFFFFFFFFFFF
0000FFFFFFFFFFFFFFFFFF
0000FFFFFFFFFFFFFFFFFF
0000FFFFFFFFFFFFFFFFFE
0000FFFFFFFDFFFFFFFFFE
0000FFFFFFFCFFFFFFFFFE
0000FFFFFFFCFFFFFFFFFC
0000FFFFFFF87FFFFFFFFC
0000FFFFFFF87FFFFFFFF8
0000FFFFFFF83FFFFFFFF8
0000FFFFFFF03FFFFFFFF0
0000FFFFFFF01FFFFFFFE0
0000FFFFFFF00FFFFFFFC0
0000FFFFFFE007FFFFFF80
0000FFFFFFE001FFFFFF00
0000FFFFFFE000FFFFFC00
0000FFFFFFC0003FFFF000
0000000000000007FF8000
ENDCHAR
STARTCHAR 0026
ENCODING 38
SWIDTH 488 0
DWIDTH 41 0
BBX 45 98 0 -21
BITMAP
003FFFFFE000
003FFFFFE000
003FFFFFE000
003FFFFFE000
003C0001E000
003C0001E000
003C0001E000
003C0001E000
003C0001E000
003C0001E000
003C0001E000
00FC0001F800
01FC0001FC00
03F800007E00
07E000001F00
0F8000000F80
1F00000007C0
1E00000003C0
3E00000001E0
7C00000001E0
7800000000F0
7800000000F0
F800000000F0
F00000000078
F00000000078
F00000000078
F00000000078
F00000000078
F0000F000078
F0000FFFFFF8
F0000FFFFFF8
F0000FFFFFF8
F000000001F8
F000000001F8
F000000001E0
F000000001E0
F000000001E0
F000000001E0
F000000001E0
F000000001E0
7800000001E0
7800000001E0
F000000001E0
F000000001E0
F000000001E0
F000000001E0
F000000001E0
F000000001F8
F000000001F8
F0000FFFFFF8
F0000FFFFFF8
F0000FFFFFF8
F0000F000078
F00000000078
F00000000078
F00000000078
F00000000078
F00000000078
F800000000F8
F800000000F8
F800000000F8
FC00000001F8
FE00000001F8
FE00000003F8
FF00000007F8
FF8000000FF8
FFE000001FF8
FFF800007FF8
FFFC0001FFF8
FFFC0001FFF8
FFFC0001FFF8
FFFC0001FFF8
FFFC0001FFF8
FFFC0001FFF8
FFFC0001FFF8
FFFC0001FFF0
7FFC0001FFF0
7FFFFFFFFFF0
7FFFFFFFFFE0
3FFFFFFFFFE0
3FFFFFFFFFC0
1FFFFFFFFFC0
0FFFFFFFFF80
07FFFFFFFF00
03FFFFFFFE00
01FFFFFFFC00
00FFFFFFF800
003FFFFFE000
003FFFFFE000
003FFFFFE000
003FFFFFE000
003FFFFFE000
003FFFFFE000
003FFFFFE000
003FFFFFE000
003FFFFFE000
003FFFFFE000
003FFFFFE000
ENDCHAR
STARTCHAR 0027
ENCODING 39
SWIDTH 238 0
DWIDTH 20 0
BBX 24 52 0 30
BITMAP
FFFFFF
FFFFFF
FFFFFF
FFFFFF
F0000F
F0000F
F0000F
F0000F
F0000F
F0000F
F0000F
F0000F
F0000F
F0000F
F0000F
F0000F
F0000F
F0000F
F0000F
F0000F
F0000F
F0000F
F0000F
F0000F
F0000F
F0000F
F0000F
F0000F
F0000F
F0000F
F0000F
FFFFFF
FFFFFF
FFFFFF
FFFFFF
FFFFFF
FFFFFF
FFFFFF
FFFFFF
FFFFFF
FFFFFF
FFFFFF
FFFFFF
FFFFFF
FFFFFF
FFFFFF
FFFFFF
FFFFFF
FFFFFF
FFFFFF
FFFFFF
FFFFFF
ENDCHAR
STARTCHAR 0028
ENCODING 40
SWIDTH 380 0
DWIDTH 32 0
BBX 36 103 0 -21
BITMAP
0003FFFFF0
001FFFFFF0
007FFFFFF0
00FFFFFFF0
01FE0000F0
07F00000F0
07E00000F0
0F800000F0
1F000000F0
3E000000F0
3C000000F0
7C000000F0
78000000F0
78000000F0
F8000000F0
F0000000F0
F0000000F0
F0000000F0
F0000000F0
F0000000F0
F0000FFFF0
F0000FFFF0
F0000FFFF0
F0000FFFF0
F0000FFFF0
F0000FFFF0
F0000FFFF0
F0000FFFF0
F0000FFFF0
F0000FFFF0
F0000FFFF0
F0000FFFF0
F0000FFFF0
F0000FFFF0
F0000FFFF0
F0000FFFF0
F0000FFFF0
F0000FFFF0
F0000FFFF0
F0000FFFF0
F0000FFFF0
F0000F0000
F0000F0000
F0000F0000
F0000F0000
F0000F0000
F0000F0000
F0000F0000
F0000F0000
F0000F0000
F0000F0000
F0000F0000
F0000F0000
F0000F0000
F0000F0000
F0000F0000
F0000F0000
F0000F0000
F0000F0000
F0000F0000
F0000F0000
F0000F0000
F0000FFFF0
F0000FFFF0
F0000FFFF0
F0000FFFF0
F0000000F0
F0000000F0
F0000000F0
F0000000F0
F0000000F0
F0000000F0
F8000000F0
F8000000F0
FC000000F0
FC000000F0
FE000000F0
FF000000F0
FF800000F0
FFC00000F0
FFF00000F0
FFFE0000F0
FFFFFFFFF0
FFFFFFFFF0
FFFFFFFFF0
FFFFFFFFF0
FFFFFFFFF0
FFFFFFFFF0
FFFFFFFFF0
7FFFFFFFF0
7FFFFFFFF0
7FFFFFFFF0
3FFFFFFFF0
3FFFFFFFF0
1FFFFFFFF0
0FFFFFFFF0
0FFFFFFFF0
07FFFFFFF0
03FFFFFFF0
00FFFFFFF0
007FFFFFF0
001FFFFFF0
0003FFFFF0
ENDCHAR
STARTCHAR 0029
ENCODING 41
SWIDTH 380 0
DWIDTH 32 0
BBX 36 103 0 -21
BITMAP
FFFFF80000
FFFFFF8000
FFFFFFC000
FFFFFFF000
F00007F800
F00000FC00
F000007E00
F000001F00
F000000F80
F000000780
F0000007C0
F0000003C0
F0000001E0
F0000001E0
F0000001E0
F0000000F0
F0000000F0
F0000000F0
F0000000F0
F0000000F0
FFFF0000F0
FFFF0000F0
FFFF0000F0
FFFF0000F0
FFFF0000F0
FFFF0000F0
FFFF0000F0
FFFF0000F0
FFFF0000F0
FFFF0000F0
FFFF0000F0
FFFF0000F0
FFFF0000F0
FFFF0000F0
FFFF0000F0
FFFF0000F0
FFFF0000F0
FFFF0000F0
FFFF0000F0
FFFF0000F0
FFFF0000F0
000F0000F0
000F0000F0
000F0000F0
000F0000F0
000F0000F0
000F0000F0
000F0000F0
000F0000F0
000F0000F0
000F0000F0
000F0000F0
000F0000F0
000F0000F0
000F0000F0
000F0000F0
000F0000F0
000F0000F0
000F0000F0
000F0000F0
000F0000F0
000F0000F0
FFFF0000F0
FFFF0000F0
FFFF0000F0
FFFF0000F0
F0000000F0
F0000000F0
F0000000F0
F0000000F0
F0000000F0
F0000001F0
F0000001F0
F0000001F0
F0000003F0
F0000007F0
F0000007F0
F000000FF0
F000001FF0
F000007FF0
F00000FFF0
F00007FFF0
FFFFFFFFF0
FFFFFFFFF0
FFFFFFFFF0
FFFFFFFFF0
FFFFFFFFF0
FFFFFFFFF0
FFFFFFFFE0
FFFFFFFFE0
FFFFFFFFE0
FFFFFFFFC0
FFFFFFFFC0
FFFFFFFF80
FFFFFFFF80
FFFFFFFF00
FFFFFFFE00
FFFFFFFC00
FFFFFFF800
FFFFFFF000
FFFFFFE000
FFFFFF8000
FFFFF80000
ENDCHAR
STARTCHAR 002A
ENCODING 42
SWIDTH 809 0
DWIDTH 68 0
BBX 56 61 8 10
BITMAP
000003FF800000
00003FFFF80000
0000FFEFFE0000
0003F0001F8000
000F800003E000
001E007FF8F000
003C01BFF73C00
00F007C04E9E00
01E01A00416F00
01C02400411780
03804400810BC0
070082008205C0
0E0102008202E0
0C020200820270
1C0202FF7E0170
380401000000B8
38040000000098
3008002100009C
700831D50E385C
60083115134C4C
600831F791444E
E00830E899644E
E00830AF8E3846
EE084CA7000046
D1884CA5000046
E04874A500C046
E448382100C047
C828000000C847
D0280000000087
D5540000000087
CA9401FFFF8086
DD120180008106
E0320180008106
F81101FFFF8206
E37081FFFF840E
6D50400000080E
78B0200000100C
7410100000201C
38500800004018
3C900600018038
1E2001E00E0038
1DC0001FF00070
0E000000000060
0E0000001800E0
070000003001C0
03800000000380
01C00000000700
00E00000000F00
00780000001C00
00340000007800
0033000001B000
0030C000063000
00303C00383000
003003FFC03000
00380000007000
0037000003B000
0038FF01FC7000
001F00FE03E000
000FFF87FFC000
0001FFFFFF0000
00001FFFE00000
ENDCHAR
STARTCHAR 002B
ENCODING 43
SWIDTH 488 0
DWIDTH 41 0
BBX 45 62 0 -7
BITMAP
001FFFFFE000
001FFFFFE000
001FFFFFE000
001FFFFFE000
001E0001E000
001E0001E000
001E0001E000
001E0001E000
001E0001E000
001E0001E000
001E0001E000
FFFE0001FFF8
FFFE0001FFF8
FFFE0001FFF8
FFFE0001FFF8
F00000000078
F00000000078
F00000000078
F00000000078
F00000000078
F00000000078
F00000000078
F00000000078
F00000000078
F00000000078
F00000000078
F00000000078
F00000000078
F00000000078
F00000000078
F00000000078
FFFE0001FFF8
FFFE0001FFF8
FFFE0001FFF8
FFFE0001FFF8
FFFE0001FFF8
FFFE0001FFF8
FFFE0001FFF8
FFFE0001FFF8
FFFE0001FFF8
FFFE0001FFF8
FFFFFFFFFFF8
FFFFFFFFFFF8
FFFFFFFFFFF8
FFFFFFFFFFF8
FFFFFFFFFFF8
FFFFFFFFFFF8
FFFFFFFFFFF8
FFFFFFFFFFF8
FFFFFFFFFFF8
FFFFFFFFFFF8
FFFFFFFFFFF8
001FFFFFE000
001FFFFFE000
001FFFFFE000
001FFFFFE000
001FFFFFE000
001FFFFFE000
001FFFFFE000
001FFFFFE000
001FFFFFE000
001FFFFFE000
ENDCHAR
STARTCHAR 002C
ENCODING 44
SWIDTH 238 0
DWIDTH 20 0
BBX 24 52 0 -30
BITMAP
FFFFFF
FFFFFF
FFFFFF
FFFFFF
F0000F
F0000F
F0000F
F0000F
F0000F
F0000F
F0000F
F0000F
F0000F
F0000F
F0000F
F0000F
F0000F
F0000F
F0000F
F0000F
F0000F
F0000F
F0000F
F0000F
F0000F
F0000F
F0000F
F0000F
F0000F
F0000F
F0000F
FFFFFF
FFFFFF
FFFFFF
FFFFFF
FFFFFF
FFFFFF
FFFFFF
FFFFFF
FFFFFF
FFFFFF
FFFFFF
FFFFFF
FFFFFF
FFFFFF
FFFFFF
FFFFFF
FFFFFF
FFFFFF
FFFFFF
FFFFFF
FFFFFF
ENDCHAR
STARTCHAR 002D
ENCODING 45
SWIDTH 273 0
DWIDTH 23 0
BBX 27 42 0 11
BITMAP
FFFFFFE0
FFFFFFE0
FFFFFFE0
FFFFFFE0
F00001E0
F00001E0
F00001E0
F00001E0
F00001E0
F00001E0
F00001E0
F00001E0
F00001E0
F00001E0
F00001E0
F00001E0
F00001E0
F00001E0
F00001E0
F00001E0
F00001E0
FFFFFFE0
FFFFFFE0
FFFFFFE0
FFFFFFE0
FFFFFFE0
FFFFFFE0
FFFFFFE0
FFFFFFE0
FFFFFFE0
FFFFFFE0
FFFFFFE0
FFFFFFE0
FFFFFFE0
FFFFFFE0
FFFFFFE0
FFFFFFE0
FFFFFFE0
FFFFFFE0
FFFFFFE0
FFFFFFE0
FFFFFFE0
ENDCHAR
STARTCHAR 002E
ENCODING 46
SWIDTH 238 0
DWIDTH 20 0
BBX 24 43 0 -21
BITMAP
FFFFFF
FFFFFF
FFFFFF
FFFFFF
F0000F
F0000F
F0000F
F0000F
F0000F
F0000F
F0000F
F0000F
F0000F
F0000F
F0000F
F0000F
F0000F
F0000F
F0000F
F0000F
F0000F
F0000F
FFFFFF
FFFFFF
FFFFFF
FFFFFF
FFFFFF
FFFFFF
FFFFFF
FFFFFF
FFFFFF
FFFFFF
FFFFFF
FFFFFF
FFFFFF
FFFFFF
FFFFFF
FFFFFF
FFFFFF
FFFFFF
FFFFFF
FFFFFF
FFFFFF
ENDCHAR
STARTCHAR 002F
ENCODING 47
SWIDTH 476 0
DWIDTH 40 0
BBX 54 98 -5 -21
BITMAP
0000000FFFFFFC
0000001FFFFFF8
0000001FFFFFF8
0000001FFFFFF8
0000003E0000F0
0000003C0001F0
0000003C0001F0
0000007C0001F0
000000780003E0
000000780003E0
000000F00007E0
000000F00007C0
000000F00007C0
000001E0000FC0
000001E0000FC0
000001E0000F80
000003C0001F80
000003C0001F80
000007C0001F00
00000780003F00
00000780003F00
00000F80003F00
00000F00007E00
00000F00007E00
00001F00007E00
00001E0000FC00
00001E0000FC00
00003E0000FC00
00003C0001FC00
00003C0001F800
00007C0001F800
0000780003F800
0000780003F000
0000F80003F000
0000F00007F000
0000F00007F000
0001F00007E000
0001E0000FE000
0001E0000FE000
0003E0000FC000
0003C0001FC000
0003C0001FC000
0007C0001FC000
000780003F8000
000780003F8000
000F80007F8000
000F00007F0000
000F00007F0000
001E0000FF0000
001E0000FF0000
001E0000FE0000
003C0001FE0000
003C0001FE0000
003C0001FC0000
00780003FC0000
00780003FC0000
00F80003FC0000
00F00007F80000
00F00007F80000
01F00007F80000
01E0000FF00000
01E0000FF00000
03E0000FF00000
03C0001FF00000
03C0001FE00000
07C0001FE00000
0780003FE00000
0780003FE00000
0F80003FC00000
0F00007FC00000
0F00007FC00000
1F00007F800000
1E0000FF800000
1E0000FF800000
3E0000FF800000
3C0001FF000000
3C0001FF000000
7FFFFFFF000000
7FFFFFFE000000
7FFFFFFE000000
FFFFFFFE000000
FFFFFFFE000000
FFFFFFFC000000
FFFFFFFC000000
FFFFFFFC000000
FFFFFFF8000000
FFFFFFF8000000
FFFFFFF8000000
FFFFFFF8000000
FFFFFFF0000000
FFFFFFF0000000
FFFFFFF0000000
FFFFFFE0000000
FFFFFFE0000000
FFFFFFE0000000
FFFFFFE0000000
FFFFFFC0000000
FFFFFFC0000000
ENDCHAR
STARTCHAR 0030
ENCODING 48
SWIDTH 488 0
DWIDTH 41 0
BBX 45 98 0 -21
BITMAP
0003FFFE0000
001FFFFFC000
007FFFFFF000
00FFFFFFF800
01FE0003FC00
03F000007E00
07E000003F00
0F8000000F80
1F00000007C0
3E00000003E0
3E00000003E0
7C00000001F0
7800000000F0
7800000000F0
F800000000F8
F00000000078
F00000000078
F00000000078
F00000000078
F00000000078
F00000000078
F0000F800078
F0000F800078
F0000F800078
F0000F800078
F0000F800078
F0000F800078
F0000F800078
F0000F800078
F0000F800078
F0000F800078
F0000F800078
F0000F800078
F0000F800078
F0000F800078
F0000F800078
F0000F800078
F0000F800078
F0000F800078
F0000F800078
F0000F800078
F0000F800078
F0000F800078
F0000F800078
F0000F800078
F0000F800078
F0000F800078
F0000F800078
F0000F800078
F0000F800078
F0000F800078
F0000F800078
F0000F800078
F0000F800078
F0000F800078
F0000F800078
F0000F800078
F0000F800078
F0000F800078
F0000F800078
F0000F800078
F00000000078
F00000000078
F00000000078
F00000000078
F00000000078
F800000000F8
F800000000F8
F800000000F8
FC00000001F8
FC00000003F8
FE00000003F8
FF00000007F8
FF8000000FF8
FFC000003FF8
FFF000007FF8
FFFE0003FFF8
FFFFFFFFFFF8
FFFFFFFFFFF8
FFFFFFFFFFF8
FFFFFFFFFFF8
FFFFFFFFFFF8
FFFFFFFFFFF8
FFFFFFFFFFF8
7FFFFFFFFFF0
7FFFFFFFFFF0
7FFFFFFFFFF0
3FFFFFFFFFE0
3FFFFFFFFFE0
1FFFFFFFFFC0
0FFFFFFFFF80
07FFFFFFFF00
03FFFFFFFE00
01FFFFFFFC00
00FFFFFFF800
007FFFFFF000
001FFFFFC000
0003FFFE0000
ENDCHAR
STARTCHAR 0031
ENCODING 49
SWIDTH 333 0
DWIDTH 28 0
BBX 32 98 0 -21
BITMAP
FFFFFF80
FFFFFFC0
FFFFFFE0
FFFFFFF0
F00001F8
F00000FC
F000007E
F000003F
F000001F
F000000F
F000000F
F000000F
F000000F
F000000F
F000000F
F000000F
F000000F
F000000F
F000000F
F000000F
FFF0000F
FFF0000F
FFF0000F
FFF0000F
FFF0000F
FFF0000F
FFF0000F
FFF0000F
FFF0000F
FFF0000F
FFF0000F
FFF0000F
FFF0000F
FFF0000F
FFF0000F
FFF0000F
FFF0000F
FFF0000F
FFF0000F
FFF0000F
FFF0000F
00F0000F
00F0000F
00F0000F
00F0000F
00F0000F
00F0000F
00F0000F
00F0000F
00F0000F
00F0000F
00F0000F
00F0000F
00F0000F
00F0000F
00F0000F
00F0000F
00F0000F
00F0000F
00F0000F
00F0000F
00F0000F
00F0000F
00F0000F
00F0000F
00F0000F
00F0000F
00F0000F
00F0000F
00F0000F
00F0000F
00F0000F
00F0000F
00F0000F
00F0000F
00F0000F
00F0000F
00FFFFFF
00FFFFFF
00FFFFFF
00FFFFFF
00FFFFFF
00FFFFFF
00FFFFFF
00FFFFFF
00FFFFFF
00FFFFFF
00FFFFFF
00FFFFFF
00FFFFFF
00FFFFFF
00FFFFFF
00FFFFFF
00FFFFFF
00FFFFFF
00FFFFFF
00FFFFFF
00FFFFFF
ENDCHAR
STARTCHAR 0032
ENCODING 50
SWIDTH 488 0
DWIDTH 41 0
BBX 45 98 0 -21
BITMAP
0003FFFE0000
001FFFFFC000
007FFFFFF000
00FFFFFFF800
01FE0003FC00
07F000007E00
07E000003F00
0F8000000F80
1F00000007C0
3E00000003E0
3E00000003E0
7C00000001F0
7800000000F0
7800000000F0
F800000000F8
F00000000078
F00000000078
F00000000078
F00000000078
F00000000078
F0000F000078
F0000F000078
F0000F000078
F0000F000078
FFFFFF000078
FFFFFF000078
FFFFFF000078
FFFFFF000078
0001FF000078
0007FC000078
001FF0000078
007F80000078
01FE00000078
03F8000000F8
07E0000000F0
0FC0000000F0
1F00000001F0
3E00000003E0
3C00000003E0
7C00000007C0
780000001F80
780000003F00
F8000000FE00
F0000003FC00
F000000FF800
F000001FE000
F00000FF8000
F00007FE0000
F0000FFC0000
F0000FF00000
F0000F800000
F0000F000000
F0000F000000
F0000F000000
F0000F000000
F0000F000000
F0000F000000
F0000FFFFFF8
F0000FFFFFF8
F0000FFFFFF8
F0000FFFFFF8
F00000000078
F00000000078
F00000000078
F00000000078
F00000000078
F00000000078
F00000000078
F00000000078
F00000000078
F00000000078
F00000000078
F00000000078
F00000000078
F00000000078
F00000000078
F00000000078
FFFFFFFFFFF8
FFFFFFFFFFF8
FFFFFFFFFFF8
FFFFFFFFFFF8
FFFFFFFFFFF8
FFFFFFFFFFF8
FFFFFFFFFFF8
FFFFFFFFFFF8
FFFFFFFFFFF8
FFFFFFFFFFF8
FFFFFFFFFFF8
FFFFFFFFFFF8
FFFFFFFFFFF8
FFFFFFFFFFF8
FFFFFFFFFFF8
FFFFFFFFFFF8
FFFFFFFFFFF8
FFFFFFFFFFF8
FFFFFFFFFFF8
FFFFFFFFFFF8
FFFFFFFFFFF8
ENDCHAR
STARTCHAR 0033
ENCODING 51
SWIDTH 488 0
DWIDTH 41 0
BBX 45 98 0 -21
BITMAP
0003FFFE0000
001FFFFFC000
007FFFFFF000
00FFFFFFF800
01FE0003FC00
03F000007E00
07E000003F00
0F8000000F80
1F00000007C0
3E00000003E0
3E00000003E0
7C00000001F0
7800000000F0
7800000000F0
F800000000F8
F00000000078
F00000000078
F00000000078
F00000000078
F00000000078
F0000F000078
F0000F000078
F0000F000078
F0000F000078
F0000F000078
F0000F000078
F0000F000078
F0000F000078
F0000F000078
F0000F000078
FFFFFF000078
FFFFFF000078
F00000000078
F00000000078
F00000000078
F00000000078
F00000000078
F00000000078
F00000000078
F00000000078
F00000000078
F00000000078
F00000000078
F00000000078
F00000000078
F00000000078
F00000000078
F00000000078
FFFFFF000078
FFFFFF000078
FFFFFF000078
F0000F000078
F0000F000078
F0000F000078
F0000F000078
F0000F000078
F0000F000078
F0000F000078
F0000F000078
F0000F000078
F0000F000078
F00000000078
F00000000078
F00000000078
F00000000078
F00000000078
F000000000F8
F800000000F8
F800000000F8
FC00000001F8
FC00000003F8
FE00000003F8
FF00000007F8
FF8000000FF8
FFC000003FF8
FFF000007FF8
FFFE0003FFF8
FFFFFFFFFFF8
FFFFFFFFFFF8
FFFFFFFFFFF8
FFFFFFFFFFF8
FFFFFFFFFFF8
FFFFFFFFFFF8
FFFFFFFFFFF8
7FFFFFFFFFF0
7FFFFFFFFFF0
7FFFFFFFFFF0
3FFFFFFFFFE0
3FFFFFFFFFE0
1FFFFFFFFFC0
0FFFFFFFFF80
07FFFFFFFF00
03FFFFFFFE00
01FFFFFFFC00
00FFFFFFF800
007FFFFFF000
001FFFFFC000
0003FFFE0000
ENDCHAR
STARTCHAR 0034
ENCODING 52
SWIDTH 488 0
DWIDTH 41 0
BBX 45 98 0 -21
BITMAP
FFFFFFFFFFF8
FFFFFFFFFFF8
FFFFFFFFFFF8
FFFFFFFFFFF8
F00007800078
F00007800078
F00007800078
F00007800078
F00007800078
F00007800078
F00007800078
F00007800078
F00007800078
F00007800078
F00007800078
F00007800078
F00007800078
F00007800078
F00007800078
F00007800078
F00007800078
F00007800078
F00007800078
F00007800078
F00007800078
F00007800078
F00007800078
F00007800078
F00007800078
F00007800078
F00007800078
F00007800078
F00007800078
F00007800078
F00007800078
F00007800078
F00007800078
F00000000078
F00000000078
F00000000078
F00000000078
F00000000078
F80000000078
F80000000078
F80000000078
FC0000000078
FC0000000078
FE0000000078
FF0000000078
FF8000000078
FFC000000078
FFF000000078
FFFE00000078
FFFFFF800078
FFFFFF800078
FFFFFF800078
FFFFFF800078
FFFFFF800078
FFFFFF800078
FFFFFF800078
7FFFFF800078
7FFFFF800078
7FFFFF800078
3FFFFF800078
3FFFFF800078
1FFFFF800078
0FFFFF800078
07FFFF800078
03FFFF800078
01FFFF800078
00FFFF800078
007FFF800078
001FFF800078
0003FF800078
000007800078
000007800078
000007800078
000007FFFFF8
000007FFFFF8
000007FFFFF8
000007FFFFF8
000007FFFFF8
000007FFFFF8
000007FFFFF8
000007FFFFF8
000007FFFFF8
000007FFFFF8
000007FFFFF8
000007FFFFF8
000007FFFFF8
000007FFFFF8
000007FFFFF8
000007FFFFF8
000007FFFFF8
000007FFFFF8
000007FFFFF8
000007FFFFF8
000007FFFFF8
ENDCHAR
STARTCHAR 0035
ENCODING 53
SWIDTH 488 0
DWIDTH 41 0
BBX 45 98 0 -21
BITMAP
FFFFFFFFFFF8
FFFFFFFFFFF8
FFFFFFFFFFF8
FFFFFFFFFFF8
F00000000078
F00000000078
F00000000078
F00000000078
F00000000078
F00000000078
F00000000078
F00000000078
F00000000078
F00000000078
F00000000078
F00000000078
F00000000078
F00000000078
F00000000078
F00000000078
F0000FFFFFF8
F0000FFFFFF8
F0000FFFFFF8
F0000FFFFFF8
F0000F000000
F0000F000000
F0000FFC0000
F0000FFFC000
F0000FFFE000
F0000FFFF800
F0000003FC00
F00000007E00
F00000003F00
F00000000F80
F000000007C0
F000000003C0
F000000003E0
F000000001F0
F000000000F0
F000000000F0
F000000000F0
F00000000078
F00000000078
F00000000078
F00000000078
F00000000078
FFFFFF800078
FFFFFF800078
FFFFFF800078
FFFFFF800078
000007800078
000007800078
000007800078
000007800078
000007800078
000007800078
000007800078
FFFFFF800078
FFFFFF800078
FFFFFF800078
FFFFFF800078
F00000000078
F00000000078
F00000000078
F00000000078
F00000000078
F000000000F8
F000000000F8
F000000000F8
F000000001F8
F000000003F8
F000000003F8
F000000007F8
F00000000FF8
F00000003FF8
F00000007FF8
F0000003FFF8
FFFFFFFFFFF8
FFFFFFFFFFF8
FFFFFFFFFFF8
FFFFFFFFFFF8
FFFFFFFFFFF8
FFFFFFFFFFF8
FFFFFFFFFFF8
FFFFFFFFFFF0
FFFFFFFFFFF0
FFFFFFFFFFF0
FFFFFFFFFFE0
FFFFFFFFFFE0
FFFFFFFFFFC0
FFFFFFFFFF80
FFFFFFFFFF00
FFFFFFFFFE00
FFFFFFFFFC00
FFFFFFFFF800
FFFFFFFFF000
FFFFFFFFC000
FFFFFFFE0000
ENDCHAR
STARTCHAR 0036
ENCODING 54
SWIDTH 488 0
DWIDTH 41 0
BBX 45 98 0 -21
BITMAP
0003FFFFFFF8
001FFFFFFFF8
007FFFFFFFF8
00FFFFFFFFF8
01FE00000078
03F000000078
07E000000078
0F8000000078
1F0000000078
3E0000000078
3E0000000078
7C0000000078
780000000078
780000000078
F80000000078
F00000000078
F00000000078
F00000000078
F00000000078
F00000000078
F0000FFFFFF8
F0000FFFFFF8
F0000FFFFFF8
F0000FFFFFF8
F0000FFFF000
F0000FFFF800
F0000FFFFC00
F0000003FE00
F00000007F00
F00000003F80
F00000000FC0
F000000007C0
F000000003E0
F000000001E0
F000000001F0
F000000000F0
F000000000F0
F000000000F8
F00000000078
F00000000078
F00000000078
F00000000078
F00000000078
F0000F800078
F0000F800078
F0000F800078
F0000F800078
F0000F800078
F0000F800078
F0000F800078
F0000F800078
F0000F800078
F0000F800078
F0000F800078
F0000F800078
F0000F800078
F0000F800078
F0000F800078
F0000F800078
F0000F800078
F0000F800078
F00000000078
F00000000078
F00000000078
F00000000078
F00000000078
F800000000F8
F800000000F8
F800000000F8
FC00000001F8
FC00000001F8
FE00000003F8
FF00000007F8
FF8000000FF8
FFC000001FF8
FFF000007FF8
FFFE0003FFF8
FFFFFFFFFFF8
FFFFFFFFFFF8
FFFFFFFFFFF8
FFFFFFFFFFF8
FFFFFFFFFFF8
FFFFFFFFFFF8
FFFFFFFFFFF8
7FFFFFFFFFF0
7FFFFFFFFFF0
7FFFFFFFFFF0
3FFFFFFFFFE0
3FFFFFFFFFE0
1FFFFFFFFFC0
0FFFFFFFFF80
07FFFFFFFF00
03FFFFFFFE00
01FFFFFFFC00
00FFFFFFF800
007FFFFFF000
001FFFFFC000
0003FFFE0000
ENDCHAR
STARTCHAR 0037
ENCODING 55
SWIDTH 523 0
DWIDTH 44 0
BBX 53 98 -3 -21
BITMAP
1FFFFFFFFFFFF8
1FFFFFFFFFFFF8
1FFFFFFFFFFFF0
1FFFFFFFFFFFF0
1E0000000001F0
1E0000000001F0
1E0000000003E0
1E0000000003E0
1E0000000003E0
1E0000000007C0
1E0000000007C0
1E0000000007C0
1E000000000F80
1E000000000F80
1E000000000F80
1E000000001F80
1E000000001F00
1E000000001F00
1E000000003F00
1E000000003E00
1FFFFF80003E00
1FFFFF00007E00
1FFFFF00007C00
1FFFFF00007C00
1FFFFE0000FC00
1FFFFE0000FC00
1FFFFE0000F800
1FFFFC0001F800
1FFFFC0001F800
1FFFFC0001F000
1FFFF80003F000
1FFFF80003F000
1FFFF80003E000
1FFFF00007E000
1FFFF00007E000
1FFFF00007E000
1FFFE0000FC000
1FFFE0000FC000
1FFFE0000FC000
1FFFC0001F8000
1FFFC0001F8000
0007C0001F8000
000780003F0000
000780003F0000
000F80003F0000
000F00007F0000
000F00007E0000
001F00007E0000
001E0000FE0000
001E0000FC0000
003E0000FC0000
003C0001FC0000
003C0001F80000
007C0001F80000
00780003F80000
00780003F80000
00F80003F00000
00F00007F00000
00F00007F00000
01F00007E00000
01E0000FE00000
01E0000FE00000
03E0000FC00000
03C0001FC00000
03C0001FC00000
07C0001FC00000
0780003F800000
0780003F800000
0F80003F800000
0F00007F000000
0F00007F000000
1F00007F000000
1E0000FE000000
1E0000FE000000
3E0000FE000000
3C0001FE000000
3C0001FC000000
7FFFFFFC000000
7FFFFFFC000000
7FFFFFF8000000
FFFFFFF8000000
FFFFFFF8000000
FFFFFFF0000000
FFFFFFF0000000
FFFFFFF0000000
FFFFFFF0000000
FFFFFFE0000000
FFFFFFE0000000
FFFFFFE0000000
FFFFFFC0000000
FFFFFFC0000000
FFFFFFC0000000
FFFFFF80000000
FFFFFF80000000
FFFFFF80000000
FFFFFF80000000
FFFFFF00000000
FFFFFF00000000
ENDCHAR
STARTCHAR 0038
ENCODING 56
SWIDTH 488 0
DWIDTH 41 0
BBX 45 98 0 -21
BITMAP
0003FFFC0000
001FFFFFC000
007FFFFFF000
00FFFFFFF800
03FE0003FC00
07F000007E00
07C000003F00
0F8000000F80
1F00000007C0
3E00000003C0
3C00000003E0
7C00000001E0
7800000000F0
7800000000F0
F800000000F0
F00000000078
F00000000078
F00000000078
F00000000078
F00000000078
F00000000078
F0000F800078
F0000F800078
F0000F800078
F0000F800078
F0000F800078
F0000F800078
F0000F800078
F0000F800078
F00000000078
F00000000078
F00000000078
F00000000078
F00000000078
F00000000078
F000000000F0
7800000000F0
7800000000F0
7800000000F0
F000000000F0
F00000000078
F00000000078
F00000000078
F00000000078
F00000000078
F0000F800078
F0000F800078
F0000F800078
F0000F800078
F0000F800078
F0000F800078
F0000F800078
F0000F800078
F0000F800078
F0000F800078
F0000F800078
F0000F800078
F0000F800078
F0000F800078
F0000F800078
F0000F800078
F00000000078
F00000000078
F00000000078
F00000000078
F00000000078
F000000000F8
F800000000F8
F800000000F8
FC00000001F8
FC00000003F8
FE00000003F8
FF00000007F8
FF8000000FF8
FFC000003FF8
FFF000007FF8
FFFE0003FFF8
FFFFFFFFFFF8
FFFFFFFFFFF8
FFFFFFFFFFF8
FFFFFFFFFFF8
FFFFFFFFFFF8
FFFFFFFFFFF8
FFFFFFFFFFF0
7FFFFFFFFFF0
7FFFFFFFFFF0
7FFFFFFFFFF0
3FFFFFFFFFE0
3FFFFFFFFFE0
1FFFFFFFFFC0
0FFFFFFFFF80
0FFFFFFFFF00
07FFFFFFFE00
03FFFFFFFC00
00FFFFFFF800
007FFFFFF000
001FFFFFC000
0003FFFE0000
ENDCHAR
STARTCHAR 0039
ENCODING 57
SWIDTH 488 0
DWIDTH 41 0
BBX 45 98 0 -21
BITMAP
0003FFFC0000
001FFFFFC000
007FFFFFF000
00FFFFFFF800
03FE0003FC00
07F000007E00
07C000003F00
0F8000000F80
1F00000007C0
3E00000003C0
3C00000003E0
7C00000001E0
7800000000F0
7800000000F0
F000000000F0
F00000000078
F00000000078
F00000000078
F00000000078
F00000000078
F00000000078
F0000F800078
F0000F800078
F0000F800078
F0000F800078
F0000F800078
F0000F800078
F0000F800078
F0000F800078
F0000F800078
F0000F800078
F0000F800078
F0000F800078
F0000F800078
F0000F800078
F0000F800078
F0000F800078
F0000F800078
F00000000078
F00000000078
F00000000078
F00000000078
F00000000078
F00000000078
F80000000078
780000000078
7C0000000078
7C0000000078
3E0000000078
3F0000000078
1F8000000078
0FC000000078
07F000000078
03FE00000078
01FFFF800078
00FFFF800078
003FFF800078
FFFFFF800078
FFFFFF800078
FFFFFF800078
FFFFFF800078
F00000000078
F00000000078
F00000000078
F00000000078
F00000000078
F000000000F8
F000000000F8
F000000000F8
F000000001F8
F000000003F8
F000000003F8
F000000007F8
F00000000FF8
F00000003FF8
F00000007FF8
F0000003FFF8
FFFFFFFFFFF8
FFFFFFFFFFF8
FFFFFFFFFFF8
FFFFFFFFFFF8
FFFFFFFFFFF8
FFFFFFFFFFF8
FFFFFFFFFFF0
FFFFFFFFFFF0
FFFFFFFFFFF0
FFFFFFFFFFF0
FFFFFFFFFFE0
FFFFFFFFFFE0
FFFFFFFFFFC0
FFFFFFFFFF80
FFFFFFFFFF00
FFFFFFFFFE00
FFFFFFFFFC00
FFFFFFFFF800
FFFFFFFFF000
FFFFFFFFC000
FFFFFFFE0000
ENDCHAR
STARTCHAR 003A
ENCODING 58
SWIDTH 238 0
DWIDTH 20 0
BBX 24 67 0 -21
BITMAP
FFFFFF
FFFFFF
FFFFFF
FFFFFF
F0000F
F0000F
F0000F
F0000F
F0000F
F0000F
F0000F
F0000F
F0000F
F0000F
F0000F
F0000F
F0000F
F0000F
F0000F
F0000F
F0000F
F0000F
FFFFFF
FFFFFF
FFFFFF
FFFFFF
FFFFFF
FFFFFF
F0000F
F0000F
F0000F
F0000F
F0000F
F0000F
F0000F
F0000F
F0000F
F0000F
F0000F
F0000F
F0000F
F0000F
F0000F
F0000F
F0000F
F0000F
FFFFFF
FFFFFF
FFFFFF
FFFFFF
FFFFFF
FFFFFF
FFFFFF
FFFFFF
FFFFFF
FFFFFF
FFFFFF
FFFFFF
FFFFFF
FFFFFF
FFFFFF
FFFFFF
FFFFFF
FFFFFF
FFFFFF
FFFFFF
FFFFFF
ENDCHAR
STARTCHAR 003B
ENCODING 59
SWIDTH 238 0
DWIDTH 20 0
BBX 24 76 0 -30
BITMAP
FFFFFF
FFFFFF
FFFFFF
FFFFFF
F0000F
F0000F
F0000F
F0000F
F0000F
F0000F
F0000F
F0000F
F0000F
F0000F
F0000F
F0000F
F0000F
F0000F
F0000F
F0000F
F0000F
F0000F
FFFFFF
FFFFFF
FFFFFF
FFFFFF
FFFFFF
FFFFFF
F0000F
F0000F
F0000F
F0000F
F0000F
F0000F
F0000F
F0000F
F0000F
F0000F
F0000F
F0000F
F0000F
F0000F
F0000F
F0000F
F0000F
F0000F
F0000F
F0000F
F0000F
F0000F
F0000F
F0000F
F0000F
F0000F
F0000F
FFFFFF
FFFFFF
FFFFFF
FFFFFF
FFFFFF
FFFFFF
FFFFFF
FFFFFF
FFFFFF
FFFFFF
FFFFFF
FFFFFF
FFFFFF
FFFFFF
FFFFFF
FFFFFF
FFFFFF
FFFFFF
FFFFFF
FFFFFF
FFFFFF
ENDCHAR
STARTCHAR 003C
ENCODING 60
SWIDTH 809 0
DWIDTH 68 0
BBX 63 63 4 8
BITMAP
003FFFFFFFFFFC00
01FFFFFFFFFFFF00
03FFFFFFFFFFFFC0
07FC07FFFFF01FE0
0FF000FFFF8003F0
1FC0007FFE0001F8
3F80001FFC000078
7F00000FF800003C
7E00000FF000003C
7C000007E000001E
7C000003E000000E
F8000003C000000E
F8000001C0000006
F8000001C0000006
F000000180000006
F000000180000006
F000000180000006
F000000180000006
F000000180000006
F000000180000006
F8000001C0000006
F8000001C0000006
F8000003C000000E
FC000003E000000E
FC000007E000001E
FE000007F000003E
FF00000FF800003E
FF80001FFC00007E
FFC0003FFE0001FE
FFF000FFFF8003FE
FFFC07FFFFE01FFE
FFFFFFFFFFFFFFFE
FFFFFFFFFFFFFFFE
FFFC03FFFFE01FFE
FFE000FFFF8003FE
FFC0003FFE0001FE
FF80001FFC00007E
FF00000FF800003E
FE000007F000001E
FC000007E000001E
FC000003E000000E
F8000003C000000E
F8000001C0000006
F8000001C0000006
F000000180000006
F000000180000006
F000000180000006
F000000180000006
F0000001C0000006
F8000001C0000006
F8000003C000000E
F8000003E000000E
7C000007E000001E
7E000007F000001E
7F00000FF800003C
7F80001FFC00007C
3FC0003FFE0000F8
1FE000FFFF8003F8
0FFC03FFFFE01FF0
0FFFFFFFFFFFFFE0
03FFFFFFFFFFFFC0
01FFFFFFFFFFFF00
003FFFFFFFFFFC00
ENDCHAR
STARTCHAR 003D
ENCODING 61
SWIDTH 488 0
DWIDTH 41 0
BBX 45 63 0 -8
BITMAP
FFFFFFFFFFF8
FFFFFFFFFFF8
FFFFFFFFFFF8
FFFFFFFFFFF8
F00000000078
F00000000078
F00000000078
F00000000078
F00000000078
F00000000078
F00000000078
F00000000078
F00000000078
F00000000078
F00000000078
F00000000078
F00000000078
F00000000078
F00000000078
F00000000078
FFFFFFFFFFF8
FFFFFFFFFFF8
FFFFFFFFFFF8
FFFFFFFFFFF8
FFFFFFFFFFF8
FFFFFFFFFFF8
F00000000078
F00000000078
F00000000078
F00000000078
F00000000078
F00000000078
F00000000078
F00000000078
F00000000078
F00000000078
F00000000078
F00000000078
F00000000078
F00000000078
F00000000078
F00000000078
FFFFFFFFFFF8
FFFFFFFFFFF8
FFFFFFFFFFF8
FFFFFFFFFFF8
FFFFFFFFFFF8
FFFFFFFFFFF8
FFFFFFFFFFF8
FFFFFFFFFFF8
FFFFFFFFFFF8
FFFFFFFFFFF8
FFFFFFFFFFF8
FFFFFFFFFFF8
FFFFFFFFFFF8
FFFFFFFFFFF8
FFFFFFFFFFF8
FFFFFFFFFFF8
FFFFFFFFFFF8
FFFFFFFFFFF8
FFFFFFFFFFF8
FFFFFFFFFFF8
FFFFFFFFFFF8
ENDCHAR
STARTCHAR 003E
ENCODING 62
SWIDTH 273 0
DWIDTH 23 0
BBX 63 63 4 8
BITMAP
003FFFFFFFFFF800
01FFFFFFFFFFFF00
07FFFFFFFFFFFFC0
0FFC07FFFFE01FE0
1FE000FFFF8007F0
3FC0007FFE0001F8
3F80003FFC0000F8
7F00001FF800007C
7E00000FF000003C
FC000007E000001C
F8000007E000001E
F8000003C000000E
F8000003C000000E
F000000180000006
F000000180000006
F000000180000006
F000000180000006
F000000180000006
F000000180000006
F000000180000006
F000000180000006
F8000003C000000E
F8000003C000000E
F8000007E000001E
FC000007E000001E
FE00000FF000003E
FF00001FF800007E
FF80003FFC0000FE
FFC0007FFE0001FE
FFE000FFFF8007FE
FFFC07FFFFE01FFE
FFFFFFFFFFFFFFFE
FFFFFFFFFFFFFFFE
FFFC07FFFFE01FFE
FFE000FFFF0003FE
FFC0007FFE0001FE
FF00001FF800007E
FE00000FF000003E
FC000007F000003E
FC000007E000001E
F8000003C000000E
F8000003C000000E
F00000018000000E
F000000180000006
F000000180000006
F000000180000006
F000000180000006
F000000180000006
F000000180000006
F00000018000000E
F8000003C000000E
F8000003C000000E
FC000007E000001E
FC000007E000003E
7E00000FF000003C
7F00001FF800007C
3F80003FFE0001F8
3FE000FFFF0003F8
1FFC07FFFFE01FF0
0FFFFFFFFFFFFFE0
07FFFFFFFFFFFFC0
01FFFFFFFFFFFF00
007FFFFFFFFFFC00
ENDCHAR
STARTCHAR 003F
ENCODING 63
SWIDTH 488 0
DWIDTH 41 0
BBX 45 98 0 -21
BITMAP
0003FFFC0000
001FFFFFC000
007FFFFFF000
00FFFFFFF800
03FE0003FC00
07F000007E00
0FC000003F00
0F8000000F80
1F00000007C0
3E00000003C0
3C00000003E0
7C00000001E0
7800000000F0
7800000000F0
F000000000F0
F00000000078
F00000000078
F00000000078
F00000000078
F00000000078
F0000F000078
F0000F000078
F0000F000078
F0000F000078
FFFFFF000078
FFFFFF000078
FFFFFF000078
FFFFFF000078
0007FC000078
000FF0000078
003FC0000078
00FF80000078
01FE00000078
03F8000000F8
07F0000000F8
0FC0000001F8
1F80000001F8
3F00000003F8
3E00000007F8
7C0000000FF8
780000001FF8
780000007FF8
F8000001FFF8
F0000007FFF8
F000001FFFF8
F000007FFFF8
F00003FFFFF8
F0000FFFFFF8
F0000FFFFFF8
F0000FFFFFF8
F0000FFFFFF0
FFFFFFFFFFF0
FFFFFFFFFFF0
FFFFFFFFFFE0
FFFFFFFFFFE0
FFFFFFFFFFC0
FFFFFFFFFFC0
FFFFFFFFFF80
FFFFFFFFFF00
F0000FFFFE00
F0000FFFFC00
F0000FFFF000
F0000FFFC000
F0000FFF8000
F0000FFE0000
F0000FF80000
F0000FE00000
F0000F000000
F0000F000000
F0000F000000
F0000F000000
F0000F000000
F0000F000000
F0000F000000
F0000F000000
F0000F000000
F0000F000000
FFFFFF000000
FFFFFF000000
FFFFFF000000
FFFFFF000000
FFFFFF000000
FFFFFF000000
FFFFFF000000
FFFFFF000000
FFFFFF000000
FFFFFF000000
FFFFFF000000
FFFFFF000000
FFFFFF000000
FFFFFF000000
FFFFFF000000
FFFFFF000000
FFFFFF000000
FFFFFF000000
FFFFFF000000
FFFFFF000000
FFFFFF000000
ENDCHAR
STARTCHAR 0040
ENCODING 64
SWIDTH 642 0
DWIDTH 54 0
BBX 59 98 0 -21
BITMAP
0003FFFFFFF00000
001FFFFFFFFE0000
007FFFFFFFFF8000
00FFFFFFFFFFE000
01FE0000000FF000
07F000000001F800
07E000000000FC00
0F80000000003E00
1F00000000001F00
3E00000000000F00
3C00000000000F80
7C00000000000780
78000000000007C0
78000000000003C0
F8000000000003C0
F0000000000001E0
F0000000000001E0
F0000000000001E0
F0000000000001E0
F0000000000001E0
F0000FFFFC0001E0
F0000FFFFC0001E0
F0000FFFFC0001E0
F0000FFFC00001E0
F0000F3F800001E0
F0000F7E000001E0
F0000FFC000001E0
F0000FF8000001E0
F0000FF8000001E0
F0000FF0000001E0
F0000FE0000001E0
F0000FE0000001E0
F0000FE0000001E0
F0000FC0000001E0
F0000FC0000001E0
F0000FC0000001E0
F0000FC0000001E0
F0000FC0000001E0
F0000FC0000001E0
F0000FC0000001E0
F0000FC0000001E0
F0000FC0000001E0
F0000FC0000001E0
F0000FC0000001E0
F0000FC0000001E0
F0000FE0000001E0
F0000FE0000001E0
F0000FE0000001E0
F0000FF0000001E0
F0000FF0000001E0
F0000FF8000001E0
F0000FFC000001E0
F0000F7E000001E0
F0000F3F000001E0
F0000F1FC00001E0
F0000F0FF80001E0
F0000F07FFFFFFE0
F0000FFFFFFFFFE0
F0000FFFFFFFFFE0
F0000FFFFFFFFFE0
F0000FFFFFFFFFE0
F0000000000001E0
F0000000000001E0
F0000000000001E0
F0000000000001E0
F0000000000001E0
F0000000000001E0
F8000000000001E0
F8000000000001E0
FC000000000001E0
FC000000000001E0
FE000000000001E0
FF000000000001E0
FF800000000001E0
FFC00000000001E0
FFF00000000001E0
FFFE0000000001E0
FFFFFFFFFFFFFFE0
FFFFFFFFFFFFFFE0
FFFFFFFFFFFFFFE0
FFFFFFFFFFFFFFE0
FFFFFFFFFFFFFFE0
FFFFFFFFFFFFFFE0
FFFFFFFFFFFFFFE0
7FFFFFFFFFFFFFE0
7FFFFFFFFFFFFFE0
7FFFFFFFFFFFFFE0
3FFFFFFFFFFFFFE0
3FFFFFFFFFFFFFE0
1FFFFFFFFFFFFFE0
0FFFFFFFFFFFFFE0
07FFFFFFFFFFFFE0
03FFFFFFFFFFFFE0
01FFFFFFFFFFFFE0
00FFFFFFFFFFFFE0
007FFFFFFFFFFFE0
001FFFFFFFFFFFE0
0003FFFFFFFFFFE0
ENDCHAR
STARTCHAR 0041
ENCODING 65
SWIDTH 464 0
DWIDTH 39 0
BBX 43 98 0 -21
BITMAP
0003FFFFFFE0
001FFFFFFFE0
007FFFFFFFE0
00FFFFFFFFE0
01FE000001E0
07F0000001E0
07E0000001E0
0F80000001E0
1F00000001E0
3E00000001E0
3C00000001E0
7C00000001E0
7800000001E0
7800000001E0
F800000001E0
F000000001E0
F000000001E0
F000000001E0
F000000001E0
F000000001E0
F000000001E0
F0000E0001E0
F0000E0001E0
F0000E0001E0
F0000E0001E0
F0000E0001E0
F0000E0001E0
F0000E0001E0
F0000E0001E0
F0000E0001E0
F0000E0001E0
F0000E0001E0
F0000E0001E0
F0000E0001E0
F0000E0001E0
F0000E0001E0
F0000E0001E0
F0000E0001E0
F0000E0001E0
F0000E0001E0
F0000E0001E0
F0000E0001E0
F000000001E0
F000000001E0
F000000001E0
F000000001E0
F000000001E0
F000000001E0
F000000001E0
F000000001E0
F000000001E0
F000000001E0
F000000001E0
F000000001E0
F000000001E0
F000000001E0
F000000001E0
F000000001E0
F0000E0001E0
F0000E0001E0
F0000E0001E0
F0000E0001E0
F0000E0001E0
F0000E0001E0
F0000E0001E0
F0000E0001E0
F0000E0001E0
F0000E0001E0
F0000E0001E0
F0000E0001E0
F0000E0001E0
F0000E0001E0
F0000E0001E0
F0000E0001E0
F0000E0001E0
F0000E0001E0
F0000E0001E0
FFFFFFFFFFE0
FFFFFFFFFFE0
FFFFFFFFFFE0
FFFFFFFFFFE0
FFFFFFFFFFE0
FFFFFFFFFFE0
FFFFFFFFFFE0
FFFFFFFFFFE0
FFFFFFFFFFE0
FFFFFFFFFFE0
FFFFFFFFFFE0
FFFFFFFFFFE0
FFFFFFFFFFE0
FFFFFFFFFFE0
FFFFFFFFFFE0
FFFFFFFFFFE0
FFFFFFFFFFE0
FFFFFFFFFFE0
FFFFFFFFFFE0
FFFFFFFFFFE0
FFFFFFFFFFE0
ENDCHAR
STARTCHAR 0042
ENCODING 66
SWIDTH 464 0
DWIDTH 39 0
BBX 43 98 0 -21
BITMAP
FFFFFFF00000
FFFFFFFE0000
FFFFFFFF8000
FFFFFFFFE000
F000000FF000
F0000003F800
F0000000FC00
F00000007E00
F00000001E00
F00000001F00
F00000000F80
F00000000780
F00000000780
F000000003C0
F000000003C0
F000000003C0
F000000003C0
F000000001C0
F000000001E0
F000000001E0
F000000001E0
F0000E0001E0
F0000E0001E0
F0000E0001E0
F0000E0001E0
F0000E0001E0
F0000E0001E0
F0000E0001E0
F0000E0001E0
F0000E0001E0
F0000E0001E0
F0000E0001E0
F000000001E0
F000000001E0
F000000001E0
F000000001E0
F000000001E0
F000000001E0
F000000003C0
F000000003C0
F000000003C0
F000000001C0
F000000001E0
F000000001E0
F000000001E0
F000000001E0
F000000001E0
F000000001E0
F0000E0001E0
F0000E0001E0
F0000E0001E0
F0000E0001E0
F0000E0001E0
F0000E0001E0
F0000E0001E0
F0000E0001E0
F0000E0001E0
F0000E0001E0
F0000E0001E0
F0000E0001E0
F0000E0001E0
F000000001E0
F000000001E0
F000000001E0
F000000001E0
F000000001E0
F000000003E0
F000000003E0
F000000003E0
F000000007E0
F000000007E0
F00000000FE0
F00000001FE0
F00000003FE0
F0000000FFE0
F0000001FFE0
F000000FFFE0
FFFFFFFFFFE0
FFFFFFFFFFE0
FFFFFFFFFFE0
FFFFFFFFFFE0
FFFFFFFFFFE0
FFFFFFFFFFE0
FFFFFFFFFFE0
FFFFFFFFFFC0
FFFFFFFFFFC0
FFFFFFFFFFC0
FFFFFFFFFF80
FFFFFFFFFF80
FFFFFFFFFF00
FFFFFFFFFE00
FFFFFFFFFC00
FFFFFFFFF800
FFFFFFFFF000
FFFFFFFFE000
FFFFFFFFC000
FFFFFFFF0000
FFFFFFF80000
ENDCHAR
STARTCHAR 0043
ENCODING 67
SWIDTH 464 0
DWIDTH 39 0
BBX 43 98 0 -21
BITMAP
0003FFF00000
001FFFFE0000
007FFFFF8000
00FFFFFFE000
01FE000FF000
07F00001F800
07C00000FC00
0F8000003E00
1F0000001F00
3E0000000F00
3C0000000F80
7C00000007C0
7800000003C0
7800000003C0
F800000003C0
F000000001E0
F000000001E0
F000000001E0
F000000001E0
F000000001E0
F0000E0001E0
F0000E0001E0
F0000E0001E0
F0000E0001E0
F0000E0001E0
F0000E0001E0
F0000E0001E0
F0000E0001E0
F0000E0001E0
F0000E0001E0
F0000E0001E0
F0000E0001E0
F0000E0001E0
F0000E0001E0
F0000E0001E0
F0000E0001E0
F0000E0001E0
F0000E0001E0
F0000E0001E0
F0000E0001E0
F0000E0001E0
F0000E0001E0
F0000E0001E0
F0000E0001E0
F0000E0001E0
F0000E0001E0
F0000FFFFFE0
F0000FFFFFE0
F0000FFFFFE0
F0000FFFFFE0
F0000F000000
F0000F000000
F0000F000000
F0000F000000
F0000F000000
F0000F000000
F0000F000000
F0000FFFFFE0
F0000FFFFFE0
F0000FFFFFE0
F0000FFFFFE0
F000000001E0
F000000001E0
F000000001E0
F000000001E0
F000000001E0
F000000001E0
F800000001E0
F800000001E0
FC00000001E0
FC00000001E0
FE00000001E0
FF00000001E0
FF80000001E0
FFC0000001E0
FFF0000001E0
FFFE000001E0
FFFFFFFFFFE0
FFFFFFFFFFE0
FFFFFFFFFFE0
FFFFFFFFFFE0
FFFFFFFFFFE0
FFFFFFFFFFE0
FFFFFFFFFFE0
7FFFFFFFFFE0
7FFFFFFFFFE0
7FFFFFFFFFE0
3FFFFFFFFFE0
3FFFFFFFFFE0
1FFFFFFFFFE0
0FFFFFFFFFE0
0FFFFFFFFFE0
07FFFFFFFFE0
03FFFFFFFFE0
00FFFFFFFFE0
007FFFFFFFE0
001FFFFFFFE0
0003FFFFFFE0
ENDCHAR
STARTCHAR 0044
ENCODING 68
SWIDTH 464 0
DWIDTH 39 0
BBX 43 98 0 -21
BITMAP
FFFFFFF00000
FFFFFFFF0000
FFFFFFFFC000
FFFFFFFFE000
F000000FF000
F0000001F800
F0000000FC00
F00000003E00
F00000001F00
F00000000F80
F00000000F80
F000000007C0
F000000003C0
F000000003C0
F000000003C0
F000000001E0
F000000001E0
F000000001E0
F000000001E0
F000000001E0
F000000001E0
F0000E0001E0
F0000E0001E0
F0000E0001E0
F0000E0001E0
F0000E0001E0
F0000E0001E0
F0000E0001E0
F0000E0001E0
F0000E0001E0
F0000E0001E0
F0000E0001E0
F0000E0001E0
F0000E0001E0
F0000E0001E0
F0000E0001E0
F0000E0001E0
F0000E0001E0
F0000E0001E0
F0000E0001E0
F0000E0001E0
F0000E0001E0
F0000E0001E0
F0000E0001E0
F0000E0001E0
F0000E0001E0
F0000E0001E0
F0000E0001E0
F0000E0001E0
F0000E0001E0
F0000E0001E0
F0000E0001E0
F0000E0001E0
F0000E0001E0
F0000E0001E0
F0000E0001E0
F0000E0001E0
F0000E0001E0
F0000E0001E0
F0000E0001E0
F0000E0001E0
F000000001E0
F000000001E0
F000000001E0
F000000001E0
F000000001E0
F000000003E0
F000000003E0
F000000003E0
F000000007E0
F00000000FE0
F00000000FE0
F00000001FE0
F00000003FE0
F0000000FFE0
F0000001FFE0
F000000FFFE0
FFFFFFFFFFE0
FFFFFFFFFFE0
FFFFFFFFFFE0
FFFFFFFFFFE0
FFFFFFFFFFE0
FFFFFFFFFFE0
FFFFFFFFFFE0
FFFFFFFFFFC0
FFFFFFFFFFC0
FFFFFFFFFFC0
FFFFFFFFFF80
FFFFFFFFFF80
FFFFFFFFFF00
FFFFFFFFFE00
FFFFFFFFFC00
FFFFFFFFF800
FFFFFFFFF000
FFFFFFFFE000
FFFFFFFFC000
FFFFFFFF0000
FFFFFFF80000
ENDCHAR
STARTCHAR 0045
ENCODING 69
SWIDTH 464 0
DWIDTH 39 0
BBX 43 98 0 -21
BITMAP
0003FFF00000
001FFFFF0000
007FFFFF8000
00FFFFFFE000
01FE000FF000
07F00001F800
07E00000FC00
0F8000003E00
1F0000001F00
3E0000000F00
3C0000000F80
7C0000000780
7800000003C0
7800000003C0
F800000003C0
F000000001E0
F000000001E0
F000000001E0
F000000001E0
F000000001E0
F000000001E0
F0000E0001E0
F0000E0001E0
F0000E0001E0
F0000E0001E0
F0000E0001E0
F0000E0001E0
F0000E0001E0
F0000E0001E0
F0000E0001E0
F0000E0001E0
F0000E0001E0
F0000E0001E0
F0000E0001E0
F0000E0001E0
F0000E0001E0
F0000E0001E0
F0000E0001E0
F0000E0001E0
F0000E0001E0
F0000E0001E0
F0000E0001E0
F000000001E0
F000000001E0
F000000001E0
F000000001E0
F000000001E0
F000000001E0
F000000001E0
F000000001E0
F000000001E0
F000000001E0
F000000001E0
F000000001E0
F000000001E0
F000000001E0
F000000001E0
F000000001E0
F0000FFFFFE0
F0000FFFFFE0
F0000FFFFFE0
F000000001E0
F000000001E0
F000000001E0
F000000001E0
F000000001E0
F000000001E0
F800000001E0
F800000001E0
FC00000001E0
FC00000001E0
FE00000001E0
FF00000001E0
FF80000001E0
FFC0000001E0
FFF0000001E0
FFFE000001E0
FFFFFFFFFFE0
FFFFFFFFFFE0
FFFFFFFFFFE0
FFFFFFFFFFE0
FFFFFFFFFFE0
FFFFFFFFFFE0
FFFFFFFFFFE0
7FFFFFFFFFE0
7FFFFFFFFFE0
7FFFFFFFFFE0
3FFFFFFFFFE0
3FFFFFFFFFE0
1FFFFFFFFFE0
0FFFFFFFFFE0
0FFFFFFFFFE0
07FFFFFFFFE0
03FFFFFFFFE0
00FFFFFFFFE0
007FFFFFFFE0
001FFFFFFFE0
0003FFFFFFE0
ENDCHAR
STARTCHAR 0046
ENCODING 70
SWIDTH 488 0
DWIDTH 41 0
BBX 45 98 0 -21
BITMAP
FFFFFFFFFFF8
FFFFFFFFFFF8
FFFFFFFFFFF8
FFFFFFFFFFF8
F00000000078
F00000000078
F00000000078
F00000000078
F00000000078
F00000000078
F00000000078
F00000000078
F00000000078
F00000000078
F00000000078
F00000000078
F00000000078
F00000000078
F00000000078
F00000000078
F0000FFFFFF8
F0000FFFFFF8
F0000FFFFFF8
F00000000078
F00000000078
F00000000078
F00000000078
F00000000078
F00000000078
F00000000078
F00000000078
F00000000078
F00000000078
F00000000078
F00000000078
F00000000078
F00000000078
F00000000078
F00000000078
F0000FFFFFF8
F0000FFFFFF8
F0000FFFFFF8
F0000FFFFFF8
F0000FFFFFF8
F0000FFFFFF8
F0000FFFFFF8
F0000FFFFFF8
F0000FFFFFF8
F0000FFFFFF8
F0000FFFFFF8
F0000FFFFFF8
F0000FFFFFF8
F0000FFFFFF8
F0000FFFFFF8
F0000FFFFFF8
F0000FFFFFF8
F0000FFFFFF8
F0000FFFFFF8
F0000FFFFFF8
F0000FFFFFF8
F0000F000000
F0000F000000
F0000F000000
F0000F000000
F0000F000000
F0000F000000
F0000F000000
F0000F000000
F0000F000000
F0000F000000
F0000F000000
F0000F000000
F0000F000000
F0000F000000
F0000F000000
F0000F000000
F0000F000000
FFFFFF000000
FFFFFF000000
FFFFFF000000
FFFFFF000000
FFFFFF000000
FFFFFF000000
FFFFFF000000
FFFFFF000000
FFFFFF000000
FFFFFF000000
FFFFFF000000
FFFFFF000000
FFFFFF000000
FFFFFF000000
FFFFFF000000
FFFFFF000000
FFFFFF000000
FFFFFF000000
FFFFFF000000
FFFFFF000000
FFFFFF000000
ENDCHAR
STARTCHAR 0047
ENCODING 71
SWIDTH 464 0
DWIDTH 39 0
BBX 43 110 0 -33
BITMAP
0001FFF00000
001FFFFF0000
007FFFFF8000
00FFFFFFE000
01FE000FF000
03F00001F800
07E00000FC00
0F8000003E00
1F0000001F00
3E0000000F00
3C0000000F80
7C0000000780
7800000003C0
7800000003C0
F800000003C0
F000000001E0
F000000001E0
F000000001E0
F000000001E0
F000000001E0
F0000E0001E0
F0000E0001E0
F0000E0001E0
F0000E0001E0
F0000E0001E0
F0000E0001E0
F0000E0001E0
F0000E0001E0
F0000E0001E0
F0000E0001E0
F0000E0001E0
F0000E0001E0
F0000E0001E0
F0000E0001E0
F0000FFFFFE0
F0000FFFFFE0
F0000FFFFFE0
F0000E0001E0
F0000E0001E0
F0000E0001E0
F0000E0001E0
F0000E0001E0
F0000E0001E0
F0000E0001E0
F0000E0001E0
F0000E0001E0
F0000E0001E0
F0000E0001E0
F0000E0001E0
F0000E0001E0
F0000E0001E0
F0000E0001E0
F0000E0001E0
F0000E0001E0
F0000E0001E0
F0000E0001E0
F0000E0001E0
F0000E0001E0
F0000E0001E0
F0000E0001E0
F0000E0001E0
F000000001E0
F000000001E0
F000000001E0
F000000001E0
F000000001E0
F000000001E0
F800000001E0
F800000001E0
FC00000001E0
FC00000001E0
FE00000001E0
FF00000001E0
FF80000001E0
FFE0000001E0
FFF0000001E0
FFFE000001E0
FFFFFE0001E0
FFFFFE0001E0
FFFFFE0001E0
FFFFFE0001E0
FFFFFE0001E0
FFFFFE0001E0
FFFFFE0001E0
7FFFFE0001E0
7FFFFE0001E0
7FFFFE0001E0
3FFFFE0001E0
3FFFFE0001E0
1FFFFFFFFFE0
0FFFFFFFFFE0
07FFFFFFFFE0
03FFFFFFFFE0
01FFFFFFFFE0
00FFFFFFFFE0
007FFFFFFFE0
001FFFFFFFE0
0001FFFFFFE0
00001FFFFFE0
00001FFFFFE0
00001FFFFFE0
00001FFFFFE0
00001FFFFFE0
00001FFFFFE0
00001FFFFFE0
00001FFFFFE0
00001FFFFFE0
00001FFFFFE0
00001FFFFFE0
00001FFFFFE0
ENDCHAR
STARTCHAR 0048
ENCODING 72
SWIDTH 464 0
DWIDTH 39 0
BBX 43 98 0 -21
BITMAP
FFFFFFFFFFE0
FFFFFFFFFFE0
FFFFFFFFFFE0
FFFFFFFFFFE0
F0000E0001E0
F0000E0001E0
F0000E0001E0
F0000E0001E0
F0000E0001E0
F0000E0001E0
F0000E0001E0
F0000E0001E0
F0000E0001E0
F0000E0001E0
F0000E0001E0
F0000E0001E0
F0000E0001E0
F0000E0001E0
F0000E0001E0
F0000E0001E0
F0000E0001E0
F0000E0001E0
F0000E0001E0
F0000E0001E0
F0000E0001E0
F0000E0001E0
F0000E0001E0
F0000E0001E0
F0000E0001E0
F0000E0001E0
F000000001E0
F000000001E0
F000000001E0
F000000001E0
F000000001E0
F000000001E0
F000000001E0
F000000001E0
F000000001E0
F000000001E0
F000000001E0
F000000001E0
F000000001E0
F000000001E0
F000000001E0
F000000001E0
F0000E0001E0
F0000E0001E0
F0000E0001E0
F0000E0001E0
F0000E0001E0
F0000E0001E0
F0000E0001E0
F0000E0001E0
F0000E0001E0
F0000E0001E0
F0000E0001E0
F0000E0001E0
F0000E0001E0
F0000E0001E0
F0000E0001E0
F0000E0001E0
F0000E0001E0
F0000E0001E0
F0000E0001E0
F0000E0001E0
F0000E0001E0
F0000E0001E0
F0000E0001E0
F0000E0001E0
F0000E0001E0
F0000E0001E0
F0000E0001E0
F0000E0001E0
F0000E0001E0
F0000E0001E0
F0000E0001E0
FFFFFFFFFFE0
FFFFFFFFFFE0
FFFFFFFFFFE0
FFFFFFFFFFE0
FFFFFFFFFFE0
FFFFFFFFFFE0
FFFFFFFFFFE0
FFFFFFFFFFE0
FFFFFFFFFFE0
FFFFFFFFFFE0
FFFFFFFFFFE0
FFFFFFFFFFE0
FFFFFFFFFFE0
FFFFFFFFFFE0
FFFFFFFFFFE0
FFFFFFFFFFE0
FFFFFFFFFFE0
FFFFFFFFFFE0
FFFFFFFFFFE0
FFFFFFFFFFE0
FFFFFFFFFFE0
ENDCHAR
STARTCHAR 0049
ENCODING 73
SWIDTH 238 0
DWIDTH 20 0
BBX 24 98 0 -21
BITMAP
FFFFFF
FFFFFF
FFFFFF
FFFFFF
F0000F
F0000F
F0000F
F0000F
F0000F
F0000F
F0000F
F0000F
F0000F
F0000F
F0000F
F0000F
F0000F
F0000F
F0000F
F0000F
F0000F
F0000F
F0000F
F0000F
F0000F
F0000F
F0000F
F0000F
F0000F
F0000F
F0000F
F0000F
F0000F
F0000F
F0000F
F0000F
F0000F
F0000F
F0000F
F0000F
F0000F
F0000F
F0000F
F0000F
F0000F
F0000F
F0000F
F0000F
F0000F
F0000F
F0000F
F0000F
F0000F
F0000F
F0000F
F0000F
F0000F
F0000F
F0000F
F0000F
F0000F
F0000F
F0000F
F0000F
F0000F
F0000F
F0000F
F0000F
F0000F
F0000F
F0000F
F0000F
F0000F
F0000F
F0000F
F0000F
F0000F
FFFFFF
FFFFFF
FFFFFF
FFFFFF
FFFFFF
FFFFFF
FFFFFF
FFFFFF
FFFFFF
FFFFFF
FFFFFF
FFFFFF
FFFFFF
FFFFFF
FFFFFF
FFFFFF
FFFFFF
FFFFFF
FFFFFF
FFFFFF
FFFFFF
ENDCHAR
STARTCHAR 004A
ENCODING 74
SWIDTH 464 0
DWIDTH 39 0
BBX 43 98 0 -21
BITMAP
00001FFFFFE0
00001FFFFFE0
00001FFFFFE0
00001FFFFFE0
00001E0001E0
00001E0001E0
00001E0001E0
00001E0001E0
00001E0001E0
00001E0001E0
00001E0001E0
00001E0001E0
00001E0001E0
00001E0001E0
00001E0001E0
00001E0001E0
00001E0001E0
00001E0001E0
00001E0001E0
00001E0001E0
00001E0001E0
00001E0001E0
00001E0001E0
00001E0001E0
00001E0001E0
00001E0001E0
00001E0001E0
00001E0001E0
00001E0001E0
00001E0001E0
00001E0001E0
00001E0001E0
00001E0001E0
00001E0001E0
00001E0001E0
FFFFFE0001E0
FFFFFE0001E0
FFFFFE0001E0
FFFFFE0001E0
F0000E0001E0
F0000E0001E0
F0000E0001E0
F0000E0001E0
F0000E0001E0
F0000E0001E0
F0000E0001E0
F0000E0001E0
F0000E0001E0
F0000E0001E0
F0000E0001E0
F0000E0001E0
F0000E0001E0
F0000E0001E0
F0000E0001E0
F0000E0001E0
F0000E0001E0
F0000E0001E0
F0000E0001E0
F0000E0001E0
F0000E0001E0
F0000E0001E0
F000000001E0
F000000001E0
F000000001E0
F000000001E0
F000000001E0
F800000003E0
F800000003E0
F800000003E0
FC00000007E0
FE0000000FE0
FE0000000FE0
FF0000001FE0
FF8000003FE0
FFE00000FFE0
FFF00001FFE0
FFFE000FFFE0
FFFFFFFFFFE0
FFFFFFFFFFE0
FFFFFFFFFFE0
FFFFFFFFFFE0
FFFFFFFFFFE0
FFFFFFFFFFE0
FFFFFFFFFFC0
7FFFFFFFFFC0
7FFFFFFFFFC0
7FFFFFFFFFC0
3FFFFFFFFF80
3FFFFFFFFF80
1FFFFFFFFF00
0FFFFFFFFE00
07FFFFFFFC00
03FFFFFFF800
01FFFFFFF000
00FFFFFFE000
007FFFFFC000
001FFFFF0000
0003FFF80000
ENDCHAR
STARTCHAR 004B
ENCODING 75
SWIDTH 464 0
DWIDTH 39 0
BBX 49 98 0 -21
BITMAP
FFFFFFFFFFFF80
FFFFFFFFFFFF80
FFFFFFFFFFFF00
FFFFFFFFFFFF00
F0000FC0001F00
F0000FC0001E00
F0000FC0001E00
F0000F80003E00
F0000F80003C00
F0000F00003C00
F0000F00007C00
F0000F00007800
F0000E00007800
F0000E0000F800
F0000E0000F000
F0000C0000F000
F0000C0001F000
F0000C0001E000
F000080001E000
F000080003E000
F000080003C000
F000000003C000
F0000000078000
F0000000078000
F0000000078000
F00000000F0000
F00000000F0000
F00000001F0000
F00000001E0000
F00000001E0000
F00000003E0000
F00000003C0000
F00000003C0000
F00000007C0000
F0000000780000
F0000000780000
F0000000F80000
F0000000F00000
F0000000F00000
F0000001F00000
F0000001E00000
F0000001E00000
F0000003F00000
F0000003F80000
F0000001FC0000
F00000007E0000
F00000003F0000
F00000001F0000
F00000000F8000
F0000000078000
F000000007C000
F000000003C000
F000000003C000
F000000003E000
F000000001E000
F000000001E000
F000000001E000
F000000001E000
F000000001E000
F0000E0001E000
F0000E0001E000
F0000E0001E000
F0000E0001E000
F0000E0001E000
F0000E0001E000
F0000E0001E000
F0000E0001E000
F0000E0001E000
F0000E0001E000
F0000E0001E000
F0000E0001E000
F0000E0001E000
F0000E0001E000
F0000E0001E000
F0000E0001E000
F0000E0001E000
F0000E0001E000
FFFFFFFFFFE000
FFFFFFFFFFE000
FFFFFFFFFFE000
FFFFFFFFFFE000
FFFFFFFFFFE000
FFFFFFFFFFE000
FFFFFFFFFFE000
FFFFFFFFFFE000
FFFFFFFFFFE000
FFFFFFFFFFE000
FFFFFFFFFFE000
FFFFFFFFFFE000
FFFFFFFFFFE000
FFFFFFFFFFE000
FFFFFFFFFFE000
FFFFFFFFFFE000
FFFFFFFFFFE000
FFFFFFFFFFE000
FFFFFFFFFFE000
FFFFFFFFFFE000
FFFFFFFFFFE000
ENDCHAR
STARTCHAR 004C
ENCODING 76
SWIDTH 333 0
DWIDTH 28 0
BBX 32 98 0 -21
BITMAP
FFFFFF00
FFFFFF00
FFFFFF00
FFFFFF00
F0000F00
F0000F00
F0000F00
F0000F00
F0000F00
F0000F00
F0000F00
F0000F00
F0000F00
F0000F00
F0000F00
F0000F00
F0000F00
F0000F00
F0000F00
F0000F00
F0000F00
F0000F00
F0000F00
F0000F00
F0000F00
F0000F00
F0000F00
F0000F00
F0000F00
F0000F00
F0000F00
F0000F00
F0000F00
F0000F00
F0000F00
F0000F00
F0000F00
F0000F00
F0000F00
F0000F00
F0000F00
F0000F00
F0000F00
F0000F00
F0000F00
F0000F00
F0000F00
F0000F00
F0000F00
F0000F00
F0000F00
F0000F00
F0000F00
F0000F00
F0000F00
F0000F00
F0000F00
F0000FFF
F0000FFF
F0000FFF
F0000FFF
F000000F
F000000F
F000000F
F000000F
F000000F
F000000F
F000000F
F000000F
F000000F
F000000F
F000000F
F000000F
F000000F
F000000F
F000000F
F000000F
FFFFFFFF
FFFFFFFF
FFFFFFFF
FFFFFFFF
FFFFFFFF
FFFFFFFF
FFFFFFFF
FFFFFFFF
FFFFFFFF
FFFFFFFF
FFFFFFFF
FFFFFFFF
FFFFFFFF
FFFFFFFF
FFFFFFFF
FFFFFFFF
FFFFFFFF
FFFFFFFF
FFFFFFFF
FFFFFFFF
FFFFFFFF
ENDCHAR
STARTCHAR 004D
ENCODING 77
SWIDTH 678 0
DWIDTH 57 0
BBX 62 98 0 -21
BITMAP
0001FFF87FFE0000
001FFFFFFFFFE000
007FFFFFFFFFF000
00FFFFFFFFFFFC00
01FE00078001FE00
03F0000000003F00
07E0000000001F80
0F800000000007C0
1F000000000003E0
3E000000000001E0
3E000000000001F0
7C000000000000F8
7800000000000078
7800000000000078
F800000000000078
F00000000000003C
F00000000000003C
F00000000000003C
F00000000000003C
F00000000000003C
F0000E0001C0003C
F0000E0001C0003C
F0000E0001C0003C
F0000E0001C0003C
F0000E0001C0003C
F0000E0001C0003C
F0000E0001C0003C
F0000E0001C0003C
F0000E0001C0003C
F0000E0001C0003C
F0000E0001C0003C
F0000E0001C0003C
F0000E0001C0003C
F0000E0001C0003C
F0000E0001C0003C
F0000E0001C0003C
F0000E0001C0003C
F0000E0001C0003C
F0000E0001C0003C
F0000E0001C0003C
F0000E0001C0003C
F0000E0001C0003C
F0000E0001C0003C
F0000E0001C0003C
F0000E0001C0003C
F0000E0001C0003C
F0000E0001C0003C
F0000E0001C0003C
F0000E0001C0003C
F0000E0001C0003C
F0000E0001C0003C
F0000E0001C0003C
F0000E0001C0003C
F0000E0001C0003C
F0000E0001C0003C
F0000E0001C0003C
F0000E0001C0003C
F0000E0001C0003C
F0000E0001C0003C
F0000E0001C0003C
F0000E0001C0003C
F0000E0001C0003C
F0000E0001C0003C
F0000E0001C0003C
F0000E0001C0003C
F0000E0001C0003C
F0000E0001C0003C
F0000E0001C0003C
F0000E0001C0003C
F0000E0001C0003C
F0000E0001C0003C
F0000E0001C0003C
F0000E0001C0003C
F0000E0001C0003C
F0000E0001C0003C
F0000E0001C0003C
F0000E0001C0003C
FFFFFFFFFFFFFFFC
FFFFFFFFFFFFFFFC
FFFFFFFFFFFFFFFC
FFFFFFFFFFFFFFFC
FFFFFFFFFFFFFFFC
FFFFFFFFFFFFFFFC
FFFFFFFFFFFFFFFC
FFFFFFFFFFFFFFFC
FFFFFFFFFFFFFFFC
FFFFFFFFFFFFFFFC
FFFFFFFFFFFFFFFC
FFFFFFFFFFFFFFFC
FFFFFFFFFFFFFFFC
FFFFFFFFFFFFFFFC
FFFFFFFFFFFFFFFC
FFFFFFFFFFFFFFFC
FFFFFFFFFFFFFFFC
FFFFFFFFFFFFFFFC
FFFFFFFFFFFFFFFC
FFFFFFFFFFFFFFFC
FFFFFFFFFFFFFFFC
ENDCHAR
STARTCHAR 004E
ENCODING 78
SWIDTH 464 0
DWIDTH 39 0
BBX 43 98 0 -21
BITMAP
0003FFF00000
001FFFFF0000
007FFFFFC000
00FFFFFFE000
01FE000FF000
03F00001F800
07E00000FC00
0F8000003E00
1F0000001F00
3E0000000F80
3E0000000F80
7C00000007C0
7800000003C0
7800000003C0
F800000003C0
F000000001E0
F000000001E0
F000000001E0
F000000001E0
F000000001E0
F0000E0001E0
F0000E0001E0
F0000E0001E0
F0000E0001E0
F0000E0001E0
F0000E0001E0
F0000E0001E0
F0000E0001E0
F0000E0001E0
F0000E0001E0
F0000E0001E0
F0000E0001E0
F0000E0001E0
F0000E0001E0
F0000E0001E0
F0000E0001E0
F0000E0001E0
F0000E0001E0
F0000E0001E0
F0000E0001E0
F0000E0001E0
F0000E0001E0
F0000E0001E0
F0000E0001E0
F0000E0001E0
F0000E0001E0
F0000E0001E0
F0000E0001E0
F0000E0001E0
F0000E0001E0
F0000E0001E0
F0000E0001E0
F0000E0001E0
F0000E0001E0
F0000E0001E0
F0000E0001E0
F0000E0001E0
F0000E0001E0
F0000E0001E0
F0000E0001E0
F0000E0001E0
F0000E0001E0
F0000E0001E0
F0000E0001E0
F0000E0001E0
F0000E0001E0
F0000E0001E0
F0000E0001E0
F0000E0001E0
F0000E0001E0
F0000E0001E0
F0000E0001E0
F0000E0001E0
F0000E0001E0
F0000E0001E0
F0000E0001E0
F0000E0001E0
FFFFFFFFFFE0
FFFFFFFFFFE0
FFFFFFFFFFE0
FFFFFFFFFFE0
FFFFFFFFFFE0
FFFFFFFFFFE0
FFFFFFFFFFE0
FFFFFFFFFFE0
FFFFFFFFFFE0
FFFFFFFFFFE0
FFFFFFFFFFE0
FFFFFFFFFFE0
FFFFFFFFFFE0
FFFFFFFFFFE0
FFFFFFFFFFE0
FFFFFFFFFFE0
FFFFFFFFFFE0
FFFFFFFFFFE0
FFFFFFFFFFE0
FFFFFFFFFFE0
FFFFFFFFFFE0
ENDCHAR
STARTCHAR 004F
ENCODING 79
SWIDTH 464 0
DWIDTH 39 0
BBX 43 98 0 -21
BITMAP
0003FFF00000
001FFFFF0000
007FFFFFC000
00FFFFFFE000
01FE000FF000
03F00001F800
07E00000FC00
0F8000003E00
1F0000001F00
3E0000000F80
3E0000000F80
7C00000007C0
7800000003C0
7800000003C0
F800000003C0
F000000001E0
F000000001E0
F000000001E0
F000000001E0
F000000001E0
F000000001E0
F0000E0001E0
F0000E0001E0
F0000E0001E0
F0000E0001E0
F0000E0001E0
F0000E0001E0
F0000E0001E0
F0000E0001E0
F0000E0001E0
F0000E0001E0
F0000E0001E0
F0000E0001E0
F0000E0001E0
F0000E0001E0
F0000E0001E0
F0000E0001E0
F0000E0001E0
F0000E0001E0
F0000E0001E0
F0000E0001E0
F0000E0001E0
F0000E0001E0
F0000E0001E0
F0000E0001E0
F0000E0001E0
F0000E0001E0
F0000E0001E0
F0000E0001E0
F0000E0001E0
F0000E0001E0
F0000E0001E0
F0000E0001E0
F0000E0001E0
F0000E0001E0
F0000E0001E0
F0000E0001E0
F0000E0001E0
F0000E0001E0
F0000E0001E0
F0000E0001E0
F000000001E0
F000000001E0
F000000001E0
F000000001E0
F000000001E0
F800000003E0
F800000003E0
F800000003E0
FC00000007E0
FC0000000FE0
FE0000000FE0
FF0000001FE0
FF8000003FE0
FFE00000FFE0
FFF00001FFE0
FFFE000FFFE0
FFFFFFFFFFE0
FFFFFFFFFFE0
FFFFFFFFFFE0
FFFFFFFFFFE0
FFFFFFFFFFE0
FFFFFFFFFFE0
FFFFFFFFFFE0
7FFFFFFFFFC0
7FFFFFFFFFC0
7FFFFFFFFFC0
3FFFFFFFFF80
3FFFFFFFFF80
1FFFFFFFFF00
0FFFFFFFFE00
07FFFFFFFC00
03FFFFFFF800
01FFFFFFF000
00FFFFFFE000
007FFFFFC000
001FFFFF0000
0003FFF80000
ENDCHAR
STARTCHAR 0050
ENCODING 80
SWIDTH 464 0
DWIDTH 39 0
BBX 43 98 0 -21
BITMAP
FFFFFFF00000
FFFFFFFF0000
FFFFFFFFC000
FFFFFFFFE000
F000000FF000
F0000001F800
F0000000FC00
F00000003E00
F00000001F00
F00000000F80
F00000000F80
F000000007C0
F000000003C0
F000000003C0
F000000003C0
F000000001E0
F000000001E0
F000000001E0
F000000001E0
F000000001E0
F000000001E0
F0000E0001E0
F0000E0001E0
F0000E0001E0
F0000E0001E0
F0000E0001E0
F0000E0001E0
F0000E0001E0
F0000E0001E0
F0000E0001E0
F0000E0001E0
F0000E0001E0
F0000E0001E0
F0000E0001E0
F0000E0001E0
F0000E0001E0
F0000E0001E0
F000000001E0
F000000001E0
F000000001E0
F000000001E0
F000000001E0
F000000003E0
F000000003E0
F000000003E0
F000000007E0
F00000000FE0
F00000000FE0
F00000001FE0
F00000003FE0
F0000000FFE0
F0000001FFE0
F000000FFFE0
F0000FFFFFE0
F0000FFFFFE0
F0000FFFFFE0
F0000FFFFFE0
F0000FFFFFE0
F0000FFFFFE0
F0000FFFFFE0
F0000FFFFFC0
F0000FFFFFC0
F0000FFFFFC0
F0000FFFFF80
F0000FFFFF80
F0000FFFFF00
F0000FFFFE00
F0000FFFFC00
F0000FFFF800
F0000FFFF000
F0000FFFE000
F0000FFFC000
F0000FFF0000
F0000FF00000
F0000F000000
F0000F000000
F0000F000000
FFFFFF000000
FFFFFF000000
FFFFFF000000
FFFFFF000000
FFFFFF000000
FFFFFF000000
FFFFFF000000
FFFFFF000000
FFFFFF000000
FFFFFF000000
FFFFFF000000
FFFFFF000000
FFFFFF000000
FFFFFF000000
FFFFFF000000
FFFFFF000000
FFFFFF000000
FFFFFF000000
FFFFFF000000
FFFFFF000000
FFFFFF000000
ENDCHAR
STARTCHAR 0051
ENCODING 81
SWIDTH 464 0
DWIDTH 39 0
BBX 43 120 0 -43
BITMAP
0003FFF00000
001FFFFF0000
007FFFFFC000
00FFFFFFE000
01FE000FF000
03F00001F800
07E00000FC00
0F8000003E00
1F0000001F00
3E0000000F80
3E0000000F80
7C00000007C0
7800000003C0
7800000003C0
F800000003C0
F000000001E0
F000000001E0
F000000001E0
F000000001E0
F000000001E0
F000000001E0
F0000E0001E0
F0000E0001E0
F0000E0001E0
F0000E0001E0
F0000E0001E0
F0000E0001E0
F0000E0001E0
F0000E0001E0
F0000E0001E0
F0000E0001E0
F0000E0001E0
F0000E0001E0
F0000E0001E0
F0000E0001E0
F0000E0001E0
F0000E0001E0
F0000E0001E0
F0000E0001E0
F0000E0001E0
F0000E0001E0
F0000E0001E0
F0000E0001E0
F0000E0001E0
F0000E0001E0
F0000E0001E0
F0000E0001E0
F0000E0001E0
F0000E0001E0
F0000E0001E0
F0000E0001E0
F0000E0001E0
F0000E0001E0
F0000E0001E0
F0000E0001E0
F0000E0001E0
F0000E0001E0
F0000E0001E0
F0000E0001E0
F0000E0001E0
F0000E0001E0
F000000001E0
F000000001E0
F000000001E0
F000000001E0
F000000001E0
F800000003E0
F800000003E0
F800000003E0
FC00000007E0
FE00000007E0
FE0000000FE0
FF0000001FE0
FF8000003FE0
FFE00000FFE0
FFF0000001C0
FFFE000001C0
FFFE000001C0
FFFE00000180
FFFE000001E0
FFFE000001E0
FFFF000001E0
FFFF000001E0
FFFF800001E0
FFFF800001E0
FFFFC00001E0
FFFFE00001E0
FFFFF00001E0
FFFFF80001E0
FFFFFE0001E0
FFFFFFC001E0
FFFFFFFFFFE0
7FFFFFFFFFE0
7FFFFFFFFFE0
7FFFFFFFFFE0
3FFFFFFFFFE0
3FFFFFFFFFE0
1FFFFFFFFFE0
0FFFFFFFFFE0
0FFFFFFFFFE0
07FFFFFFFFE0
03FFFFFFFFE0
00FFFFFFFFE0
007FFFFFFFE0
001FFFFFFFE0
001FFFFFFFE0
001FFFFFFFE0
000FFFFFFFE0
000FFFFFFFE0
0007FFFFFFE0
0007FFFFFFE0
0003FFFFFFE0
0003FFFFFFE0
0001FFFFFFE0
0000FFFFFFE0
00007FFFFFE0
00001FFFFFE0
00000FFFFFE0
000003FFFFE0
0000007FFFE0
ENDCHAR
STARTCHAR 0052
ENCODING 82
SWIDTH 464 0
DWIDTH 39 0
BBX 43 98 0 -21
BITMAP
FFFFFFF00000
FFFFFFFF0000
FFFFFFFF8000
FFFFFFFFE000
F000000FF000
F0000001F800
F0000000FC00
F00000003E00
F00000001F00
F00000000F00
F00000000F80
F00000000780
F000000003C0
F000000003C0
F000000003C0
F000000001E0
F000000001E0
F000000001E0
F000000001E0
F000000001E0
F000000001E0
F0000E0001E0
F0000E0001E0
F0000E0001E0
F0000E0001E0
F0000E0001E0
F0000E0001E0
F0000E0001E0
F0000E0001E0
F0000E0001E0
F0000E0001E0
F0000E0001E0
F0000E0001E0
F0000E0001E0
F0000E0001E0
F0000E0001E0
F0000E0001E0
F000000001E0
F000000001E0
F000000001E0
F000000001E0
F000000001E0
F000000003C0
F000000003C0
F000000007C0
F00000000780
F00000000F80
F00000001F00
F00000001F00
F00000000F80
F00000000780
F000000007C0
F000000003C0
F000000003C0
F000000001E0
F000000001E0
F000000001E0
F000000001E0
F000000001E0
F0000E0001E0
F0000E0001E0
F0000E0001E0
F0000E0001E0
F0000E0001E0
F0000E0001E0
F0000E0001E0
F0000E0001E0
F0000E0001E0
F0000E0001E0
F0000E0001E0
F0000E0001E0
F0000E0001E0
F0000E0001E0
F0000E0001E0
F0000E0001E0
F0000E0001E0
F0000E0001E0
FFFFFFFFFFE0
FFFFFFFFFFE0
FFFFFFFFFFE0
FFFFFFFFFFE0
FFFFFFFFFFE0
FFFFFFFFFFE0
FFFFFFFFFFE0
FFFFFFFFFFE0
FFFFFFFFFFE0
FFFFFFFFFFE0
FFFFFFFFFFE0
FFFFFFFFFFE0
FFFFFFFFFFE0
FFFFFFFFFFE0
FFFFFFFFFFE0
FFFFFFFFFFE0
FFFFFFFFFFE0
FFFFFFFFFFE0
FFFFFFFFFFE0
FFFFFFFFFFE0
FFFFFFFFFFE0
ENDCHAR
STARTCHAR 0053
ENCODING 83
SWIDTH 464 0
DWIDTH 39 0
BBX 43 98 0 -21
BITMAP
0003FFF00000
001FFFFF0000
007FFFFF8000
00FFFFFFE000
01FE000FF000
07F00001F800
07E00000FC00
0F8000003E00
1F0000001F00
3E0000000F00
3C0000000F80
7C0000000780
7800000003C0
7800000003C0
F800000003C0
F000000001E0
F000000001E0
F000000001E0
F000000001E0
F000000001E0
F0000E0001E0
F0000E0001E0
F0000E0001E0
F0000E0001E0
F0000E0001E0
F0000E0001E0
F0000E0001E0
F0000E0001E0
F0000E0001E0
F0000E0001E0
F0000E0001E0
F0000E0001E0
F0000E0001E0
F0000E0001E0
F0000E0001E0
F0000E0001E0
F0000E0001E0
F0000FFFFFE0
F0000FFFFFE0
F0000FFFFFE0
F00007FFFFE0
F00001FF0000
F000007F8000
F000001FE000
F000000FF000
F8000003F800
78000000FC00
7C0000007E00
7C0000001F00
3E0000000F80
1F0000000F80
1F80000007C0
0FE0000003C0
07F0000003C0
03FC000003E0
00FF000001E0
007FC00001E0
FFFFF00001E0
FFFFFE0001E0
FFFFFE0001E0
FFFFFE0001E0
F000000001E0
F000000001E0
F000000001E0
F000000001E0
F000000001E0
F000000003E0
F000000003E0
F000000003E0
F000000007E0
F00000000FE0
F00000000FE0
F00000001FE0
F00000003FE0
F0000000FFE0
F0000001FFE0
F000000FFFE0
FFFFFFFFFFE0
FFFFFFFFFFE0
FFFFFFFFFFE0
FFFFFFFFFFE0
FFFFFFFFFFE0
FFFFFFFFFFE0
FFFFFFFFFFC0
FFFFFFFFFFC0
FFFFFFFFFFC0
FFFFFFFFFF80
FFFFFFFFFF80
FFFFFFFFFF00
FFFFFFFFFF00
FFFFFFFFFE00
FFFFFFFFFC00
FFFFFFFFF800
FFFFFFFFF000
FFFFFFFFE000
FFFFFFFFC000
FFFFFFFF0000
FFFFFFF00000
ENDCHAR
STARTCHAR 0054
ENCODING 84
SWIDTH 488 0
DWIDTH 41 0
BBX 45 98 0 -21
BITMAP
FFFFFFFFFFF8
FFFFFFFFFFF8
FFFFFFFFFFF8
FFFFFFFFFFF8
F00000000078
F00000000078
F00000000078
F00000000078
F00000000078
F00000000078
F00000000078
F00000000078
F00000000078
F00000000078
F00000000078
F00000000078
F00000000078
F00000000078
F00000000078
F00000000078
FFFC0001FFF8
FFFC0001FFF8
FFFC0001FFF8
FFFC0001FFF8
FFFC0001FFF8
FFFC0001FFF8
FFFC0001FFF8
FFFC0001FFF8
FFFC0001FFF8
FFFC0001FFF8
FFFC0001FFF8
FFFC0001FFF8
FFFC0001FFF8
FFFC0001FFF8
FFFC0001FFF8
FFFC0001FFF8
FFFC0001FFF8
FFFC0001FFF8
FFFC0001FFF8
FFFC0001FFF8
FFFC0001FFF8
003C0001E000
003C0001E000
003C0001E000
003C0001E000
003C0001E000
003C0001E000
003C0001E000
003C0001E000
003C0001E000
003C0001E000
003C0001E000
003C0001E000
003C0001E000
003C0001E000
003C0001E000
003C0001E000
003C0001E000
003C0001E000
003C0001E000
003C0001E000
003C0001E000
003C0001E000
003C0001E000
003C0001E000
003C0001E000
003C0001E000
003C0001E000
003C0001E000
003C0001E000
003C0001E000
003C0001E000
003C0001E000
003C0001E000
003C0001E000
003C0001E000
003C0001E000
003FFFFFE000
003FFFFFE000
003FFFFFE000
003FFFFFE000
003FFFFFE000
003FFFFFE000
003FFFFFE000
003FFFFFE000
003FFFFFE000
003FFFFFE000
003FFFFFE000
003FFFFFE000
003FFFFFE000
003FFFFFE000
003FFFFFE000
003FFFFFE000
003FFFFFE000
003FFFFFE000
003FFFFFE000
003FFFFFE000
003FFFFFE000
ENDCHAR
STARTCHAR 0055
ENCODING 85
SWIDTH 464 0
DWIDTH 39 0
BBX 43 98 0 -21
BITMAP
FFFFFFFFFFE0
FFFFFFFFFFE0
FFFFFFFFFFE0
FFFFFFFFFFE0
F0000E0001E0
F0000E0001E0
F0000E0001E0
F0000E0001E0
F0000E0001E0
F0000E0001E0
F0000E0001E0
F0000E0001E0
F0000E0001E0
F0000E0001E0
F0000E0001E0
F0000E0001E0
F0000E0001E0
F0000E0001E0
F0000E0001E0
F0000E0001E0
F0000E0001E0
F0000E0001E0
F0000E0001E0
F0000E0001E0
F0000E0001E0
F0000E0001E0
F0000E0001E0
F0000E0001E0
F0000E0001E0
F0000E0001E0
F0000E0001E0
F0000E0001E0
F0000E0001E0
F0000E0001E0
F0000E0001E0
F0000E0001E0
F0000E0001E0
F0000E0001E0
F0000E0001E0
F0000E0001E0
F0000E0001E0
F0000E0001E0
F0000E0001E0
F0000E0001E0
F0000E0001E0
F0000E0001E0
F0000E0001E0
F0000E0001E0
F0000E0001E0
F0000E0001E0
F0000E0001E0
F0000E0001E0
F0000E0001E0
F0000E0001E0
F0000E0001E0
F0000E0001E0
F0000E0001E0
F0000E0001E0
F0000E0001E0
F0000E0001E0
F0000E0001E0
F000000001E0
F000000001E0
F000000001E0
F000000001E0
F000000001E0
F800000003E0
F800000003E0
F800000003E0
FC00000007E0
FC0000000FE0
FE0000000FE0
FF0000001FE0
FF8000003FE0
FFE00000FFE0
FFF00001FFE0
FFFE000FFFE0
FFFFFFFFFFE0
FFFFFFFFFFE0
FFFFFFFFFFE0
FFFFFFFFFFE0
FFFFFFFFFFE0
FFFFFFFFFFE0
FFFFFFFFFFE0
7FFFFFFFFFC0
7FFFFFFFFFC0
7FFFFFFFFFC0
3FFFFFFFFF80
3FFFFFFFFF80
1FFFFFFFFF00
0FFFFFFFFE00
07FFFFFFFC00
03FFFFFFF800
01FFFFFFF000
00FFFFFFE000
007FFFFFC000
001FFFFF0000
0003FFF80000
ENDCHAR
STARTCHAR 0056
ENCODING 86
SWIDTH 488 0
DWIDTH 41 0
BBX 49 98 0 -21
BITMAP
FFFFFFFFFFFF80
FFFFFFFFFFFF80
FFFFFFFFFFFF80
7FFFFFFFFFFF80
780007F0000F00
780007F0000F00
780003E0000F00
780003E0000F00
7C0003E0000F00
3C0003E0001E00
3C0003E0001E00
3C0001E0001E00
3C0001C0001E00
3C0001C0001E00
3E0001C0001E00
1E0001C0003C00
1E0001C0003C00
1E0000C0003C00
1E000080003C00
1E000080003C00
0F000080007C00
0F000080007800
0F000080007800
0F000000007800
0F000000007800
0F000000007800
0780000000F800
0780000000F000
0780000000F000
0780000000F000
0780000000F000
0780000000F000
03C0000001E000
03C0000001E000
03C0000001E000
03C0000001E000
03C0000001E000
03C0000001E000
01E0000003C000
01E0000003C000
01E0000003C000
01E0000003C000
01E0000003C000
01E0000007C000
00F00000078000
00F00000078000
00F00000078000
00F00000078000
00F00000078000
00F000000F8000
007800000F0000
007800000F0000
007800000F0000
007800000F0000
007800000F0000
007C00001E0000
003C00001E0000
003C00001E0000
003C00001E0000
003C00001E0000
003C00001E0000
003E00003C0000
001E00003C0000
001E00003C0000
001E00003C0000
001E00003C0000
001E00007C0000
000F0000780000
000F0000780000
000F0000780000
000F0000780000
000F0000780000
000F0000F80000
00078000F00000
00078000F00000
00078000F00000
00078000F00000
0007FFFFF00000
0007FFFFE00000
0003FFFFE00000
0003FFFFE00000
0003FFFFE00000
0003FFFFE00000
0003FFFFE00000
0003FFFFC00000
0001FFFFC00000
0001FFFFC00000
0001FFFFC00000
0001FFFFC00000
0001FFFFC00000
0001FFFF800000
0000FFFF800000
0000FFFF800000
0000FFFF800000
0000FFFF800000
0000FFFF800000
0000FFFF000000
00007FFF000000
ENDCHAR
STARTCHAR 0057
ENCODING 87
SWIDTH 678 0
DWIDTH 57 0
BBX 62 98 0 -21
BITMAP
FFFFFFFFFFFFFFFC
FFFFFFFFFFFFFFFC
FFFFFFFFFFFFFFFC
FFFFFFFFFFFFFFFC
F0000E0001C0003C
F0000E0001C0003C
F0000E0001C0003C
F0000E0001C0003C
F0000E0001C0003C
F0000E0001C0003C
F0000E0001C0003C
F0000E0001C0003C
F0000E0001C0003C
F0000E0001C0003C
F0000E0001C0003C
F0000E0001C0003C
F0000E0001C0003C
F0000E0001C0003C
F0000E0001C0003C
F0000E0001C0003C
F0000E0001C0003C
F0000E0001C0003C
F0000E0001C0003C
F0000E0001C0003C
F0000E0001C0003C
F0000E0001C0003C
F0000E0001C0003C
F0000E0001C0003C
F0000E0001C0003C
F0000E0001C0003C
F0000E0001C0003C
F0000E0001C0003C
F0000E0001C0003C
F0000E0001C0003C
F0000E0001C0003C
F0000E0001C0003C
F0000E0001C0003C
F0000E0001C0003C
F0000E0001C0003C
F0000E0001C0003C
F0000E0001C0003C
F0000E0001C0003C
F0000E0001C0003C
F0000E0001C0003C
F0000E0001C0003C
F0000E0001C0003C
F0000E0001C0003C
F0000E0001C0003C
F0000E0001C0003C
F0000E0001C0003C
F0000E0001C0003C
F0000E0001C0003C
F0000E0001C0003C
F0000E0001C0003C
F0000E0001C0003C
F0000E0001C0003C
F0000E0001C0003C
F0000E0001C0003C
F0000E0001C0003C
F0000E0001C0003C
F0000E0001C0003C
F00000000000003C
F00000000000003C
F00000000000003C
F00000000000003C
F00000000000003C
F80000000000007C
F80000000000007C
F80000000000007C
FC000000000000FC
FE000000000001FC
FE000000000001FC
FF000000000003FC
FF800000000007FC
FFE0000000001FFC
FFF0000000003FFC
FFFE00078001FFFC
FFFFFFFFFFFFFFFC
FFFFFFFFFFFFFFFC
FFFFFFFFFFFFFFFC
FFFFFFFFFFFFFFFC
FFFFFFFFFFFFFFFC
FFFFFFFFFFFFFFFC
FFFFFFFFFFFFFFFC
7FFFFFFFFFFFFFF8
7FFFFFFFFFFFFFF8
7FFFFFFFFFFFFFF8
3FFFFFFFFFFFFFF0
3FFFFFFFFFFFFFF0
1FFFFFFFFFFFFFE0
0FFFFFFFFFFFFFC0
07FFFFFFFFFFFF80
03FFFFFFFFFFFF00
01FFFFFFFFFFFE00
00FFFFFFFFFFFC00
007FFFFFFFFFF800
001FFFFFFFFFE000
0003FFF87FFE0000
ENDCHAR
STARTCHAR 0058
ENCODING 88
SWIDTH 488 0
DWIDTH 41 0
BBX 55 98 -5 -21
BITMAP
3FFFFFFFFFFFF8
3FFFFFFFFFFFF8
3FFFFFFFFFFFF8
1FFFFFFFFFFFF0
1E00007C0000F0
1F00007C0001F0
0F00007C0001E0
0F0000380001E0
0F8000380003C0
078000380003C0
078000100003C0
07C00010000780
03C00010000780
03C00000000F80
03E00000000F00
01E00000000F00
01E00000001F00
01F00000001E00
00F00000001E00
00F00000003E00
00780000003C00
00780000003C00
00780000007C00
003C0000007800
003C0000007800
003C000000F800
001E000000F000
001E000000F000
001E000001F000
000F000001E000
000F000001E000
000F000003E000
0007800003C000
0007800003C000
0007C00007C000
0003C000078000
0003C000078000
0003E0000F0000
0001E0000F0000
0003E0000F8000
0003C000078000
0003C000078000
0007800003C000
0007800003C000
0007800003C000
000F000001E000
000F000001E000
001F000001E000
001E000000F000
001E000000F000
003E000000F000
003C0000007800
003C0000007800
007C0000007800
00780000003C00
00780000003C00
00F80000003C00
00F00000001E00
00F00000001E00
01F00000001F00
01E00000000F00
01E00000000F00
03E00000000F80
03C00000000780
03C00010000780
07C000300007C0
078000300003C0
078000380003C0
0F8000780003E0
0F0000780001E0
0F00007C0001E0
1F0000FC0001F0
1E0000FE0000F0
1E0000FE0000F0
3E0001FE0000F8
3C0001FF000078
3C0001FF000078
7FFFFFFFFFFFFC
7FFFFFFFFFFFFC
7FFFFFFFFFFFFC
FFFFFFFFFFFFFE
FFFFFFFFFFFFFE
FFFFFFFFFFFFFE
FFFFFFFFFFFFFE
FFFFFFFFFFFFFE
FFFFFFFFFFFFFE
FFFFFFFFFFFFFE
FFFFFFFFFFFFFE
FFFFFFFFFFFFFE
FFFFFFFFFFFFFE
FFFFFFFFFFFFFE
FFFFFFFFFFFFFE
FFFFFFFFFFFFFE
FFFFFFEFFFFFFE
FFFFFFEFFFFFFE
FFFFFFEFFFFFFE
FFFFFFC7FFFFFE
FFFFFFC7FFFFFE
ENDCHAR
STARTCHAR 0059
ENCODING 89
SWIDTH 535 0
DWIDTH 45 0
BBX 51 98 -1 -21
BITMAP
FFFFFFFFFFFFE0
FFFFFFFFFFFFE0
FFFFFFFFFFFFC0
7FFFFFFFFFFFC0
780003F00007C0
7C0001F0000780
3C0001F0000780
3C0001E0000F80
3E0000E0000F00
1E0000E0000F00
1E0000C0001F00
1F000040001E00
0F000040001E00
0F000000003C00
07800000003C00
07800000003C00
07800000007800
03C00000007800
03C00000007800
03C0000000F000
01E0000000F000
01E0000000F000
01F0000001E000
00F0000001E000
00F0000003E000
00F8000003C000
0078000003C000
0078000007C000
007C0000078000
003C0000078000
003C00000F8000
003E00000F0000
001E00000F0000
001E00001F0000
001F00001E0000
000F00001E0000
000F00003E0000
000F80003C0000
000780003C0000
000780007C0000
00078000780000
00078000780000
00078000780000
00078000780000
00078000780000
00078000780000
00078000780000
00078000780000
00078000780000
00078000780000
00078000780000
00078000780000
00078000780000
00078000780000
00078000780000
00078000780000
00078000780000
00078000780000
00078000780000
00078000780000
00078000780000
00078000780000
00078000780000
00078000780000
00078000780000
00078000780000
00078000780000
00078000780000
00078000780000
00078000780000
00078000780000
00078000780000
00078000780000
00078000780000
00078000780000
00078000780000
00078000780000
0007FFFFF80000
0007FFFFF80000
0007FFFFF80000
0007FFFFF80000
0007FFFFF80000
0007FFFFF80000
0007FFFFF80000
0007FFFFF80000
0007FFFFF80000
0007FFFFF80000
0007FFFFF80000
0007FFFFF80000
0007FFFFF80000
0007FFFFF80000
0007FFFFF80000
0007FFFFF80000
0007FFFFF80000
0007FFFFF80000
0007FFFFF80000
0007FFFFF80000
0007FFFFF80000
ENDCHAR
STARTCHAR 005A
ENCODING 90
SWIDTH 488 0
DWIDTH 41 0
BBX 53 98 -5 -21
BITMAP
07FFFFFFFFFFF8
07FFFFFFFFFFF0
07FFFFFFFFFFF0
07FFFFFFFFFFF0
078000000001E0
078000000001E0
078000000001E0
078000000003C0
078000000003C0
078000000003C0
07800000000780
07800000000780
07800000000780
07800000000F00
07800000000F00
07800000000F00
07800000001E00
07800000001E00
07800000001E00
07800000003C00
07FFFF00003C00
07FFFF00003C00
07FFFF00007800
07FFFE00007800
00001E00007800
00001E0000F000
00003C0000F000
00003C0000F000
00003C0001E000
0000780001E000
0000780001E000
0000780003C000
0000F00003C000
0000F00003C000
0000F000078000
0001E000078000
0001E000078000
0001E0000F0000
0003C0000F0000
0003C0000F0000
0003C0001E0000
000780001E0000
000780001E0000
000780003C0000
000F00003C0000
000F00003C0000
000F0000780000
001E0000780000
001E0000780000
001E0000F00000
003C0000F00000
003C0000F00000
003C0001E00000
00780001E00000
00780001E00000
00780003C00000
00F00003C00000
00F00003FFFFC0
00F00007FFFFC0
01E00007FFFFC0
01E00007FFFFC0
01E000000003C0
03C000000003C0
03C000000003C0
03C000000003C0
078000000003C0
078000000003C0
078000000003C0
0F0000000003C0
0F0000000003C0
0F0000000003C0
1E0000000003C0
1E0000000003C0
1E0000000003C0
3C0000000003C0
3C0000000003C0
3C0000000003C0
7FFFFFFFFFFFC0
7FFFFFFFFFFFC0
7FFFFFFFFFFFC0
FFFFFFFFFFFFC0
FFFFFFFFFFFFC0
FFFFFFFFFFFFC0
FFFFFFFFFFFFC0
FFFFFFFFFFFFC0
FFFFFFFFFFFFC0
FFFFFFFFFFFFC0
FFFFFFFFFFFFC0
FFFFFFFFFFFFC0
FFFFFFFFFFFFC0
FFFFFFFFFFFFC0
FFFFFFFFFFFFC0
FFFFFFFFFFFFC0
FFFFFFFFFFFFC0
FFFFFFFFFFFFC0
FFFFFFFFFFFFC0
FFFFFFFFFFFFC0
FFFFFFFFFFFFC0
ENDCHAR
STARTCHAR 005B
ENCODING 91
SWIDTH 380 0
DWIDTH 32 0
BBX 36 98 0 -21
BITMAP
FFFFFFFFF0
FFFFFFFFF0
FFFFFFFFF0
FFFFFFFFF0
F0000000F0
F0000000F0
F0000000F0
F0000000F0
F0000000F0
F0000000F0
F0000000F0
F0000000F0
F0000000F0
F0000000F0
F0000000F0
F0000000F0
F0000000F0
F0000000F0
F0000000F0
F0000000F0
F0000FFFF0
F0000FFFF0
F0000FFFF0
F0000FFFF0
F0000FFFF0
F0000FFFF0
F0000FFFF0
F0000FFFF0
F0000FFFF0
F0000FFFF0
F0000FFFF0
F0000FFFF0
F0000FFFF0
F0000FFFF0
F0000FFFF0
F0000FFFF0
F0000FFFF0
F0000FFFF0
F0000FFFF0
F0000FFFF0
F0000FFFF0
F0000F0000
F0000F0000
F0000F0000
F0000F0000
F0000F0000
F0000F0000
F0000F0000
F0000F0000
F0000F0000
F0000F0000
F0000F0000
F0000F0000
F0000F0000
F0000F0000
F0000F0000
F0000F0000
F0000FFFF0
F0000FFFF0
F0000FFFF0
F0000FFFF0
F0000000F0
F0000000F0
F0000000F0
F0000000F0
F0000000F0
F0000000F0
F0000000F0
F0000000F0
F0000000F0
F0000000F0
F0000000F0
F0000000F0
F0000000F0
F0000000F0
F0000000F0
F0000000F0
FFFFFFFFF0
FFFFFFFFF0
FFFFFFFFF0
FFFFFFFFF0
FFFFFFFFF0
FFFFFFFFF0
FFFFFFFFF0
FFFFFFFFF0
FFFFFFFFF0
FFFFFFFFF0
FFFFFFFFF0
FFFFFFFFF0
FFFFFFFFF0
FFFFFFFFF0
FFFFFFFFF0
FFFFFFFFF0
FFFFFFFFF0
FFFFFFFFF0
FFFFFFFFF0
FFFFFFFFF0
FFFFFFFFF0
ENDCHAR
STARTCHAR 005C
ENCODING 92
SWIDTH 488 0
DWIDTH 41 0
BBX 53 98 -3 -20
BITMAP
FFFFFFC0000000
FFFFFFC0000000
FFFFFFC0000000
7FFFFFE0000000
7C0003E0000000
7C0001E0000000
7C0001F0000000
3E0000F0000000
3E0000F0000000
3E0000F8000000
1F000078000000
1F000078000000
1F00007C000000
1F80003C000000
0F80003C000000
0F80003E000000
0FC0001E000000
07C0001E000000
07C0001F000000
07E0000F000000
07E0000F000000
03E0000F800000
03F00007800000
03F00007800000
03F00007C00000
01F80003C00000
01F80003C00000
01F80003E00000
00FC0001E00000
00FC0001E00000
00FE0001F00000
00FE0000F00000
007E0000F80000
007F0000F80000
007F0000780000
003F00007C0000
003F80007C0000
003F80003C0000
003F80003E0000
001FC0003E0000
001FC0001E0000
001FC0001F0000
000FE0001F0000
000FE0000F0000
000FE0000F8000
000FF0000F8000
0007F000078000
0007F00007C000
0007F80003C000
0003F80003C000
0003F80003E000
0003FC0001E000
0003FC0001E000
0001FC0001F000
0001FE0000F000
0001FE0000F000
0000FE0000F800
0000FF00007800
0000FF00007800
0000FF00007C00
00007F80003C00
00007F80003C00
00007F80003E00
00003FC0001E00
00003FC0001E00
00003FC0001F00
00003FE0000F00
00001FE0000F00
00001FE0000F80
00001FF0000780
00000FF0000780
00000FF80007C0
00000FF80003C0
00000FF80003C0
000007FC0003E0
000007FC0001E0
000007FC0001E0
000003FFFFFFF0
000003FFFFFFF0
000003FFFFFFF8
000003FFFFFFF8
000001FFFFFFF8
000001FFFFFFF8
000001FFFFFFF8
000000FFFFFFF8
000000FFFFFFF8
000000FFFFFFF8
000000FFFFFFF8
0000007FFFFFF8
0000007FFFFFF8
0000007FFFFFF8
0000007FFFFFF8
0000003FFFFFF8
0000003FFFFFF8
0000003FFFFFF8
0000001FFFFFF8
0000001FFFFFF8
0000001FFFFFF8
ENDCHAR
STARTCHAR 005D
ENCODING 93
SWIDTH 380 0
DWIDTH 32 0
BBX 36 98 0 -21
BITMAP
FFFFFFFFF0
FFFFFFFFF0
FFFFFFFFF0
FFFFFFFFF0
F0000000F0
F0000000F0
F0000000F0
F0000000F0
F0000000F0
F0000000F0
F0000000F0
F0000000F0
F0000000F0
F0000000F0
F0000000F0
F0000000F0
F0000000F0
F0000000F0
F0000000F0
F0000000F0
FFFF0000F0
FFFF0000F0
FFFF0000F0
FFFF0000F0
FFFF0000F0
FFFF0000F0
FFFF0000F0
FFFF0000F0
FFFF0000F0
FFFF0000F0
FFFF0000F0
FFFF0000F0
FFFF0000F0
FFFF0000F0
FFFF0000F0
FFFF0000F0
FFFF0000F0
FFFF0000F0
FFFF0000F0
FFFF0000F0
FFFF0000F0
000F0000F0
000F0000F0
000F0000F0
000F0000F0
000F0000F0
000F0000F0
000F0000F0
000F0000F0
000F0000F0
000F0000F0
000F0000F0
000F0000F0
000F0000F0
000F0000F0
000F0000F0
000F0000F0
FFFF0000F0
FFFF0000F0
FFFF0000F0
FFFF0000F0
F0000000F0
F0000000F0
F0000000F0
F0000000F0
F0000000F0
F0000000F0
F0000000F0
F0000000F0
F0000000F0
F0000000F0
F0000000F0
F0000000F0
F0000000F0
F0000000F0
F0000000F0
F0000000F0
FFFFFFFFF0
FFFFFFFFF0
FFFFFFFFF0
FFFFFFFFF0
FFFFFFFFF0
FFFFFFFFF0
FFFFFFFFF0
FFFFFFFFF0
FFFFFFFFF0
FFFFFFFFF0
FFFFFFFFF0
FFFFFFFFF0
FFFFFFFFF0
FFFFFFFFF0
FFFFFFFFF0
FFFFFFFFF0
FFFFFFFFF0
FFFFFFFFF0
FFFFFFFFF0
FFFFFFFFF0
FFFFFFFFF0
ENDCHAR
STARTCHAR 005E
ENCODING 94
SWIDTH 428 0
DWIDTH 36 0
BBX 42 49 0 25
BITMAP
0001FFE00000
0003FFF00000
0007FFF80000
000FFFFC0000
001F003E0000
003E001F0000
007C000F8000
00FC0007C000
01F80003E000
03F00001F000
07E00000F800
0FC000007C00
1F8000003E00
3F0000001F00
7E0000000F80
FE0000000FC0
FF0000001FC0
FF8000003FC0
FFC000007FC0
FFE00000FFC0
FFF00001FFC0
FFF80003FFC0
FFFC0007FFC0
FFFE0C0FFFC0
FFFF1E1FFFC0
FFFFBF3FFFC0
FFFFFFFFFFC0
FFFFFFFFFFC0
FFFFFFFFFFC0
FFFFFFFFFFC0
FFFFFFFFFFC0
FFFFFFFFFFC0
7FFFFFFFFF80
3FFFFFFFFF00
1FFFFFFFFE00
0FFFFFFFFC00
07FFFFFFF800
03FFFFFFF000
01FFFFFFE000
00FFFFFFC000
007FFFFF8000
003FFFFF0000
001FFFFE0000
000FFFFC0000
0007FFF80000
0003FFF00000
0001F3E00000
0000E1C00000
000040800000
ENDCHAR
STARTCHAR 005F
ENCODING 95
SWIDTH 488 0
DWIDTH 41 0
BBX 45 41 0 -21
BITMAP
FFFFFFFFFFF8
FFFFFFFFFFF8
FFFFFFFFFFF8
FFFFFFFFFFF8
F00000000078
F00000000078
F00000000078
F00000000078
F00000000078
F00000000078
F00000000078
F00000000078
F00000000078
F00000000078
F00000000078
F00000000078
F00000000078
F00000000078
F00000000078
F00000000078
FFFFFFFFFFF8
FFFFFFFFFFF8
FFFFFFFFFFF8
FFFFFFFFFFF8
FFFFFFFFFFF8
FFFFFFFFFFF8
FFFFFFFFFFF8
FFFFFFFFFFF8
FFFFFFFFFFF8
FFFFFFFFFFF8
FFFFFFFFFFF8
FFFFFFFFFFF8
FFFFFFFFFFF8
FFFFFFFFFFF8
FFFFFFFFFFF8
FFFFFFFFFFF8
FFFFFFFFFFF8
FFFFFFFFFFF8
FFFFFFFFFFF8
FFFFFFFFFFF8
FFFFFFFFFFF8
ENDCHAR
STARTCHAR 0060
ENCODING 96
SWIDTH 321 0
DWIDTH 27 0
BBX 44 31 -7 54
BITMAP
FFFFFFE00000
FFFFFFE00000
7FFFFFF00000
7FFFFFF00000
3E0000780000
3E00003C0000
1F00003C0000
0F00001E0000
0F80001E0000
07C0000F0000
07C0000F0000
03E000078000
03E000078000
01F00003C000
00F00001E000
00F80001E000
00780000F000
007C0000F000
003E00007800
003E00007800
001F00003C00
001F00003E00
000F80001E00
000780000F00
0007C0000F00
0003C0000780
0003E0000780
0001FFFFFFC0
0001FFFFFFC0
0000FFFFFFE0
0000FFFFFFF0
ENDCHAR
STARTCHAR 0061
ENCODING 97
SWIDTH 464 0
DWIDTH 39 0
BBX 43 98 0 -21
BITMAP
FFFFFFF00000
FFFFFFFF0000
FFFFFFFF8000
FFFFFFFFE000
F000000FF000
F0000001F800
F0000000FC00
F00000003E00
F00000001F00
F00000000F00
F00000000F80
F00000000780
F000000003C0
F000000003C0
F000000003C0
F000000001E0
F000000001E0
F000000001E0
F000000001E0
F000000001E0
FFFFFE0001E0
FFFFFE0001E0
FFFFFE0001E0
FFFE000001E0
07F0000001E0
0FE0000001E0
1F80000001E0
1F00000001E0
3E00000001E0
3C00000001E0
7C00000001E0
7800000001E0
F800000001E0
F800000001E0
F000000001E0
F000000001E0
F000000001E0
F000000001E0
F000000001E0
F0000E0001E0
F0000E0001E0
F0000E0001E0
F0000E0001E0
F0000E0001E0
F0000E0001E0
F0000E0001E0
F0000E0001E0
F0000E0001E0
F0000E0001E0
F0000E0001E0
F0000E0001E0
F0000E0001E0
F0000E0001E0
F0000E0001E0
F0000E0001E0
F0000E0001E0
F0000E0001E0
F0000E0001E0
F0000E0001E0
F0000E0001E0
F0000E0001E0
F000000001E0
F000000001E0
F000000001E0
F000000001E0
F000000001E0
F000000001E0
F800000001E0
F800000001E0
FC00000001E0
FC00000001E0
FE00000001E0
FF00000001E0
FF80000001E0
FFC0000001E0
FFF0000001E0
FFFE000001E0
FFFFFFFFFFE0
FFFFFFFFFFE0
FFFFFFFFFFE0
FFFFFFFFFFE0
FFFFFFFFFFE0
FFFFFFFFFFE0
FFFFFFFFFFE0
7FFFFFFFFFE0
7FFFFFFFFFE0
7FFFFFFFFFE0
3FFFFFFFFFE0
3FFFFFFFFFE0
1FFFFFFFFFE0
0FFFFFFFFFE0
07FFFFFFFFE0
07FFFFFFFFE0
01FFFFFFFFE0
00FFFFFFFFE0
007FFFFFFFE0
001FFFFFFFE0
0003FFFFFFE0
ENDCHAR
STARTCHAR 0062
ENCODING 98
SWIDTH 464 0
DWIDTH 39 0
BBX 43 98 0 -21
BITMAP
FFFFFFF00000
FFFFFFFE0000
FFFFFFFF8000
FFFFFFFFE000
F000000FF000
F0000003F800
F0000000FC00
F00000007E00
F00000003E00
F00000001F00
F00000000F80
F00000000780
F00000000780
F000000003C0
F000000003C0
F000000003C0
F000000003C0
F000000001C0
F000000001C0
F000000001E0
F000000001E0
F0000E0001E0
F0000E0001E0
F0000E0001E0
F0000E0001E0
F0000E0001E0
F0000E0001E0
F0000E0001E0
F0000E0001E0
F0000E0001E0
F0000E0001E0
F0000E0001E0
F000000001E0
F000000001E0
F000000001E0
F000000001E0
F000000001E0
F000000003C0
F000000003C0
F000000003C0
F000000003C0
F000000003C0
F000000001E0
F000000001E0
F000000001E0
F000000001E0
F000000001E0
F000000001E0
F0000E0001E0
F0000E0001E0
F0000E0001E0
F0000E0001E0
F0000E0001E0
F0000E0001E0
F0000E0001E0
F0000E0001E0
F0000E0001E0
F0000E0001E0
F0000E0001E0
F0000E0001E0
F0000E0001E0
F000000001E0
F000000001E0
F000000001E0
F000000001E0
F000000001E0
F000000003E0
F000000003E0
F000000003E0
F000000007E0
F00000000FE0
F00000000FE0
F00000001FE0
F00000003FE0
F0000000FFE0
F0000001FFE0
F000000FFFE0
FFFFFFFFFFE0
FFFFFFFFFFE0
FFFFFFFFFFE0
FFFFFFFFFFE0
FFFFFFFFFFE0
FFFFFFFFFFE0
FFFFFFFFFFC0
FFFFFFFFFFC0
FFFFFFFFFFC0
FFFFFFFFFFC0
FFFFFFFFFF80
FFFFFFFFFF00
FFFFFFFFFF00
FFFFFFFFFE00
FFFFFFFFFC00
FFFFFFFFF800
FFFFFFFFF000
FFFFFFFFE000
FFFFFFFFC000
FFFFFFFF0000
FFFFFFF00000
ENDCHAR
STARTCHAR 0063
ENCODING 99
SWIDTH 464 0
DWIDTH 39 0
BBX 43 98 0 -21
BITMAP
0003FFF00000
001FFFFF0000
007FFFFF8000
00FFFFFFE000
01FE000FF000
07F00001F800
07E00000FC00
0F8000003E00
1F0000001F00
3E0000000F00
3C0000000F80
7C0000000780
7800000003C0
7800000003C0
F800000003C0
F000000001E0
F000000001E0
F000000001E0
F000000001E0
F000000001E0
F0000E0001E0
F0000E0001E0
F0000E0001E0
F0000E0001E0
F0000E0001E0
F0000E0001E0
F0000E0001E0
F0000E0001E0
F0000E0001E0
F0000E0001E0
F0000E0001E0
F0000E0001E0
F0000E0001E0
F0000E0001E0
F0000E0001E0
F0000E0001E0
F0000E0001E0
F0000E0001E0
F0000E0001E0
F0000E0001E0
F0000E0001E0
F0000E0001E0
F0000FFFFFE0
F0000FFFFFE0
F0000FFFFFE0
F0000E0001E0
F0000E0001E0
F0000E0001E0
F0000E0001E0
F0000E0001E0
F0000E0001E0
F0000E0001E0
F0000E0001E0
F0000E0001E0
F0000E0001E0
F0000E0001E0
F0000E0001E0
F0000E0001E0
F0000E0001E0
F0000E0001E0
F0000E0001E0
F000000001E0
F000000001E0
F000000001E0
F000000001E0
F000000001E0
F000000003E0
F800000003E0
F800000003E0
FC00000007E0
FC0000000FE0
FE0000000FE0
FF0000001FE0
FF8000003FE0
FFC00000FFE0
FFF00001FFE0
FFFE000FFFE0
FFFFFFFFFFE0
FFFFFFFFFFE0
FFFFFFFFFFE0
FFFFFFFFFFE0
FFFFFFFFFFE0
FFFFFFFFFFE0
FFFFFFFFFFC0
7FFFFFFFFFC0
7FFFFFFFFFC0
7FFFFFFFFF80
3FFFFFFFFF80
3FFFFFFFFF00
1FFFFFFFFF00
0FFFFFFFFE00
0FFFFFFFFC00
07FFFFFFF800
03FFFFFFF000
00FFFFFFE000
007FFFFFC000
001FFFFF0000
0003FFF00000
ENDCHAR
STARTCHAR 0064
ENCODING 100
SWIDTH 464 0
DWIDTH 39 0
BBX 43 98 0 -21
BITMAP
FFFFFFF00000
FFFFFFFF0000
FFFFFFFF8000
FFFFFFFFE000
F000000FF000
F0000001F800
F0000000FC00
F00000003E00
F00000001F00
F00000000F00
F00000000F80
F00000000780
F000000003C0
F000000003C0
F000000003C0
F000000001E0
F000000001E0
F000000001E0
F000000001E0
F000000001E0
F000000001E0
F0000E0001E0
F0000E0001E0
F0000E0001E0
F0000E0001E0
F0000E0001E0
F0000E0001E0
F0000E0001E0
F0000E0001E0
F0000E0001E0
F0000E0001E0
F0000E0001E0
F0000E0001E0
F0000E0001E0
F0000E0001E0
F0000E0001E0
F0000E0001E0
F0000E0001E0
F0000E0001E0
F0000E0001E0
F0000E0001E0
F0000E0001E0
F0000E0001E0
F0000E0001E0
F0000E0001E0
F0000E0001E0
F0000E0001E0
F0000E0001E0
F0000E0001E0
F0000E0001E0
F0000E0001E0
F0000E0001E0
F0000E0001E0
F0000E0001E0
F0000E0001E0
F0000E0001E0
F0000E0001E0
F0000E0001E0
F0000E0001E0
F0000E0001E0
F0000E0001E0
F000000001E0
F000000001E0
F000000001E0
F000000001E0
F000000001E0
F000000003E0
F000000003E0
F000000003E0
F000000007E0
F00000000FE0
F00000000FE0
F00000001FE0
F00000003FE0
F0000000FFE0
F0000001FFE0
F000000FFFE0
FFFFFFFFFFE0
FFFFFFFFFFE0
FFFFFFFFFFE0
FFFFFFFFFFE0
FFFFFFFFFFE0
FFFFFFFFFFE0
FFFFFFFFFFC0
FFFFFFFFFFC0
FFFFFFFFFFC0
FFFFFFFFFF80
FFFFFFFFFF80
FFFFFFFFFF00
FFFFFFFFFF00
FFFFFFFFFE00
FFFFFFFFFC00
FFFFFFFFF800
FFFFFFFFF000
FFFFFFFFE000
FFFFFFFFC000
FFFFFFFF0000
FFFFFFF00000
ENDCHAR
STARTCHAR 0065
ENCODING 101
SWIDTH 464 0
DWIDTH 39 0
BBX 43 98 0 -21
BITMAP
0003FFF00000
001FFFFF0000
007FFFFF8000
00FFFFFFE000
01FE000FF000
07F00001F800
07E00000FC00
0F8000003E00
1F0000001F00
3E0000000F00
3C0000000F80
7C0000000780
7800000003C0
7800000003C0
F800000003C0
F000000001E0
F000000001E0
F000000001E0
F000000001E0
F000000001E0
F000000001E0
F0000E0001E0
F0000E0001E0
F0000E0001E0
F0000E0001E0
F0000E0001E0
F0000E0001E0
F0000E0001E0
F0000E0001E0
F0000E0001E0
F0000E0001E0
F0000E0001E0
F0000E0001E0
F0000E0001E0
F000000001E0
F000000001E0
F000000001E0
F000000001E0
F000000001E0
F000000001E0
F000000001E0
F000000001E0
F000000001E0
F000000001E0
F000000001E0
F000000001E0
F000000001E0
F000000001E0
F000000001E0
F000000001E0
F0000FFFFFE0
F0000FFFFFE0
F0000FFFFFE0
F0000E0001E0
F0000E0001E0
F0000E0001E0
F0000E0001E0
F0000E0001E0
F0000E0001E0
F0000E0001E0
F0000E0001E0
F000000001E0
F000000001E0
F000000001E0
F000000001E0
F000000001E0
F000000003E0
F800000003E0
F800000003E0
FC00000007E0
FC0000000FE0
FE0000000FE0
FF0000001FE0
FF8000003FE0
FFC00000FFE0
FFF00001FFE0
FFFE000FFFE0
FFFFFFFFFFE0
FFFFFFFFFFE0
FFFFFFFFFFE0
FFFFFFFFFFE0
FFFFFFFFFFE0
FFFFFFFFFFE0
FFFFFFFFFFC0
7FFFFFFFFFC0
7FFFFFFFFFC0
7FFFFFFFFF80
3FFFFFFFFF80
3FFFFFFFFF00
1FFFFFFFFF00
0FFFFFFFFE00
0FFFFFFFFC00
07FFFFFFF800
03FFFFFFF000
00FFFFFFE000
007FFFFFC000
001FFFFF0000
0003FFF00000
ENDCHAR
STARTCHAR 0066
ENCODING 102
SWIDTH 464 0
DWIDTH 39 0
BBX 43 98 0 -21
BITMAP
0003FFF00000
001FFFFE0000
007FFFFF8000
00FFFFFFE000
01FE000FF000
07F00003F800
07C00000FC00
0F8000003E00
1F0000001F00
3E0000000F00
3C0000000F80
7C0000000780
7800000007C0
7800000003C0
F800000003C0
F000000001E0
F000000001E0
F000000001E0
F000000001E0
F000000001E0
F0000E0001E0
F0000E0001E0
F0000E0001E0
F0000E0001E0
F0000E0001E0
F0000E0001E0
F0000E0001E0
F0000E0001E0
F0000E0001E0
F0000E0001E0
F0000E0001E0
F0000E0001E0
F0000E0001E0
F0000E0001E0
F0000E0001E0
F0000E0001E0
F0000E0001E0
F0000E0001E0
F0000E0001E0
F0000E0001E0
F0000E0001E0
F0000E0001E0
F0000FFFFFE0
F0000FFFFFE0
F0000FFFFFE0
F000000001E0
F000000001E0
F000000001E0
F000000001E0
F000000001E0
F000000001E0
F000000001E0
F000000001E0
F000000001E0
F000000001E0
F000000001E0
F000000001E0
F000000001E0
F000000001E0
F000000001E0
F000000001E0
F0000FFFFFE0
F0000FFFFFE0
F0000FFFFFE0
F0000FFFFFE0
F0000FFFFFE0
F0000FFFFFE0
F0000FFFFFE0
F0000FFFFFE0
F0000FFFFFE0
F0000FFFFFE0
F0000FFFFFE0
F0000FFFFFE0
F0000FFFFFE0
F0000FFFFFE0
F0000FFFFFE0
F0000FFFFFE0
FFFFFFFFFFE0
FFFFFFFFFFE0
FFFFFFFFFFE0
FFFFFFFFFFE0
FFFFFFFFFFE0
FFFFFF000000
FFFFFF000000
FFFFFF000000
FFFFFF000000
FFFFFF000000
FFFFFF000000
FFFFFF000000
FFFFFF000000
FFFFFF000000
FFFFFF000000
FFFFFF000000
FFFFFF000000
FFFFFF000000
FFFFFF000000
FFFFFF000000
FFFFFF000000
ENDCHAR
STARTCHAR 0067
ENCODING 103
SWIDTH 464 0
DWIDTH 39 0
BBX 43 98 0 -21
BITMAP
0003FFFFFFE0
001FFFFFFFE0
007FFFFFFFE0
00FFFFFFFFE0
01FE000001E0
07F0000001E0
07C0000001E0
0F80000001E0
1F00000001E0
3E00000001E0
3C00000001E0
7C00000001E0
7800000001E0
7800000001E0
F000000001E0
F000000001E0
F000000001E0
F000000001E0
F000000001E0
F000000001E0
F000000001E0
F0000E0001E0
F0000E0001E0
F0000E0001E0
F0000E0001E0
F0000E0001E0
F0000E0001E0
F0000E0001E0
F0000E0001E0
F0000E0001E0
F0000E0001E0
F0000E0001E0
F0000E0001E0
F0000E0001E0
F0000E0001E0
F0000E0001E0
F0000E0001E0
F0000E0001E0
F0000E0001E0
F0000E0001E0
F0000E0001E0
F0000E0001E0
F000000001E0
F000000001E0
F000000001E0
F000000001E0
F000000001E0
F000000001E0
F800000001E0
7800000001E0
7C00000001E0
3C00000001E0
3E00000001E0
1F00000001E0
1F80000001E0
0FC0000001E0
07F0000001E0
FFFE000001E0
FFFFFE0001E0
FFFFFE0001E0
FFFFFE0001E0
F000000001E0
F000000001E0
F000000001E0
F000000001E0
F000000001E0
F000000003E0
F000000003E0
F000000003E0
F000000007E0
F00000000FE0
F00000000FE0
F00000001FE0
F00000003FE0
F0000000FFE0
F0000001FFE0
F000000FFFE0
FFFFFFFFFFE0
FFFFFFFFFFE0
FFFFFFFFFFE0
FFFFFFFFFFE0
FFFFFFFFFFE0
FFFFFFFFFFE0
FFFFFFFFFFC0
FFFFFFFFFFC0
FFFFFFFFFFC0
FFFFFFFFFF80
FFFFFFFFFF80
FFFFFFFFFF00
FFFFFFFFFF00
FFFFFFFFFE00
FFFFFFFFFC00
FFFFFFFFF800
FFFFFFFFF000
FFFFFFFFE000
FFFFFFFFC000
FFFFFFFF0000
FFFFFFF00000
ENDCHAR
STARTCHAR 0068
ENCODING 104
SWIDTH 464 0
DWIDTH 39 0
BBX 43 98 0 -21
BITMAP
FFFFFFFFFFE0
FFFFFFFFFFE0
FFFFFFFFFFE0
FFFFFFFFFFE0
F0000E0001E0
F0000E0001E0
F0000E0001E0
F0000E0001E0
F0000E0001E0
F0000E0001E0
F0000E0001E0
F0000E0001E0
F0000E0001E0
F0000E0001E0
F0000E0001E0
F0000E0001E0
F0000E0001E0
F0000E0001E0
F0000E0001E0
F0000E0001E0
F0000E0001E0
F0000E0001E0
F0000E0001E0
F0000E0001E0
F0000E0001E0
F0000E0001E0
F0000E0001E0
F0000E0001E0
F0000E0001E0
F0000E0001E0
F000000001E0
F000000001E0
F000000001E0
F000000001E0
F000000001E0
F000000001E0
F000000001E0
F000000001E0
F000000001E0
F000000001E0
F000000001E0
F000000001E0
F000000001E0
F000000001E0
F000000001E0
F000000001E0
F0000E0001E0
F0000E0001E0
F0000E0001E0
F0000E0001E0
F0000E0001E0
F0000E0001E0
F0000E0001E0
F0000E0001E0
F0000E0001E0
F0000E0001E0
F0000E0001E0
F0000E0001E0
F0000E0001E0
F0000E0001E0
F0000E0001E0
F0000E0001E0
F0000E0001E0
F0000E0001E0
F0000E0001E0
F0000E0001E0
F0000E0001E0
F0000E0001E0
F0000E0001E0
F0000E0001E0
F0000E0001E0
F0000E0001E0
F0000E0001E0
F0000E0001E0
F0000E0001E0
F0000E0001E0
F0000E0001E0
FFFFFFFFFFE0
FFFFFFFFFFE0
FFFFFFFFFFE0
FFFFFFFFFFE0
FFFFFFFFFFE0
FFFFFFFFFFE0
FFFFFFFFFFE0
FFFFFFFFFFE0
FFFFFFFFFFE0
FFFFFFFFFFE0
FFFFFFFFFFE0
FFFFFFFFFFE0
FFFFFFFFFFE0
FFFFFFFFFFE0
FFFFFFFFFFE0
FFFFFFFFFFE0
FFFFFFFFFFE0
FFFFFFFFFFE0
FFFFFFFFFFE0
FFFFFFFFFFE0
FFFFFFFFFFE0
ENDCHAR
STARTCHAR 0069
ENCODING 105
SWIDTH 238 0
DWIDTH 20 0
BBX 24 98 0 -21
BITMAP
FFFFFF
FFFFFF
FFFFFF
FFFFFF
F0000F
F0000F
F0000F
F0000F
F0000F
F0000F
F0000F
F0000F
F0000F
F0000F
F0000F
F0000F
F0000F
F0000F
F0000F
F0000F
FFFFFF
FFFFFF
FFFFFF
F0000F
F0000F
F0000F
F0000F
F0000F
F0000F
F0000F
F0000F
F0000F
F0000F
F0000F
F0000F
F0000F
F0000F
F0000F
F0000F
F0000F
F0000F
F0000F
F0000F
F0000F
F0000F
F0000F
F0000F
F0000F
F0000F
F0000F
F0000F
F0000F
F0000F
F0000F
F0000F
F0000F
F0000F
F0000F
F0000F
F0000F
F0000F
F0000F
F0000F
F0000F
F0000F
F0000F
F0000F
F0000F
F0000F
F0000F
F0000F
F0000F
F0000F
F0000F
F0000F
F0000F
F0000F
FFFFFF
FFFFFF
FFFFFF
FFFFFF
FFFFFF
FFFFFF
FFFFFF
FFFFFF
FFFFFF
FFFFFF
FFFFFF
FFFFFF
FFFFFF
FFFFFF
FFFFFF
FFFFFF
FFFFFF
FFFFFF
FFFFFF
FFFFFF
FFFFFF
ENDCHAR
STARTCHAR 006A
ENCODING 106
SWIDTH 464 0
DWIDTH 39 0
BBX 43 98 0 -21
BITMAP
00001FFFFFE0
00001FFFFFE0
00001FFFFFE0
00001FFFFFE0
00001E0001E0
00001E0001E0
00001E0001E0
00001E0001E0
00001E0001E0
00001E0001E0
00001E0001E0
00001E0001E0
00001E0001E0
00001E0001E0
00001E0001E0
00001E0001E0
00001E0001E0
00001E0001E0
00001E0001E0
00001E0001E0
00001FFFFFE0
00001FFFFFE0
00001FFFFFE0
00001E0001E0
00001E0001E0
00001E0001E0
00001E0001E0
00001E0001E0
00001E0001E0
00001E0001E0
00001E0001E0
00001E0001E0
00001E0001E0
00001E0001E0
00001E0001E0
FFFFFE0001E0
FFFFFE0001E0
FFFFFE0001E0
FFFFFE0001E0
F0000E0001E0
F0000E0001E0
F0000E0001E0
F0000E0001E0
F0000E0001E0
F0000E0001E0
F0000E0001E0
F0000E0001E0
F0000E0001E0
F0000E0001E0
F0000E0001E0
F0000E0001E0
F0000E0001E0
F0000E0001E0
F0000E0001E0
F0000E0001E0
F0000E0001E0
F0000E0001E0
F0000E0001E0
F0000E0001E0
F0000E0001E0
F0000E0001E0
F000000001E0
F000000001E0
F000000001E0
F000000001E0
F000000001E0
F800000003E0
F800000003E0
F800000003E0
FC00000007E0
FE0000000FE0
FE0000000FE0
FF0000001FE0
FF8000003FE0
FFE00000FFE0
FFF00001FFE0
FFFE000FFFE0
FFFFFFFFFFE0
FFFFFFFFFFE0
FFFFFFFFFFE0
FFFFFFFFFFE0
FFFFFFFFFFE0
FFFFFFFFFFE0
FFFFFFFFFFC0
7FFFFFFFFFC0
7FFFFFFFFFC0
7FFFFFFFFFC0
3FFFFFFFFF80
3FFFFFFFFF80
1FFFFFFFFF00
0FFFFFFFFE00
07FFFFFFFC00
03FFFFFFF800
01FFFFFFF000
00FFFFFFE000
007FFFFFC000
001FFFFF0000
0003FFF80000
ENDCHAR
STARTCHAR 006B
ENCODING 107
SWIDTH 523 0
DWIDTH 44 0
BBX 55 98 0 -21
BITMAP
FFFFFFFFFFFFF0
FFFFFFFFFFFFE0
FFFFFFFFFFFFC0
FFFFFFFFFFFFC0
F0000F80000F80
F0000F80000F00
F0000F00001F00
F0000E00003E00
F0000E00003C00
F0000C00007C00
F000080000F800
F000080000F800
F000000001F000
F000000003E000
F000000003E000
F000000007C000
F0000000078000
F00000000F8000
F00000001F0000
F00000001E0000
F00000003E0000
F00000007C0000
F00000007C0000
F0000000F80000
F0000001F00000
F0000001F00000
F0000003E00000
F0000003C00000
F0000007C00000
F000000F800000
F000000F000000
F000001F000000
F000003E000000
F000003C000000
F000007C000000
F00000F8000000
F00000F8000000
F00001F0000000
F00001F0000000
F00000F0000000
F00000F8000000
F000007C000000
F000003C000000
F000003E000000
F000001F000000
F000000F000000
F000000F800000
F0000007C00000
F0000003C00000
F0000003E00000
F0000001F00000
F0000001F00000
F0000000F80000
F0000000780000
F00000007C0000
F00000003E0000
F00000001E0000
F00000001F0000
F00000000F8000
F0000000078000
F000000007C000
F000000003E000
F000000001E000
F000000001F000
F000080000F800
F0000800007800
F0000C00007C00
F0000E00003E00
F0000E00003E00
F0000F00001F00
F0000F80000F00
F0000F80000F80
F0000FC00007C0
F0000FE00003C0
F0000FE00003E0
F0000FF00001F0
F0000FF80000F0
FFFFFFFFFFFFF8
FFFFFFFFFFFFFC
FFFFFFFFFFFFFC
FFFFFFFFFFFFFE
FFFFFFFFFFFFFE
FFFFFFFFFFFFFE
FFFFFFFFFFFFFE
FFFFFFFFFFFFFE
FFFFFFFFFFFFFE
FFFFFFFFFFFFFE
FFFFFFFFFFFFFE
FFFFFFFFFFFFFE
FFFFFFFFFFFFFE
FFFFFFFFFFFFFE
FFFFFFFFFFFFFE
FFFFFFFFFFFFFE
FFFFFFFFFFFFFE
FFFFFFFFFFFFFE
FFFFFF7FFFFFFE
FFFFFF7FFFFFFE
FFFFFF3FFFFFFE
ENDCHAR
STARTCHAR 006C
ENCODING 108
SWIDTH 333 0
DWIDTH 28 0
BBX 32 98 0 -21
BITMAP
FFFFFF00
FFFFFF00
FFFFFF00
FFFFFF00
F0000F00
F0000F00
F0000F00
F0000F00
F0000F00
F0000F00
F0000F00
F0000F00
F0000F00
F0000F00
F0000F00
F0000F00
F0000F00
F0000F00
F0000F00
F0000F00
F0000F00
F0000F00
F0000F00
F0000F00
F0000F00
F0000F00
F0000F00
F0000F00
F0000F00
F0000F00
F0000F00
F0000F00
F0000F00
F0000F00
F0000F00
F0000F00
F0000F00
F0000F00
F0000F00
F0000F00
F0000F00
F0000F00
F0000F00
F0000F00
F0000F00
F0000F00
F0000F00
F0000F00
F0000F00
F0000F00
F0000F00
F0000F00
F0000F00
F0000F00
F0000F00
F0000F00
F0000F00
F0000FFF
F0000FFF
F0000FFF
F0000FFF
F000000F
F000000F
F000000F
F000000F
F000000F
F000000F
F000000F
F000000F
F000000F
F000000F
F000000F
F000000F
F000000F
F000000F
F000000F
F000000F
FFFFFFFF
FFFFFFFF
FFFFFFFF
FFFFFFFF
FFFFFFFF
FFFFFFFF
FFFFFFFF
FFFFFFFF
FFFFFFFF
FFFFFFFF
FFFFFFFF
FFFFFFFF
FFFFFFFF
FFFFFFFF
FFFFFFFF
FFFFFFFF
FFFFFFFF
FFFFFFFF
FFFFFFFF
FFFFFFFF
FFFFFFFF
ENDCHAR
STARTCHAR 006D
ENCODING 109
SWIDTH 678 0
DWIDTH 57 0
BBX 62 98 0 -21
BITMAP
0003FFF87FFE0000
001FFFFFFFFFC000
007FFFFFFFFFF000
00FFFFFFFFFFFC00
01FE00078001FE00
07F0000000003F00
07E0000000001F80
0F800000000007C0
1F000000000003E0
3E000000000001E0
3C000000000001F0
7C000000000000F0
7800000000000078
7800000000000078
F800000000000078
F00000000000003C
F00000000000003C
F00000000000003C
F00000000000003C
F00000000000003C
F0000E0001C0003C
F0000E0001C0003C
F0000E0001C0003C
F0000E0001C0003C
F0000E0001C0003C
F0000E0001C0003C
F0000E0001C0003C
F0000E0001C0003C
F0000E0001C0003C
F0000E0001C0003C
F0000E0001C0003C
F0000E0001C0003C
F0000E0001C0003C
F0000E0001C0003C
F0000E0001C0003C
F0000E0001C0003C
F0000E0001C0003C
F0000E0001C0003C
F0000E0001C0003C
F0000E0001C0003C
F0000E0001C0003C
F0000E0001C0003C
F0000E0001C0003C
F0000E0001C0003C
F0000E0001C0003C
F0000E0001C0003C
F0000E0001C0003C
F0000E0001C0003C
F0000E0001C0003C
F0000E0001C0003C
F0000E0001C0003C
F0000E0001C0003C
F0000E0001C0003C
F0000E0001C0003C
F0000E0001C0003C
F0000E0001C0003C
F0000E0001C0003C
F0000E0001C0003C
F0000E0001C0003C
F0000E0001C0003C
F0000E0001C0003C
F0000E0001C0003C
F0000E0001C0003C
F0000E0001C0003C
F0000E0001C0003C
F0000E0001C0003C
F0000E0001C0003C
F0000E0001C0003C
F0000E0001C0003C
F0000E0001C0003C
F0000E0001C0003C
F0000E0001C0003C
F0000E0001C0003C
F0000E0001C0003C
F0000E0001C0003C
F0000E0001C0003C
F0000E0001C0003C
FFFFFFFFFFFFFFFC
FFFFFFFFFFFFFFFC
FFFFFFFFFFFFFFFC
FFFFFFFFFFFFFFFC
FFFFFFFFFFFFFFFC
FFFFFFFFFFFFFFFC
FFFFFFFFFFFFFFFC
FFFFFFFFFFFFFFFC
FFFFFFFFFFFFFFFC
FFFFFFFFFFFFFFFC
FFFFFFFFFFFFFFFC
FFFFFFFFFFFFFFFC
FFFFFFFFFFFFFFFC
FFFFFFFFFFFFFFFC
FFFFFFFFFFFFFFFC
FFFFFFFFFFFFFFFC
FFFFFFFFFFFFFFFC
FFFFFFFFFFFFFFFC
FFFFFFFFFFFFFFFC
FFFFFFFFFFFFFFFC
FFFFFFFFFFFFFFFC
ENDCHAR
STARTCHAR 006E
ENCODING 110
SWIDTH 464 0
DWIDTH 39 0
BBX 43 98 0 -21
BITMAP
0003FFF00000
001FFFFF0000
007FFFFF8000
00FFFFFFE000
01FE000FF000
07F00001F800
07E00000FC00
0F8000003E00
1F0000001F00
3E0000000F00
3C0000000F80
7C0000000780
7800000003C0
7800000003C0
F800000003C0
F000000001E0
F000000001E0
F000000001E0
F000000001E0
F000000001E0
F0000E0001E0
F0000E0001E0
F0000E0001E0
F0000E0001E0
F0000E0001E0
F0000E0001E0
F0000E0001E0
F0000E0001E0
F0000E0001E0
F0000E0001E0
F0000E0001E0
F0000E0001E0
F0000E0001E0
F0000E0001E0
F0000E0001E0
F0000E0001E0
F0000E0001E0
F0000E0001E0
F0000E0001E0
F0000E0001E0
F0000E0001E0
F0000E0001E0
F0000E0001E0
F0000E0001E0
F0000E0001E0
F0000E0001E0
F0000E0001E0
F0000E0001E0
F0000E0001E0
F0000E0001E0
F0000E0001E0
F0000E0001E0
F0000E0001E0
F0000E0001E0
F0000E0001E0
F0000E0001E0
F0000E0001E0
F0000E0001E0
F0000E0001E0
F0000E0001E0
F0000E0001E0
F0000E0001E0
F0000E0001E0
F0000E0001E0
F0000E0001E0
F0000E0001E0
F0000E0001E0
F0000E0001E0
F0000E0001E0
F0000E0001E0
F0000E0001E0
F0000E0001E0
F0000E0001E0
F0000E0001E0
F0000E0001E0
F0000E0001E0
F0000E0001E0
FFFFFFFFFFE0
FFFFFFFFFFE0
FFFFFFFFFFE0
FFFFFFFFFFE0
FFFFFFFFFFE0
FFFFFFFFFFE0
FFFFFFFFFFE0
FFFFFFFFFFE0
FFFFFFFFFFE0
FFFFFFFFFFE0
FFFFFFFFFFE0
FFFFFFFFFFE0
FFFFFFFFFFE0
FFFFFFFFFFE0
FFFFFFFFFFE0
FFFFFFFFFFE0
FFFFFFFFFFE0
FFFFFFFFFFE0
FFFFFFFFFFE0
FFFFFFFFFFE0
FFFFFFFFFFE0
ENDCHAR
STARTCHAR 006F
ENCODING 111
SWIDTH 464 0
DWIDTH 39 0
BBX 43 98 0 -21
BITMAP
0003FFF00000
001FFFFF0000
007FFFFF8000
00FFFFFFE000
01FE000FF000
07F00001F800
07E00000FC00
0F8000003E00
1F0000001F00
3E0000000F00
3C0000000F80
7C0000000780
7800000003C0
7800000003C0
F800000003C0
F000000001E0
F000000001E0
F000000001E0
F000000001E0
F000000001E0
F000000001E0
F0000E0001E0
F0000E0001E0
F0000E0001E0
F0000E0001E0
F0000E0001E0
F0000E0001E0
F0000E0001E0
F0000E0001E0
F0000E0001E0
F0000E0001E0
F0000E0001E0
F0000E0001E0
F0000E0001E0
F0000E0001E0
F0000E0001E0
F0000E0001E0
F0000E0001E0
F0000E0001E0
F0000E0001E0
F0000E0001E0
F0000E0001E0
F0000E0001E0
F0000E0001E0
F0000E0001E0
F0000E0001E0
F0000E0001E0
F0000E0001E0
F0000E0001E0
F0000E0001E0
F0000E0001E0
F0000E0001E0
F0000E0001E0
F0000E0001E0
F0000E0001E0
F0000E0001E0
F0000E0001E0
F0000E0001E0
F0000E0001E0
F0000E0001E0
F0000E0001E0
F000000001E0
F000000001E0
F000000001E0
F000000001E0
F000000001E0
F000000003E0
F800000003E0
F800000003E0
FC00000007E0
FC0000000FE0
FE0000000FE0
FF0000001FE0
FF8000003FE0
FFC00000FFE0
FFF00001FFE0
FFFE000FFFE0
FFFFFFFFFFE0
FFFFFFFFFFE0
FFFFFFFFFFE0
FFFFFFFFFFE0
FFFFFFFFFFE0
FFFFFFFFFFE0
FFFFFFFFFFC0
7FFFFFFFFFC0
7FFFFFFFFFC0
7FFFFFFFFF80
3FFFFFFFFF80
3FFFFFFFFF00
1FFFFFFFFF00
0FFFFFFFFE00
0FFFFFFFFC00
07FFFFFFF800
03FFFFFFF000
00FFFFFFE000
007FFFFFC000
001FFFFF0000
0003FFF00000
ENDCHAR
STARTCHAR 0070
ENCODING 112
SWIDTH 464 0
DWIDTH 39 0
BBX 43 98 0 -21
BITMAP
FFFFFFF00000
FFFFFFFF0000
FFFFFFFF8000
FFFFFFFFE000
F000000FF000
F0000001F800
F0000000FC00
F00000003E00
F00000001F00
F00000000F00
F00000000F80
F00000000780
F000000003C0
F000000003C0
F000000003C0
F000000001E0
F000000001E0
F000000001E0
F000000001E0
F000000001E0
F000000001E0
F0000E0001E0
F0000E0001E0
F0000E0001E0
F0000E0001E0
F0000E0001E0
F0000E0001E0
F0000E0001E0
F0000E0001E0
F0000E0001E0
F0000E0001E0
F0000E0001E0
F0000E0001E0
F0000E0001E0
F0000E0001E0
F0000E0001E0
F0000E0001E0
F000000001E0
F000000001E0
F000000001E0
F000000001E0
F000000001E0
F000000003E0
F000000003E0
F000000003E0
F000000007E0
F00000000FE0
F00000000FE0
F00000001FE0
F00000003FE0
F0000000FFE0
F0000001FFE0
F000000FFFE0
F0000FFFFFE0
F0000FFFFFE0
F0000FFFFFE0
F0000FFFFFE0
F0000FFFFFE0
F0000FFFFFE0
F0000FFFFFC0
F0000FFFFFC0
F0000FFFFFC0
F0000FFFFF80
F0000FFFFF80
F0000FFFFF00
F0000FFFFF00
F0000FFFFE00
F0000FFFFC00
F0000FFFF800
F0000FFFF000
F0000FFFE000
F0000FFF8000
F0000FFE0000
F0000FF00000
F0000F000000
F0000F000000
F0000F000000
FFFFFF000000
FFFFFF000000
FFFFFF000000
FFFFFF000000
FFFFFF000000
FFFFFF000000
FFFFFF000000
FFFFFF000000
FFFFFF000000
FFFFFF000000
FFFFFF000000
FFFFFF000000
FFFFFF000000
FFFFFF000000
FFFFFF000000
FFFFFF000000
FFFFFF000000
FFFFFF000000
FFFFFF000000
FFFFFF000000
FFFFFF000000
ENDCHAR
STARTCHAR 0071
ENCODING 113
SWIDTH 464 0
DWIDTH 39 0
BBX 43 120 0 -43
BITMAP
0003FFF00000
001FFFFF0000
007FFFFF8000
00FFFFFFE000
01FE000FF000
07F00001F800
07E00000FC00
0F8000003E00
1F0000001F00
3E0000000F00
3C0000000F80
7C0000000780
7800000003C0
7800000003C0
F800000003C0
F000000001E0
F000000001E0
F000000001E0
F000000001E0
F000000001E0
F000000001E0
F0000E0001E0
F0000E0001E0
F0000E0001E0
F0000E0001E0
F0000E0001E0
F0000E0001E0
F0000E0001E0
F0000E0001E0
F0000E0001E0
F0000E0001E0
F0000E0001E0
F0000E0001E0
F0000E0001E0
F0000E0001E0
F0000E0001E0
F0000E0001E0
F0000E0001E0
F0000E0001E0
F0000E0001E0
F0000E0001E0
F0000E0001E0
F0000E0001E0
F0000E0001E0
F0000E0001E0
F0000E0001E0
F0000E0001E0
F0000E0001E0
F0000E0001E0
F0000E0001E0
F0000E0001E0
F0000E0001E0
F0000E0001E0
F0000E0001E0
F0000E0001E0
F0000E0001E0
F0000E0001E0
F0000E0001E0
F0000E0001E0
F0000E0001E0
F0000E0001E0
F000000001E0
F000000001E0
F000000001E0
F000000001E0
F000000001E0
F000000003E0
F800000003E0
F800000003E0
FC00000007E0
FC00000007E0
FE0000000FE0
FF0000001FE0
FF8000003FE0
FFC00000FFE0
FFF0000001C0
FFFE000001C0
FFFE000001C0
FFFE00000180
FFFE000001E0
FFFE000001E0
FFFF000001E0
FFFF000001E0
FFFF800001E0
FFFF800001E0
FFFFC00001E0
FFFFE00001E0
FFFFF00001E0
FFFFF80001E0
FFFFFE0001E0
FFFFFFC001E0
FFFFFFFFFFE0
7FFFFFFFFFE0
7FFFFFFFFFE0
7FFFFFFFFFE0
3FFFFFFFFFE0
3FFFFFFFFFE0
1FFFFFFFFFE0
0FFFFFFFFFE0
0FFFFFFFFFE0
07FFFFFFFFE0
03FFFFFFFFE0
00FFFFFFFFE0
007FFFFFFFE0
001FFFFFFFE0
001FFFFFFFE0
001FFFFFFFE0
000FFFFFFFE0
000FFFFFFFE0
000FFFFFFFE0
0007FFFFFFE0
0003FFFFFFE0
0003FFFFFFE0
0001FFFFFFE0
0000FFFFFFE0
00007FFFFFE0
00003FFFFFE0
00000FFFFFE0
000003FFFFE0
0000007FFFE0
ENDCHAR
STARTCHAR 0072
ENCODING 114
SWIDTH 333 0
DWIDTH 28 0
BBX 32 98 0 -21
BITMAP
0003FFFF
001FFFFF
007FFFFF
00FFFFFF
01FE000F
07F0000F
07C0000F
0F80000F
1F00000F
3E00000F
3C00000F
7C00000F
7800000F
7800000F
F800000F
F000000F
F000000F
F000000F
F000000F
F000000F
F0000FFF
F0000FFF
F0000FFF
F0000FFF
F0000FFF
F0000FFF
F0000FFF
F0000FFF
F0000FFF
F0000FFF
F0000FFF
F0000FFF
F0000FFF
F0000FFF
F0000FFF
F0000FFF
F0000FFF
F0000FFF
F0000FFF
F0000FFF
F0000FFF
F0000F00
F0000F00
F0000F00
F0000F00
F0000F00
F0000F00
F0000F00
F0000F00
F0000F00
F0000F00
F0000F00
F0000F00
F0000F00
F0000F00
F0000F00
F0000F00
F0000F00
F0000F00
F0000F00
F0000F00
F0000F00
F0000F00
F0000F00
F0000F00
F0000F00
F0000F00
F0000F00
F0000F00
F0000F00
F0000F00
F0000F00
F0000F00
F0000F00
F0000F00
F0000F00
F0000F00
FFFFFF00
FFFFFF00
FFFFFF00
FFFFFF00
FFFFFF00
FFFFFF00
FFFFFF00
FFFFFF00
FFFFFF00
FFFFFF00
FFFFFF00
FFFFFF00
FFFFFF00
FFFFFF00
FFFFFF00
FFFFFF00
FFFFFF00
FFFFFF00
FFFFFF00
FFFFFF00
FFFFFF00
ENDCHAR
STARTCHAR 0073
ENCODING 115
SWIDTH 595 0
DWIDTH 50 0
BBX 54 98 0 -21
BITMAP
000000001FFFFC
00000001FFFFFC
00000007FFFFFC
0000001FFFFFFC
0000003FF0003C
000000FF00003C
000001FC00003C
000003F800003C
000007E000003C
00000FC000003C
00000F8000003C
00001F0000003C
00003E0000003C
00003C0000003C
00007C0000003C
0000780000003C
0000F80000003C
0000F00000003C
0000F00000003C
0000F00000003C
0001E00003FFFC
0001E00007FFFC
0001E0000FFFFC
0001E0001FFFFC
0001E0001FFFFC
0001E0001FFFFC
0001E0001FFFFC
0001E0001FFFFC
0001E0001FFFFC
0001E0001FFFFC
0001E0001FFFFC
0001E0001FFFFC
0001E0001FFFFC
0001E0001FFFFC
0001E0001FFFFC
0001E0001FFFFC
0001E0001FFFFC
0001E0001FFFFC
0001E0001FFFFC
0001E0001FFFFC
0001E0001FFFFC
0001E0001E0000
0001E0001E0000
0001E0001E0000
0001E0001E0000
0001E0001E0000
0001E0001E0000
0001E0001E0000
0001E0001E0000
0001E0001E0000
0001E0001E0000
0001E0001E0000
0001E0001E0000
0001E0001E0000
0001E0001E0000
0001E0001E0000
0001E0001E0000
FFFFE0001E0000
FFFFC0001E0000
FFFF80001E0000
FFFF00003E0000
F00000003E0000
F00000003E0000
F00000007E0000
F00000007E0000
F00000007E0000
F0000000FE0000
F0000001FE0000
F0000001FE0000
F0000003FE0000
F0000007FE0000
F000000FFE0000
F000001FFE0000
F000007FFE0000
F00000FFFE0000
F00003FFFE0000
F0003FFFFE0000
FFFFFFFFFC0000
FFFFFFFFFC0000
FFFFFFFFFC0000
FFFFFFFFFC0000
FFFFFFFFF80000
FFFFFFFFF80000
FFFFFFFFF80000
FFFFFFFFF00000
FFFFFFFFE00000
FFFFFFFFE00000
FFFFFFFFC00000
FFFFFFFF800000
FFFFFFFF800000
FFFFFFFF000000
FFFFFFFE000000
FFFFFFF8000000
FFFFFFF0000000
FFFFFFE0000000
FFFFFF80000000
FFFFFC00000000
FFFFE000000000
ENDCHAR
STARTCHAR 0074
ENCODING 116
SWIDTH 464 0
DWIDTH 39 0
BBX 43 98 0 -21
BITMAP
FFFFFF000000
FFFFFF000000
FFFFFF000000
FFFFFF000000
F0000F000000
F0000F000000
F0000F000000
F0000F000000
F0000F000000
F0000FFFFFE0
F0000FFFFFE0
F0000FFFFFE0
F0000FFFFFE0
F000000001E0
F000000001E0
F000000001E0
F000000001E0
F000000001E0
F000000001E0
F000000001E0
F000000001E0
F000000001E0
F000000001E0
F000000001E0
F000000001E0
F000000001E0
F000000001E0
F000000001E0
F000000001E0
F0000FFFFFE0
F0000FFFFFE0
F0000FFFFFE0
F0000E0001E0
F0000E0001E0
F0000E0001E0
F0000E0001E0
F0000E0001E0
F0000E0001E0
F0000E0001E0
F0000E0001E0
F0000E0001E0
F0000E0001E0
F0000E0001E0
F0000E0001E0
F0000E0001E0
F0000E0001E0
F0000E0001E0
F0000E0001E0
F0000E0001E0
F0000E0001E0
F0000E0001E0
F0000E0001E0
F0000E0001E0
F0000E0001E0
F0000E0001E0
F0000E0001E0
F0000E0001E0
F0000E0001E0
F0000E0001E0
F0000E0001E0
F0000E0001E0
F000000001E0
F000000001E0
F000000001E0
F000000001E0
F000000001E0
F000000003E0
F800000003E0
F800000003E0
FC00000007E0
FC0000000FE0
FE0000000FE0
FF0000001FE0
FF8000003FE0
FFC00000FFE0
FFF00001FFE0
FFFE000FFFE0
FFFFFFFFFFE0
FFFFFFFFFFE0
FFFFFFFFFFE0
FFFFFFFFFFE0
FFFFFFFFFFE0
FFFFFFFFFFE0
FFFFFFFFFFC0
7FFFFFFFFFC0
7FFFFFFFFFC0
7FFFFFFFFF80
3FFFFFFFFF80
3FFFFFFFFF00
1FFFFFFFFF00
0FFFFFFFFE00
0FFFFFFFFC00
07FFFFFFF800
03FFFFFFF000
00FFFFFFE000
007FFFFF8000
001FFFFE0000
0003FFF00000
ENDCHAR
STARTCHAR 0075
ENCODING 117
SWIDTH 464 0
DWIDTH 39 0
BBX 43 98 0 -21
BITMAP
FFFFFFFFFFE0
FFFFFFFFFFE0
FFFFFFFFFFE0
FFFFFFFFFFE0
F0000E0001E0
F0000E0001E0
F0000E0001E0
F0000E0001E0
F0000E0001E0
F0000E0001E0
F0000E0001E0
F0000E0001E0
F0000E0001E0
F0000E0001E0
F0000E0001E0
F0000E0001E0
F0000E0001E0
F0000E0001E0
F0000E0001E0
F0000E0001E0
F0000E0001E0
F0000E0001E0
F0000E0001E0
F0000E0001E0
F0000E0001E0
F0000E0001E0
F0000E0001E0
F0000E0001E0
F0000E0001E0
F0000E0001E0
F0000E0001E0
F0000E0001E0
F0000E0001E0
F0000E0001E0
F0000E0001E0
F0000E0001E0
F0000E0001E0
F0000E0001E0
F0000E0001E0
F0000E0001E0
F0000E0001E0
F0000E0001E0
F0000E0001E0
F0000E0001E0
F0000E0001E0
F0000E0001E0
F0000E0001E0
F0000E0001E0
F0000E0001E0
F0000E0001E0
F0000E0001E0
F0000E0001E0
F0000E0001E0
F0000E0001E0
F0000E0001E0
F0000E0001E0
F0000E0001E0
F0000E0001E0
F0000E0001E0
F0000E0001E0
F0000E0001E0
F000000001E0
F000000001E0
F000000001E0
F000000001E0
F000000001E0
F000000003E0
F800000003E0
F800000003E0
FC00000007E0
FC0000000FE0
FE0000000FE0
FF0000001FE0
FF8000003FE0
FFC00000FFE0
FFF00001FFE0
FFFE000FFFE0
FFFFFFFFFFE0
FFFFFFFFFFE0
FFFFFFFFFFE0
FFFFFFFFFFE0
FFFFFFFFFFE0
FFFFFFFFFFE0
FFFFFFFFFFC0
7FFFFFFFFFC0
7FFFFFFFFFC0
7FFFFFFFFF80
3FFFFFFFFF80
3FFFFFFFFF00
1FFFFFFFFF00
0FFFFFFFFE00
0FFFFFFFFC00
07FFFFFFF800
03FFFFFFF000
00FFFFFFE000
007FFFFFC000
001FFFFF0000
0003FFF00000
ENDCHAR
STARTCHAR 0076
ENCODING 118
SWIDTH 523 0
DWIDTH 44 0
BBX 49 98 0 -21
BITMAP
FFFFFFFFFFFF80
FFFFFFFFFFFF80
FFFFFFFFFFFF80
7FFFFFFFFFFF00
780007F0000F00
780007F0000F00
780003E0000F00
780003E0000F00
780003E0001F00
3C0003E0001E00
3C0003E0001E00
3C0003C0001E00
3C0001C0001E00
3C0001C0001E00
3C0001C0003E00
1E0001C0003C00
1E0001C0003C00
1E000180003C00
1E000080003C00
1E000080003C00
1E000080007C00
0F000080007800
0F000080007800
0F000000007800
0F000000007800
0F000000007800
0F00000000F000
0780000000F000
0780000000F000
0780000000F000
0780000000F000
0780000001F000
07C0000001E000
03C0000001E000
03C0000001E000
03C0000001E000
03C0000001E000
03C0000003E000
03E0000003C000
01E0000003C000
01E0000003C000
01E0000003C000
01E0000003C000
01E00000078000
00F00000078000
00F00000078000
00F00000078000
00F00000078000
00F00000078000
00F000000F0000
007800000F0000
007800000F0000
007800000F0000
007800000F0000
007800001F0000
007800001E0000
003C00001E0000
003C00001E0000
003C00001E0000
003C00001E0000
003C00003E0000
003C00003C0000
001E00003C0000
001E00003C0000
001E00003C0000
001E00003C0000
001E0000780000
001E0000780000
000F0000780000
000F0000780000
000F0000780000
000F0000780000
000F0000F00000
000F8000F00000
00078000F00000
00078000F00000
00078000F00000
0007FFFFF00000
0007FFFFE00000
0007FFFFE00000
0003FFFFE00000
0003FFFFE00000
0003FFFFE00000
0003FFFFE00000
0003FFFFC00000
0001FFFFC00000
0001FFFFC00000
0001FFFFC00000
0001FFFFC00000
0001FFFF800000
0001FFFF800000
0000FFFF800000
0000FFFF800000
0000FFFF800000
0000FFFF800000
0000FFFF000000
0000FFFF000000
00007FFF000000
ENDCHAR
STARTCHAR 0077
ENCODING 119
SWIDTH 678 0
DWIDTH 57 0
BBX 62 98 0 -21
BITMAP
FFFFFFFFFFFFFFFC
FFFFFFFFFFFFFFFC
FFFFFFFFFFFFFFFC
FFFFFFFFFFFFFFFC
F0000E0001C0003C
F0000E0001C0003C
F0000E0001C0003C
F0000E0001C0003C
F0000E0001C0003C
F0000E0001C0003C
F0000E0001C0003C
F0000E0001C0003C
F0000E0001C0003C
F0000E0001C0003C
F0000E0001C0003C
F0000E0001C0003C
F0000E0001C0003C
F0000E0001C0003C
F0000E0001C0003C
F0000E0001C0003C
F0000E0001C0003C
F0000E0001C0003C
F0000E0001C0003C
F0000E0001C0003C
F0000E0001C0003C
F0000E0001C0003C
F0000E0001C0003C
F0000E0001C0003C
F0000E0001C0003C
F0000E0001C0003C
F0000E0001C0003C
F0000E0001C0003C
F0000E0001C0003C
F0000E0001C0003C
F0000E0001C0003C
F0000E0001C0003C
F0000E0001C0003C
F0000E0001C0003C
F0000E0001C0003C
F0000E0001C0003C
F0000E0001C0003C
F0000E0001C0003C
F0000E0001C0003C
F0000E0001C0003C
F0000E0001C0003C
F0000E0001C0003C
F0000E0001C0003C
F0000E0001C0003C
F0000E0001C0003C
F0000E0001C0003C
F0000E0001C0003C
F0000E0001C0003C
F0000E0001C0003C
F0000E0001C0003C
F0000E0001C0003C
F0000E0001C0003C
F0000E0001C0003C
F0000E0001C0003C
F0000E0001C0003C
F0000E0001C0003C
F0000E0001C0003C
F00000000000003C
F00000000000003C
F00000000000003C
F00000000000003C
F00000000000003C
F00000000000007C
F80000000000007C
F80000000000007C
FC000000000000FC
FC000000000001FC
FE000000000001FC
FF000000000003FC
FF800000000007FC
FFC0000000001FFC
FFF0000000003FFC
FFFE00078001FFFC
FFFFFFFFFFFFFFFC
FFFFFFFFFFFFFFFC
FFFFFFFFFFFFFFFC
FFFFFFFFFFFFFFFC
FFFFFFFFFFFFFFFC
FFFFFFFFFFFFFFFC
FFFFFFFFFFFFFFF8
7FFFFFFFFFFFFFF8
7FFFFFFFFFFFFFF8
7FFFFFFFFFFFFFF0
3FFFFFFFFFFFFFF0
3FFFFFFFFFFFFFE0
1FFFFFFFFFFFFFE0
0FFFFFFFFFFFFFC0
07FFFFFFFFFFFF80
07FFFFFFFFFFFF00
01FFFFFFFFFFFE00
00FFFFFFFFFFFC00
007FFFFFFFFFF800
001FFFFFFFFFE000
0003FFF87FFE0000
ENDCHAR
STARTCHAR 0078
ENCODING 120
SWIDTH 488 0
DWIDTH 41 0
BBX 55 98 -5 -21
BITMAP
3FFFFFFFFFFFF8
3FFFFFFFFFFFF8
1FFFFFFFFFFFF8
1FFFFFFFFFFFF0
1E00007E0000F0
0F00007C0001F0
0F00007C0001E0
0F00003C0001E0
078000380003E0
078000380003C0
07C000180003C0
03C000100007C0
03C00010000780
03E00000000780
01E00000000F80
01E00000000F00
01F00000000F00
00F00000001F00
00F00000001E00
00F80000001E00
00780000003E00
00780000003C00
007C0000003C00
003C0000007C00
003C0000007800
003E0000007800
001E000000F000
001E000000F000
001F000000F000
000F000001E000
000F000001E000
000F800003E000
0007800003C000
0007800003C000
0003C00007C000
0003C000078000
0003C000078000
0001E0000F8000
0001E0000F8000
0003E000078000
0003C000078000
0003C00007C000
0007C00003C000
0007800003C000
0007800003E000
000F800001E000
000F000001E000
000F000001F000
001F000000F000
001E000000F000
001E000000F800
003E0000007800
003C0000007800
003C0000007C00
007C0000003C00
00780000003C00
00780000001E00
00F80000001E00
00F00000001E00
00F00000000F00
01F00000000F00
01E00000000F00
01E00000000780
03E00010000780
03C00010000780
03C000100003C0
07C000380003C0
078000380003C0
078000380001E0
0F00007C0001E0
0F00007C0001E0
0F00007C0000F0
1E0000FE0000F0
1E0000FE0000F8
3E0000FE000078
3C0001FF000078
3C0001FF00007C
7FFFFFFFFFFFFC
7FFFFFFFFFFFFC
7FFFFFFFFFFFFE
FFFFFFFFFFFFFE
FFFFFFFFFFFFFE
FFFFFFFFFFFFFE
FFFFFFFFFFFFFE
FFFFFFFFFFFFFE
FFFFFFFFFFFFFE
FFFFFFFFFFFFFE
FFFFFFFFFFFFFE
FFFFFFFFFFFFFE
FFFFFFFFFFFFFE
FFFFFFFFFFFFFE
FFFFFFFFFFFFFE
FFFFFFFFFFFFFE
FFFFFFEFFFFFFE
FFFFFFEFFFFFFE
FFFFFFEFFFFFFE
FFFFFFC7FFFFFE
FFFFFFC7FFFFFE
ENDCHAR
STARTCHAR 0079
ENCODING 121
SWIDTH 464 0
DWIDTH 39 0
BBX 43 98 0 -21
BITMAP
FFFFFFFFFFE0
FFFFFFFFFFE0
FFFFFFFFFFE0
FFFFFFFFFFE0
F0000E0001E0
F0000E0001E0
F0000E0001E0
F0000E0001E0
F0000E0001E0
F0000E0001E0
F0000E0001E0
F0000E0001E0
F0000E0001E0
F0000E0001E0
F0000E0001E0
F0000E0001E0
F0000E0001E0
F0000E0001E0
F0000E0001E0
F0000E0001E0
F0000E0001E0
F0000E0001E0
F0000E0001E0
F0000E0001E0
F0000E0001E0
F0000E0001E0
F0000E0001E0
F0000E0001E0
F0000E0001E0
F0000E0001E0
F0000E0001E0
F0000E0001E0
F0000E0001E0
F0000E0001E0
F0000E0001E0
F0000E0001E0
F0000E0001E0
F0000E0001E0
F0000E0001E0
F0000E0001E0
F0000E0001E0
F0000E0001E0
F000000001E0
F000000001E0
F000000001E0
F000000001E0
F000000001E0
F000000001E0
F800000001E0
7800000001E0
7C00000001E0
3C00000001E0
3E00000001E0
1F00000001E0
1F80000001E0
0FC0000001E0
07F0000001E0
FFFE000001E0
FFFFFE0001E0
FFFFFE0001E0
FFFFFE0001E0
F000000001E0
F000000001E0
F000000001E0
F000000001E0
F000000001E0
F000000003E0
F000000003E0
F000000003E0
F000000007E0
F00000000FE0
F00000000FE0
F00000001FE0
F00000003FE0
F0000000FFE0
F0000001FFE0
F000000FFFE0
FFFFFFFFFFE0
FFFFFFFFFFE0
FFFFFFFFFFE0
FFFFFFFFFFE0
FFFFFFFFFFE0
FFFFFFFFFFE0
FFFFFFFFFFC0
FFFFFFFFFFC0
FFFFFFFFFFC0
FFFFFFFFFF80
FFFFFFFFFF80
FFFFFFFFFF00
FFFFFFFFFF00
FFFFFFFFFE00
FFFFFFFFFC00
FFFFFFFFF800
FFFFFFFFF000
FFFFFFFFE000
FFFFFFFFC000
FFFFFFFF0000
FFFFFFF00000
ENDCHAR
STARTCHAR 007A
ENCODING 122
SWIDTH 488 0
DWIDTH 41 0
BBX 53 98 -5 -21
BITMAP
07FFFFFFFFFFF8
07FFFFFFFFFFF8
07FFFFFFFFFFF0
07FFFFFFFFFFF0
078000000001F0
078000000001E0
078000000001E0
078000000003E0
078000000003C0
078000000003C0
078000000007C0
07800000000780
07800000000780
07800000000F80
07800000000F00
07800000000F00
07800000001F00
07800000001E00
07800000001E00
07800000003E00
07FFFF80003C00
07FFFF00003C00
07FFFF00007C00
07FFFF00007800
00001E00007800
00001E0000F800
00003E0000F000
00003C0000F000
00003C0001F000
00007C0001E000
0000780001E000
0000780003E000
0000F80003C000
0000F00003C000
0000F00007C000
0001F000078000
0001E000078000
0001E0000F8000
0003E0000F0000
0003C0000F0000
0003C0001F0000
0007C0001E0000
000780001E0000
000780003E0000
000F80003C0000
000F00003C0000
000F00007C0000
001F0000780000
001E0000780000
001E0000F80000
003E0000F00000
003C0000F00000
003C0001F00000
007C0001E00000
00780001E00000
00780003E00000
00F80003C00000
00F00003FFFFC0
00F00007FFFFC0
01F00007FFFFC0
01E00007FFFFC0
01E000000003C0
03E000000003C0
03C000000003C0
03C000000003C0
07C000000003C0
078000000003C0
078000000003C0
0F8000000003C0
0F0000000003C0
0F0000000003C0
1F0000000003C0
1E0000000003C0
1E0000000003C0
3E0000000003C0
3C0000000003C0
3C0000000003C0
7FFFFFFFFFFFC0
7FFFFFFFFFFFC0
7FFFFFFFFFFFC0
FFFFFFFFFFFFC0
FFFFFFFFFFFFC0
FFFFFFFFFFFFC0
FFFFFFFFFFFFC0
FFFFFFFFFFFFC0
FFFFFFFFFFFFC0
FFFFFFFFFFFFC0
FFFFFFFFFFFFC0
FFFFFFFFFFFFC0
FFFFFFFFFFFFC0
FFFFFFFFFFFFC0
FFFFFFFFFFFFC0
FFFFFFFFFFFFC0
FFFFFFFFFFFFC0
FFFFFFFFFFFFC0
FFFFFFFFFFFFC0
FFFFFFFFFFFFC0
FFFFFFFFFFFFC0
ENDCHAR
STARTCHAR 007B
ENCODING 123
SWIDTH 380 0
DWIDTH 32 0
BBX 36 103 0 -21
BITMAP
0003FFFFF0
001FFFFFF0
007FFFFFF0
00FFFFFFF0
01FE0000F0
03F00000F0
07E00000F0
0F800000F0
1F000000F0
3E000000F0
3E000000F0
7C000000F0
78000000F0
78000000F0
F8000000F0
F0000000F0
F0000000F0
F0000000F0
F0000000F0
F0000000F0
F0000FFFF0
F0000FFFF0
F0000FFFF0
F0000FFFF0
F0000FFFF0
F0000FFFF0
F0000FFFF0
F0000FFFF0
F0000FFFF0
F0000FFFF0
F0000FFFF0
F0000FFFF0
F0000FFFF0
F0000FFFF0
F0000FFFF0
F0000FFFF0
F0000FFFF0
F0000FFFF0
F0000FFFF0
F0000FFFF0
F0000FFFF0
F0000F0000
F0000F0000
F0000F0000
F0000F0000
F0000F0000
F0000F0000
F0000F0000
F0000F0000
F0000F0000
F0000F0000
F0000F0000
F0000F0000
F0000F0000
F0000F0000
F0000F0000
F0000F0000
F0000F0000
F0000F0000
F0000F0000
F0000F0000
F0000F0000
F0000FFFF0
F0000FFFF0
F0000FFFF0
F0000FFFF0
F0000000F0
F0000000F0
F0000000F0
F0000000F0
F0000000F0
F8000000F0
F8000000F0
F8000000F0
FC000000F0
FC000000F0
FE000000F0
FF000000F0
FF800000F0
FFE00000F0
FFF00000F0
FFFE0000F0
FFFFFFFFF0
FFFFFFFFF0
FFFFFFFFF0
FFFFFFFFF0
FFFFFFFFF0
FFFFFFFFF0
FFFFFFFFF0
7FFFFFFFF0
7FFFFFFFF0
7FFFFFFFF0
3FFFFFFFF0
3FFFFFFFF0
1FFFFFFFF0
0FFFFFFFF0
07FFFFFFF0
03FFFFFFF0
01FFFFFFF0
00FFFFFFF0
007FFFFFF0
001FFFFFF0
0003FFFFF0
ENDCHAR
STARTCHAR 007C
ENCODING 124
SWIDTH 238 0
DWIDTH 20 0
BBX 24 120 0 -29
BITMAP
FFFFFF
FFFFFF
FFFFFF
FFFFFF
F0000F
F0000F
F0000F
F0000F
F0000F
F0000F
F0000F
F0000F
F0000F
F0000F
F0000F
F0000F
F0000F
F0000F
F0000F
F0000F
F0000F
F0000F
F0000F
F0000F
F0000F
F0000F
F0000F
F0000F
F0000F
F0000F
F0000F
F0000F
F0000F
F0000F
F0000F
F0000F
F0000F
F0000F
F0000F
F0000F
F0000F
F0000F
F0000F
F0000F
F0000F
F0000F
F0000F
F0000F
F0000F
F0000F
F0000F
F0000F
F0000F
F0000F
F0000F
F0000F
F0000F
F0000F
F0000F
F0000F
F0000F
F0000F
F0000F
F0000F
F0000F
F0000F
F0000F
F0000F
F0000F
F0000F
F0000F
F0000F
F0000F
F0000F
F0000F
F0000F
F0000F
F0000F
F0000F
F0000F
F0000F
F0000F
F0000F
F0000F
F0000F
F0000F
F0000F
F0000F
F0000F
F0000F
F0000F
F0000F
F0000F
F0000F
F0000F
F0000F
F0000F
F0000F
F0000F
FFFFFF
FFFFFF
FFFFFF
FFFFFF
FFFFFF
FFFFFF
FFFFFF
FFFFFF
FFFFFF
FFFFFF
FFFFFF
FFFFFF
FFFFFF
FFFFFF
FFFFFF
FFFFFF
FFFFFF
FFFFFF
FFFFFF
FFFFFF
FFFFFF
ENDCHAR
STARTCHAR 007D
ENCODING 125
SWIDTH 380 0
DWIDTH 32 0
BBX 36 103 0 -21
BITMAP
FFFFF80000
FFFFFF8000
FFFFFFE000
FFFFFFF000
F00007F800
F00000FC00
F000007E00
F000001F00
F000000F80
F0000007C0
F0000007C0
F0000003E0
F0000001E0
F0000001E0
F0000001E0
F0000000F0
F0000000F0
F0000000F0
F0000000F0
F0000000F0
FFFF0000F0
FFFF0000F0
FFFF0000F0
FFFF0000F0
FFFF0000F0
FFFF0000F0
FFFF0000F0
FFFF0000F0
FFFF0000F0
FFFF0000F0
FFFF0000F0
FFFF0000F0
FFFF0000F0
FFFF0000F0
FFFF0000F0
FFFF0000F0
FFFF0000F0
FFFF0000F0
FFFF0000F0
FFFF0000F0
FFFF0000F0
000F0000F0
000F0000F0
000F0000F0
000F0000F0
000F0000F0
000F0000F0
000F0000F0
000F0000F0
000F0000F0
000F0000F0
000F0000F0
000F0000F0
000F0000F0
000F0000F0
000F0000F0
000F0000F0
000F0000F0
000F0000F0
000F0000F0
000F0000F0
000F0000F0
FFFF0000F0
FFFF0000F0
FFFF0000F0
FFFF0000F0
F0000000F0
F0000000F0
F0000000F0
F0000000F0
F0000000F0
F0000001F0
F0000001F0
F0000001F0
F0000003F0
F0000007F0
F0000007F0
F000000FF0
F000001FF0
F000007FF0
F00000FFF0
F00007FFF0
FFFFFFFFF0
FFFFFFFFF0
FFFFFFFFF0
FFFFFFFFF0
FFFFFFFFF0
FFFFFFFFF0
FFFFFFFFF0
FFFFFFFFE0
FFFFFFFFE0
FFFFFFFFE0
FFFFFFFFC0
FFFFFFFFC0
FFFFFFFF80
FFFFFFFF00
FFFFFFFE00
FFFFFFFC00
FFFFFFF800
FFFFFFF000
FFFFFFE000
FFFFFF8000
FFFFFC0000
ENDCHAR
STARTCHAR 007E
ENCODING 126
SWIDTH 464 0
DWIDTH 39 0
BBX 39 32 3 44
BITMAP
3000000000
3E001FE000
3FE0FFFC00
7FFFFFFF00
7FFFFFFFC0
79FFF01FE0
783F8007F0
F8070001F8
F0000000F8
F00000007C
F00000007C
F00000003C
F00000003E
F00000001E
F00000001E
F00000001E
F00000001E
700000001E
780000001E
780000001E
780000001E
3C0000001E
3C0000001E
1E0003803C
1F0007E03C
0F800FFC3C
07F03FFFFC
03FFFFFFF8
01FFFE1FF8
00FFF807F8
001FC000F0
0000000010
ENDCHAR
STARTCHAR 00A1
ENCODING 161
SWIDTH 238 0
DWIDTH 20 0
BBX 24 98 0 -21
BITMAP
FFFFFF
FFFFFF
FFFFFF
FFFFFF
F0000F
F0000F
F0000F
F0000F
F0000F
F0000F
F0000F
F0000F
F0000F
F0000F
F0000F
F0000F
F0000F
F0000F
F0000F
F0000F
FFFFFF
FFFFFF
FFFFFF
F0000F
F0000F
F0000F
F0000F
F0000F
F0000F
F0000F
F0000F
F0000F
F0000F
F0000F
F0000F
F0000F
F0000F
F0000F
F0000F
F0000F
F0000F
F0000F
F0000F
F0000F
F0000F
F0000F
F0000F
F0000F
F0000F
F0000F
F0000F
F0000F
F0000F
F0000F
F0000F
F0000F
F0000F
F0000F
F0000F
F0000F
F0000F
F0000F
F0000F
F0000F
F0000F
F0000F
F0000F
F0000F
F0000F
F0000F
F0000F
F0000F
F0000F
F0000F
F0000F
F0000F
F0000F
FFFFFF
FFFFFF
FFFFFF
FFFFFF
FFFFFF
FFFFFF
FFFFFF
FFFFFF
FFFFFF
FFFFFF
FFFFFF
FFFFFF
FFFFFF
FFFFFF
FFFFFF
FFFFFF
FFFFFF
FFFFFF
FFFFFF
FFFFFF
FFFFFF
ENDCHAR
STARTCHAR 00A2
ENCODING 162
SWIDTH 488 0
DWIDTH 41 0
BBX 45 98 0 -21
BITMAP
003FFFFFE000
003FFFFFE000
003FFFFFE000
003FFFFFE000
003C0001E000
003C0001E000
003C0001E000
003C0001E000
003C0001E000
003C0001E000
003C0001E000
00FC0001F800
01FC0001FC00
03F80000FE00
07E000003F00
0F8000000F80
1F00000007C0
1E00000003C0
3E00000003E0
7C00000001E0
7800000001F0
7800000000F0
F800000000F0
F00000000078
F00000000078
F00000000078
F00000000078
F00000000078
F0000F000078
F0000F000078
F0000F000078
F0000F000078
F0000F000078
F0000F000078
F0000F000078
F0000F000078
F0000F000078
F0000F000078
F0000F000078
F0000FFFFFF8
F0000FFFFFF8
F0000FFFFFF8
F0000FFFFFF8
F0000F000078
F0000F000078
F0000F000078
F0000F000078
F0000F000078
F0000F000078
F0000F000078
F0000F000078
F0000F000078
F0000F000078
F0000F000078
F00000000078
F00000000078
F00000000078
F00000000078
F800000000F8
F800000000F8
F800000000F8
FC00000001F8
FE00000001F8
FE00000003F8
FF00000007F8
FF8000000FF8
FFE000001FF8
FFF800007FF8
FFFC0001FFF8
FFFC0001FFF8
FFFC0001FFF8
FFFC0001FFF8
FFFC0001FFF8
FFFC0001FFF8
FFFC0001FFF8
FFFC0001FFF0
7FFC0001FFF0
7FFFFFFFFFF0
7FFFFFFFFFE0
3FFFFFFFFFE0
3FFFFFFFFFC0
1FFFFFFFFFC0
0FFFFFFFFF80
07FFFFFFFF00
03FFFFFFFE00
01FFFFFFFC00
00FFFFFFF800
003FFFFFE000
003FFFFFE000
003FFFFFE000
003FFFFFE000
003FFFFFE000
003FFFFFE000
003FFFFFE000
003FFFFFE000
003FFFFFE000
003FFFFFE000
003FFFFFE000
ENDCHAR
STARTCHAR 00A3
ENCODING 163
SWIDTH 273 0
DWIDTH 23 0
BBX 63 63 4 8
BITMAP
003FFFFFFFFFF800
01FFFFFFFFFFFF00
07FFFFFFFFFFFFC0
0FFC07FFFFE01FE0
1FE000FFFF8007F0
3FC0007FFE0001F8
3F80003FFC0000F8
7F00001FF800007C
7E00000FF000003C
FC000007E000001C
F8000007E000001E
F8000003C000000E
F8000003C000000E
F000000180000006
F000000180000006
F000000180000006
F000000180000006
F000000180000006
F000000180000006
F000000180000006
F000000180000006
F8000003C000000E
F8000003C000000E
F8000007E000001E
FC000007E000001E
FE00000FF000003E
FF00001FF800007E
FF80003FFC0000FE
FFC0007FFE0001FE
FFE000FFFF8007FE
FFFC07FFFFE01FFE
FFFFFFFFFFFFFFFE
FFFFFFFFFFFFFFFE
FFFC07FFFFE01FFE
FFE000FFFF0003FE
FFC0007FFE0001FE
FF00001FF800007E
FE00000FF000003E
FC000007F000003E
FC000007E000001E
F8000003C000000E
F8000003C000000E
F00000018000000E
F000000180000006
F000000180000006
F000000180000006
F000000180000006
F000000180000006
F000000180000006
F00000018000000E
F8000003C000000E
F8000003C000000E
FC000007E000001E
FC000007E000003E
7E00000FF000003C
7F00001FF800007C
3F80003FFE0001F8
3FE000FFFF0003F8
1FFC07FFFFE01FF0
0FFFFFFFFFFFFFE0
07FFFFFFFFFFFFC0
01FFFFFFFFFFFF00
007FFFFFFFFFFC00
ENDCHAR
STARTCHAR 00A4
ENCODING 164
SWIDTH 273 0
DWIDTH 23 0
BBX 63 63 4 8
BITMAP
003FFFFFFFFFF800
01FFFFFFFFFFFF00
07FFFFFFFFFFFFC0
0FFC07FFFFE01FE0
1FE000FFFF8007F0
3FC0007FFE0001F8
3F80003FFC0000F8
7F00001FF800007C
7E00000FF000003C
FC000007E000001C
F8000007E000001E
F8000003C000000E
F8000003C000000E
F000000180000006
F000000180000006
F000000180000006
F000000180000006
F000000180000006
F000000180000006
F000000180000006
F000000180000006
F8000003C000000E
F8000003C000000E
F8000007E000001E
FC000007E000001E
FE00000FF000003E
FF00001FF800007E
FF80003FFC0000FE
FFC0007FFE0001FE
FFE000FFFF8007FE
FFFC07FFFFE01FFE
FFFFFFFFFFFFFFFE
FFFFFFFFFFFFFFFE
FFFC07FFFFE01FFE
FFE000FFFF0003FE
FFC0007FFE0001FE
FF00001FF800007E
FE00000FF000003E
FC000007F000003E
FC000007E000001E
F8000003C000000E
F8000003C000000E
F00000018000000E
F000000180000006
F000000180000006
F000000180000006
F000000180000006
F000000180000006
F000000180000006
F00000018000000E
F8000003C000000E
F8000003C000000E
FC000007E000001E
FC000007E000003E
7E00000FF000003C
7F00001FF800007C
3F80003FFE0001F8
3FE000FFFF0003F8
1FFC07FFFFE01FF0
0FFFFFFFFFFFFFE0
07FFFFFFFFFFFFC0
01FFFFFFFFFFFF00
007FFFFFFFFFFC00
ENDCHAR
STARTCHAR 00A5
ENCODING 165
SWIDTH 273 0
DWIDTH 23 0
BBX 63 63 4 8
BITMAP
003FFFFFFFFFF800
01FFFFFFFFFFFF00
07FFFFFFFFFFFFC0
0FFC07FFFFE01FE0
1FE000FFFF8007F0
3FC0007FFE0001F8
3F80003FFC0000F8
7F00001FF800007C
7E00000FF000003C
FC000007E000001C
F8000007E000001E
F8000003C000000E
F8000003C000000E
F000000180000006
F000000180000006
F000000180000006
F000000180000006
F000000180000006
F000000180000006
F000000180000006
F000000180000006
F8000003C000000E
F8000003C000000E
F8000007E000001E
FC000007E000001E
FE00000FF000003E
FF00001FF800007E
FF80003FFC0000FE
FFC0007FFE0001FE
FFE000FFFF8007FE
FFFC07FFFFE01FFE
FFFFFFFFFFFFFFFE
FFFFFFFFFFFFFFFE
FFFC07FFFFE01FFE
FFE000FFFF0003FE
FFC0007FFE0001FE
FF00001FF800007E
FE00000FF000003E
FC000007F000003E
FC000007E000001E
F8000003C000000E
F8000003C000000E
F00000018000000E
F000000180000006
F000000180000006
F000000180000006
F000000180000006
F000000180000006
F000000180000006
F00000018000000E
F8000003C000000E
F8000003C000000E
FC000007E000001E
FC000007E000003E
7E00000FF000003C
7F00001FF800007C
3F80003FFE0001F8
3FE000FFFF0003F8
1FFC07FFFFE01FF0
0FFFFFFFFFFFFFE0
07FFFFFFFFFFFFC0
01FFFFFFFFFFFF00
007FFFFFFFFFFC00
ENDCHAR
STARTCHAR 00A7
ENCODING 167
SWIDTH 488 0
DWIDTH 41 0
BBX 44 109 0 -27
BITMAP
0003FFFC0000
001FFFFF8000
007FFFFFE000
00FFFFFFF000
03FE0007F800
07F00000FC00
0FC000003E00
0F8000001F00
1F0000000F80
3E0000000780
3C00000007C0
7C00000003C0
7800000001E0
7800000001E0
F000000001E0
F000000000F0
F000000000F0
F000000000F0
F000000000F0
F000000000F0
F0000F0000F0
F0000F0000F0
F0000F0000F0
F0000F0000F0
F0000FFFFFF0
F00007FFFFF0
F00001FFFFF0
F000007FFFF0
F000000FF800
F0000003FC00
F8000000FE00
F80000007F00
FC0000001F00
FC0000000F80
FE00000007C0
F700000007C0
F180000003E0
F0E0000001E0
F030000001E0
F01C000001F0
F007000000F0
F001C00000F0
F000F00000F0
F0003E0000F0
F0001F0000F0
F0000F0000F0
F0000F0000F0
F000030000F0
F00000C000F0
F000003000F0
F000000800F0
F000000600F0
F000000180F0
F800000040F0
7800000030F0
7C0000000CF0
3C00000006F0
3E00000007F0
1F00000003F0
1F80000001F0
0FE0000001F0
07F0000001F0
03FC000000F0
00FF800000F0
FFFFE00000F0
FFFFFC0000F0
FFFFFF0000F0
FFFFFF0000F0
F0000F0000F0
F0000F0000F0
F0000F0000F0
F0000F0000F0
F000000000F0
F000000000F0
F000000000F0
F000000000F0
F000000000F0
F000000001F0
F800000001F0
F800000001F0
FC00000003F0
FC00000007F0
FE00000007F0
FF0000000FF0
FF8000001FF0
FFC000003FF0
FFF00000FFF0
FFFC0007FFF0
FFFFFFFFFFF0
FFFFFFFFFFF0
FFFFFFFFFFF0
FFFFFFFFFFF0
FFFFFFFFFFF0
FFFFFFFFFFF0
FFFFFFFFFFE0
7FFFFFFFFFE0
7FFFFFFFFFE0
7FFFFFFFFFE0
3FFFFFFFFFC0
3FFFFFFFFFC0
1FFFFFFFFF80
0FFFFFFFFF00
0FFFFFFFFE00
07FFFFFFFE00
03FFFFFFF800
00FFFFFFF000
007FFFFFE000
001FFFFF8000
0003FFFC0000
ENDCHAR
STARTCHAR 00A8
ENCODING 168
SWIDTH 559 0
DWIDTH 47 0
BBX 46 27 3 65
BITMAP
FFFFFFFFFFFC
FFFFFFFFFFFC
FFFFFFFFFFFC
FFFFFFFFFFFC
F0000FC0003C
F0000FC0003C
F0000FC0003C
F0000FC0003C
F0000FC0003C
F0000FC0003C
F0000FC0003C
F0000FC0003C
F0000FC0003C
F0000FC0003C
F0000FC0003C
F0000FC0003C
F0000FC0003C
F0000FC0003C
F0000FC0003C
F0000FC0003C
F0000FC0003C
F0000FC0003C
F0000FC0003C
FFFFFFFFFFFC
FFFFFFFFFFFC
FFFFFFFFFFFC
FFFFFFFFFFFC
ENDCHAR
STARTCHAR 00A9
ENCODING 169
SWIDTH 559 0
DWIDTH 47 0
BBX 43 78 4 0
BITMAP
001FFFFF0000
00FFFFFFE000
01FFFFFFF800
07FFFFFFFC00
0FFFFFFFFE00
1FFFFFFFFF00
1FFFFFFFFF80
3FFFFFFFFF80
7FFFFFFFFFC0
7FFFFFFFFFC0
7FFFFFFFFFE0
FFFFFFFFFFE0
FFFFFFFFFFE0
FFFFFFFFFFE0
FFFFFFFFFFE0
FFFFFFFFFFE0
FFFFFFFFFFE0
FFFFC07FFFE0
FFFF000FFFE0
FFFC0007FFE0
FFF80003FFE0
FFF00001FFE0
FFF00000FFE0
FFE00000FFE0
FFE000007FE0
FFC000007FE0
FFC00E007FE0
FFC01E007FE0
FFC01E007FE0
FFC01E007FE0
FFC01E007FE0
FFC01E007FE0
FFC01E007FE0
FFC01E007FE0
FFC01FFFFFE0
FFC01FFFFFE0
FFC01FFFFFE0
FFC01FFFFFE0
FFC01FFFFFE0
FFC01FFFFFE0
FFC01FFFFFE0
FFC01FFFFFE0
FFC01FFFFFE0
FFC01FFFFFE0
FFC01E007FE0
FFC01E007FE0
FFC01E007FE0
FFC01E007FE0
FFC01E007FE0
FFC01E007FE0
FFC00E007FE0
FFC000007FE0
FFE000007FE0
FFE00000FFE0
FFF00000FFE0
FFF00001FFE0
FFF80003FFE0
FFFC0007FFE0
FFFF000FFFE0
FFFFC07FFFE0
FFFFFFFFFFE0
FFFFFFFFFFE0
FFFFFFFFFFE0
FFFFFFFFFFE0
FFFFFFFFFFE0
FFFFFFFFFFE0
FFFFFFFFFFE0
7FFFFFFFFFE0
7FFFFFFFFFC0
7FFFFFFFFFC0
3FFFFFFFFF80
1FFFFFFFFF80
1FFFFFFFFF00
0FFFFFFFFE00
07FFFFFFFC00
01FFFFFFF800
00FFFFFFE000
001FFFFF0000
ENDCHAR
STARTCHAR 00AA
ENCODING 170
SWIDTH 273 0
DWIDTH 23 0
BBX 63 63 4 8
BITMAP
003FFFFFFFFFF800
01FFFFFFFFFFFF00
07FFFFFFFFFFFFC0
0FFC07FFFFE01FE0
1FE000FFFF8007F0
3FC0007FFE0001F8
3F80003FFC0000F8
7F00001FF800007C
7E00000FF000003C
FC000007E000001C
F8000007E000001E
F8000003C000000E
F8000003C000000E
F000000180000006
F000000180000006
F000000180000006
F000000180000006
F000000180000006
F000000180000006
F000000180000006
F000000180000006
F8000003C000000E
F8000003C000000E
F8000007E000001E
FC000007E000001E
FE00000FF000003E
FF00001FF800007E
FF80003FFC0000FE
FFC0007FFE0001FE
FFE000FFFF8007FE
FFFC07FFFFE01FFE
FFFFFFFFFFFFFFFE
FFFFFFFFFFFFFFFE
FFFC07FFFFE01FFE
FFE000FFFF0003FE
FFC0007FFE0001FE
FF00001FF800007E
FE00000FF000003E
FC000007F000003E
FC000007E000001E
F8000003C000000E
F8000003C000000E
F00000018000000E
F000000180000006
F000000180000006
F000000180000006
F000000180000006
F000000180000006
F000000180000006
F00000018000000E
F8000003C000000E
F8000003C000000E
FC000007E000001E
FC000007E000003E
7E00000FF000003C
7F00001FF800007C
3F80003FFE0001F8
3FE000FFFF0003F8
1FFC07FFFFE01FF0
0FFFFFFFFFFFFFE0
07FFFFFFFFFFFFC0
01FFFFFFFFFFFF00
007FFFFFFFFFFC00
ENDCHAR
STARTCHAR 00AB
ENCODING 171
SWIDTH 273 0
DWIDTH 23 0
BBX 63 63 4 8
BITMAP
003FFFFFFFFFF800
01FFFFFFFFFFFF00
07FFFFFFFFFFFFC0
0FFC07FFFFE01FE0
1FE000FFFF8007F0
3FC0007FFE0001F8
3F80003FFC0000F8
7F00001FF800007C
7E00000FF000003C
FC000007E000001C
F8000007E000001E
F8000003C000000E
F8000003C000000E
F000000180000006
F000000180000006
F000000180000006
F000000180000006
F000000180000006
F000000180000006
F000000180000006
F000000180000006
F8000003C000000E
F8000003C000000E
F8000007E000001E
FC000007E000001E
FE00000FF000003E
FF00001FF800007E
FF80003FFC0000FE
FFC0007FFE0001FE
FFE000FFFF8007FE
FFFC07FFFFE01FFE
FFFFFFFFFFFFFFFE
FFFFFFFFFFFFFFFE
FFFC07FFFFE01FFE
FFE000FFFF0003FE
FFC0007FFE0001FE
FF00001FF800007E
FE00000FF000003E
FC000007F000003E
FC000007E000001E
F8000003C000000E
F8000003C000000E
F00000018000000E
F000000180000006
F000000180000006
F000000180000006
F000000180000006
F000000180000006
F000000180000006
F00000018000000E
F8000003C000000E
F8000003C000000E
FC000007E000001E
FC000007E000003E
7E00000FF000003C
7F00001FF800007C
3F80003FFE0001F8
3FE000FFFF0003F8
1FFC07FFFFE01FF0
0FFFFFFFFFFFFFE0
07FFFFFFFFFFFFC0
01FFFFFFFFFFFF00
007FFFFFFFFFFC00
ENDCHAR
STARTCHAR 00AC
ENCODING 172
SWIDTH 273 0
DWIDTH 23 0
BBX 63 63 4 8
BITMAP
003FFFFFFFFFF800
01FFFFFFFFFFFF00
07FFFFFFFFFFFFC0
0FFC07FFFFE01FE0
1FE000FFFF8007F0
3FC0007FFE0001F8
3F80003FFC0000F8
7F00001FF800007C
7E00000FF000003C
FC000007E000001C
F8000007E000001E
F8000003C000000E
F8000003C000000E
F000000180000006
F000000180000006
F000000180000006
F000000180000006
F000000180000006
F000000180000006
F000000180000006
F000000180000006
F8000003C000000E
F8000003C000000E
F8000007E000001E
FC000007E000001E
FE00000FF000003E
FF00001FF800007E
FF80003FFC0000FE
FFC0007FFE0001FE
FFE000FFFF8007FE
FFFC07FFFFE01FFE
FFFFFFFFFFFFFFFE
FFFFFFFFFFFFFFFE
FFFC07FFFFE01FFE
FFE000FFFF0003FE
FFC0007FFE0001FE
FF00001FF800007E
FE00000FF000003E
FC000007F000003E
FC000007E000001E
F8000003C000000E
F8000003C000000E
F00000018000000E
F000000180000006
F000000180000006
F000000180000006
F000000180000006
F000000180000006
F000000180000006
F00000018000000E
F8000003C000000E
F8000003C000000E
FC000007E000001E
FC000007E000003E
7E00000FF000003C
7F00001FF800007C
3F80003FFE0001F8
3FE000FFFF0003F8
1FFC07FFFFE01FF0
0FFFFFFFFFFFFFE0
07FFFFFFFFFFFFC0
01FFFFFFFFFFFF00
007FFFFFFFFFFC00
ENDCHAR
STARTCHAR 00AE
ENCODING 174
SWIDTH 488 0
DWIDTH 41 0
BBX 37 78 4 0
BITMAP
001FFFC000
00FFFFF800
01FFFFFE00
07FFFFFF00
0FFFFFFF80
1FFFFFFFC0
1FFFFFFFE0
3FFFFFFFE0
7FFFFFFFF0
7FFFFFFFF0
7FFFFFFFF8
FFFFFFFFF8
FFFFFFFFF8
FFFFFFFFF8
FFFFFFFFF8
FFFFFFFFF8
FFFFFFFFF8
FFFFC01FF8
FFFF001FF8
FFFC001FF8
FFF8001FF8
FFF0001FF8
FFF0001FF8
FFE0001FF8
FFE0001FF8
FFC0001FF8
FFC00FFFF8
FFC01FFFF8
FFC01FFFF8
FFC01FFFF8
FFC01FFFF8
FFC01FFFF8
FFC01FFFF8
FFC01FFFF8
FFC01FFFF8
FFC01FFFF8
FFC01FFFF8
FFC01FFFF8
FFC01FFFF8
FFC01FFFF8
FFC01FFFF8
FFC01FFFF8
FFC01FFFF8
FFC01FFFF8
FFC01FFFF8
FFC01FFFF8
FFC01FFFF8
FFC01FFFF8
FFC01FFFF8
FFC01FFFF8
FFC01FFFF8
FFC01FFFF8
FFC01FFFF8
FFC01FFFF8
FFC01FFFF8
FFC01FFFF8
FFC01FFFF8
FFC01FFFF8
FFC01FFFF8
FFC01FFFF8
FFC01FFFF8
FFFFFFFFF8
FFFFFFFFF8
FFFFFFFFF8
FFFFFFFFF8
FFFFFFFFF8
FFFFFFFFF8
7FFFFFFFF8
7FFFFFFFF0
7FFFFFFFF0
3FFFFFFFE0
1FFFFFFFE0
1FFFFFFFC0
0FFFFFFF80
07FFFFFF00
01FFFFFE00
00FFFFF800
001FFFC000
ENDCHAR
STARTCHAR 00B0
ENCODING 176
SWIDTH 273 0
DWIDTH 23 0
BBX 63 63 4 8
BITMAP
003FFFFFFFFFF800
01FFFFFFFFFFFF00
07FFFFFFFFFFFFC0
0FFC07FFFFE01FE0
1FE000FFFF8007F0
3FC0007FFE0001F8
3F80003FFC0000F8
7F00001FF800007C
7E00000FF000003C
FC000007E000001C
F8000007E000001E
F8000003C000000E
F8000003C000000E
F000000180000006
F000000180000006
F000000180000006
F000000180000006
F000000180000006
F000000180000006
F000000180000006
F000000180000006
F8000003C000000E
F8000003C000000E
F8000007E000001E
FC000007E000001E
FE00000FF000003E
FF00001FF800007E
FF80003FFC0000FE
FFC0007FFE0001FE
FFE000FFFF8007FE
FFFC07FFFFE01FFE
FFFFFFFFFFFFFFFE
FFFFFFFFFFFFFFFE
FFFC07FFFFE01FFE
FFE000FFFF0003FE
FFC0007FFE0001FE
FF00001FF800007E
FE00000FF000003E
FC000007F000003E
FC000007E000001E
F8000003C000000E
F8000003C000000E
F00000018000000E
F000000180000006
F000000180000006
F000000180000006
F000000180000006
F000000180000006
F000000180000006
F00000018000000E
F8000003C000000E
F8000003C000000E
FC000007E000001E
FC000007E000003E
7E00000FF000003C
7F00001FF800007C
3F80003FFE0001F8
3FE000FFFF0003F8
1FFC07FFFFE01FF0
0FFFFFFFFFFFFFE0
07FFFFFFFFFFFFC0
01FFFFFFFFFFFF00
007FFFFFFFFFFC00
ENDCHAR
STARTCHAR 00B1
ENCODING 177
SWIDTH 273 0
DWIDTH 23 0
BBX 63 63 4 8
BITMAP
003FFFFFFFFFF800
01FFFFFFFFFFFF00
07FFFFFFFFFFFFC0
0FFC07FFFFE01FE0
1FE000FFFF8007F0
3FC0007FFE0001F8
3F80003FFC0000F8
7F00001FF800007C
7E00000FF000003C
FC000007E000001C
F8000007E000001E
F8000003C000000E
F8000003C000000E
F000000180000006
F000000180000006
F000000180000006
F000000180000006
F000000180000006
F000000180000006
F000000180000006
F000000180000006
F8000003C000000E
F8000003C000000E
F8000007E000001E
FC000007E000001E
FE00000FF000003E
FF00001FF800007E
FF80003FFC0000FE
FFC0007FFE0001FE
FFE000FFFF8007FE
FFFC07FFFFE01FFE
FFFFFFFFFFFFFFFE
FFFFFFFFFFFFFFFE
FFFC07FFFFE01FFE
FFE000FFFF0003FE
FFC0007FFE0001FE
FF00001FF800007E
FE00000FF000003E
FC000007F000003E
FC000007E000001E
F8000003C000000E
F8000003C000000E
F00000018000000E
F000000180000006
F000000180000006
F000000180000006
F000000180000006
F000000180000006
F000000180000006
F00000018000000E
F8000003C000000E
F8000003C000000E
FC000007E000001E
FC000007E000003E
7E00000FF000003C
7F00001FF800007C
3F80003FFE0001F8
3FE000FFFF0003F8
1FFC07FFFFE01FF0
0FFFFFFFFFFFFFE0
07FFFFFFFFFFFFC0
01FFFFFFFFFFFF00
007FFFFFFFFFFC00
ENDCHAR
STARTCHAR 00B4
ENCODING 180
SWIDTH 119 0
DWIDTH 10 0
BBX 43 31 -6 65
BITMAP
0000FFFFFFE0
0000FFFFFFE0
0001FFFFFFC0
0001FFFFFFC0
0003E0000780
0007C0000F80
0007C0001F00
000F80001E00
000F00003E00
001F00003C00
001E00007C00
003E00007800
003C0000F800
007C0001F000
00F80001F000
00F80003E000
01F00003C000
01E00007C000
03E000078000
03C0000F8000
07C0000F0000
0780001F0000
0F80003E0000
1F00003E0000
1F00007C0000
3E0000780000
3C0000F80000
7FFFFFF00000
7FFFFFF00000
FFFFFFE00000
FFFFFFE00000
ENDCHAR
STARTCHAR 00B5
ENCODING 181
SWIDTH 273 0
DWIDTH 23 0
BBX 63 63 4 8
BITMAP
003FFFFFFFFFF800
01FFFFFFFFFFFF00
07FFFFFFFFFFFFC0
0FFC07FFFFE01FE0
1FE000FFFF8007F0
3FC0007FFE0001F8
3F80003FFC0000F8
7F00001FF800007C
7E00000FF000003C
FC000007E000001C
F8000007E000001E
F8000003C000000E
F8000003C000000E
F000000180000006
F000000180000006
F000000180000006
F000000180000006
F000000180000006
F000000180000006
F000000180000006
F000000180000006
F8000003C000000E
F8000003C000000E
F8000007E000001E
FC000007E000001E
FE00000FF000003E
FF00001FF800007E
FF80003FFC0000FE
FFC0007FFE0001FE
FFE000FFFF8007FE
FFFC07FFFFE01FFE
FFFFFFFFFFFFFFFE
FFFFFFFFFFFFFFFE
FFFC07FFFFE01FFE
FFE000FFFF0003FE
FFC0007FFE0001FE
FF00001FF800007E
FE00000FF000003E
FC000007F000003E
FC000007E000001E
F8000003C000000E
F8000003C000000E
F00000018000000E
F000000180000006
F000000180000006
F000000180000006
F000000180000006
F000000180000006
F000000180000006
F00000018000000E
F8000003C000000E
F8000003C000000E
FC000007E000001E
FC000007E000003E
7E00000FF000003C
7F00001FF800007C
3F80003FFE0001F8
3FE000FFFF0003F8
1FFC07FFFFE01FF0
0FFFFFFFFFFFFFE0
07FFFFFFFFFFFFC0
01FFFFFFFFFFFF00
007FFFFFFFFFFC00
ENDCHAR
STARTCHAR 00B6
ENCODING 182
SWIDTH 273 0
DWIDTH 23 0
BBX 63 63 4 8
BITMAP
003FFFFFFFFFF800
01FFFFFFFFFFFF00
07FFFFFFFFFFFFC0
0FFC07FFFFE01FE0
1FE000FFFF8007F0
3FC0007FFE0001F8
3F80003FFC0000F8
7F00001FF800007C
7E00000FF000003C
FC000007E000001C
F8000007E000001E
F8000003C000000E
F8000003C000000E
F000000180000006
F000000180000006
F000000180000006
F000000180000006
F000000180000006
F000000180000006
F000000180000006
F000000180000006
F8000003C000000E
F8000003C000000E
F8000007E000001E
FC000007E000001E
FE00000FF000003E
FF00001FF800007E
FF80003FFC0000FE
FFC0007FFE0001FE
FFE000FFFF8007FE
FFFC07FFFFE01FFE
FFFFFFFFFFFFFFFE
FFFFFFFFFFFFFFFE
FFFC07FFFFE01FFE
FFE000FFFF0003FE
FFC0007FFE0001FE
FF00001FF800007E
FE00000FF000003E
FC000007F000003E
FC000007E000001E
F8000003C000000E
F8000003C000000E
F00000018000000E
F000000180000006
F000000180000006
F000000180000006
F000000180000006
F000000180000006
F000000180000006
F00000018000000E
F8000003C000000E
F8000003C000000E
FC000007E000001E
FC000007E000003E
7E00000FF000003C
7F00001FF800007C
3F80003FFE0001F8
3FE000FFFF0003F8
1FFC07FFFFE01FF0
0FFFFFFFFFFFFFE0
07FFFFFFFFFFFFC0
01FFFFFFFFFFFF00
007FFFFFFFFFFC00
ENDCHAR
STARTCHAR 00B7
ENCODING 183
SWIDTH 273 0
DWIDTH 23 0
BBX 63 63 4 8
BITMAP
003FFFFFFFFFF800
01FFFFFFFFFFFF00
07FFFFFFFFFFFFC0
0FFC07FFFFE01FE0
1FE000FFFF8007F0
3FC0007FFE0001F8
3F80003FFC0000F8
7F00001FF800007C
7E00000FF000003C
FC000007E000001C
F8000007E000001E
F8000003C000000E
F8000003C000000E
F000000180000006
F000000180000006
F000000180000006
F000000180000006
F000000180000006
F000000180000006
F000000180000006
F000000180000006
F8000003C000000E
F8000003C000000E
F8000007E000001E
FC000007E000001E
FE00000FF000003E
FF00001FF800007E
FF80003FFC0000FE
FFC0007FFE0001FE
FFE000FFFF8007FE
FFFC07FFFFE01FFE
FFFFFFFFFFFFFFFE
FFFFFFFFFFFFFFFE
FFFC07FFFFE01FFE
FFE000FFFF0003FE
FFC0007FFE0001FE
FF00001FF800007E
FE00000FF000003E
FC000007F000003E
FC000007E000001E
F8000003C000000E
F8000003C000000E
F00000018000000E
F000000180000006
F000000180000006
F000000180000006
F000000180000006
F000000180000006
F000000180000006
F00000018000000E
F8000003C000000E
F8000003C000000E
FC000007E000001E
FC000007E000003E
7E00000FF000003C
7F00001FF800007C
3F80003FFE0001F8
3FE000FFFF0003F8
1FFC07FFFFE01FF0
0FFFFFFFFFFFFFE0
07FFFFFFFFFFFFC0
01FFFFFFFFFFFF00
007FFFFFFFFFFC00
ENDCHAR
STARTCHAR 00B8
ENCODING 184
SWIDTH 369 0
DWIDTH 31 0
BBX 32 38 2 -29
BITMAP
00FFFFFF
00FFFFFF
00FFFFFF
00FFFFFF
00F0000F
00F0000F
00F0000F
00F0000F
00F0000F
00F0000F
00F0000F
00F0000F
00F0000F
00F0000F
FFF0000F
FFF0000F
FFF0000F
FFF0000F
F000000F
F000000F
F000000F
F000000F
F000000F
F000000F
F000001F
F000001E
F000001E
F000003E
F000007C
F00000F8
F00001F8
F00003F0
F0000FE0
F0003FC0
FFFFFF80
FFFFFE00
FFFFF800
FFFFC000
ENDCHAR
STARTCHAR 00BA
ENCODING 186
SWIDTH 273 0
DWIDTH 23 0
BBX 63 63 4 8
BITMAP
003FFFFFFFFFF800
01FFFFFFFFFFFF00
07FFFFFFFFFFFFC0
0FFC07FFFFE01FE0
1FE000FFFF8007F0
3FC0007FFE0001F8
3F80003FFC0000F8
7F00001FF800007C
7E00000FF000003C
FC000007E000001C
F8000007E000001E
F8000003C000000E
F8000003C000000E
F000000180000006
F000000180000006
F000000180000006
F000000180000006
F000000180000006
F000000180000006
F000000180000006
F000000180000006
F8000003C000000E
F8000003C000000E
F8000007E000001E
FC000007E000001E
FE00000FF000003E
FF00001FF800007E
FF80003FFC0000FE
FFC0007FFE0001FE
FFE000FFFF8007FE
FFFC07FFFFE01FFE
FFFFFFFFFFFFFFFE
FFFFFFFFFFFFFFFE
FFFC07FFFFE01FFE
FFE000FFFF0003FE
FFC0007FFE0001FE
FF00001FF800007E
FE00000FF000003E
FC000007F000003E
FC000007E000001E
F8000003C000000E
F8000003C000000E
F00000018000000E
F000000180000006
F000000180000006
F000000180000006
F000000180000006
F000000180000006
F000000180000006
F00000018000000E
F8000003C000000E
F8000003C000000E
FC000007E000001E
FC000007E000003E
7E00000FF000003C
7F00001FF800007C
3F80003FFE0001F8
3FE000FFFF0003F8
1FFC07FFFFE01FF0
0FFFFFFFFFFFFFE0
07FFFFFFFFFFFFC0
01FFFFFFFFFFFF00
007FFFFFFFFFFC00
ENDCHAR
STARTCHAR 00BB
ENCODING 187
SWIDTH 273 0
DWIDTH 23 0
BBX 63 63 4 8
BITMAP
003FFFFFFFFFF800
01FFFFFFFFFFFF00
07FFFFFFFFFFFFC0
0FFC07FFFFE01FE0
1FE000FFFF8007F0
3FC0007FFE0001F8
3F80003FFC0000F8
7F00001FF800007C
7E00000FF000003C
FC000007E000001C
F8000007E000001E
F8000003C000000E
F8000003C000000E
F000000180000006
F000000180000006
F000000180000006
F000000180000006
F000000180000006
F000000180000006
F000000180000006
F000000180000006
F8000003C000000E
F8000003C000000E
F8000007E000001E
FC000007E000001E
FE00000FF000003E
FF00001FF800007E
FF80003FFC0000FE
FFC0007FFE0001FE
FFE000FFFF8007FE
FFFC07FFFFE01FFE
FFFFFFFFFFFFFFFE
FFFFFFFFFFFFFFFE
FFFC07FFFFE01FFE
FFE000FFFF0003FE
FFC0007FFE0001FE
FF00001FF800007E
FE00000FF000003E
FC000007F000003E
FC000007E000001E
F8000003C000000E
F8000003C000000E
F00000018000000E
F000000180000006
F000000180000006
F000000180000006
F000000180000006
F000000180000006
F000000180000006
F00000018000000E
F8000003C000000E
F8000003C000000E
FC000007E000001E
FC000007E000003E
7E00000FF000003C
7F00001FF800007C
3F80003FFE0001F8
3FE000FFFF0003F8
1FFC07FFFFE01FF0
0FFFFFFFFFFFFFE0
07FFFFFFFFFFFFC0
01FFFFFFFFFFFF00
007FFFFFFFFFFC00
ENDCHAR
STARTCHAR 00BF
ENCODING 191
SWIDTH 488 0
DWIDTH 41 0
BBX 45 98 0 -12
BITMAP
000007FFFFF8
000007FFFFF8
000007FFFFF8
000007FFFFF8
000007FFFFF8
000007FFFFF8
000007FFFFF8
000007FFFFF8
000007FFFFF8
000007FFFFF8
000007FFFFF8
000007FFFFF8
000007FFFFF8
000007FFFFF8
000007FFFFF8
000007FFFFF8
000007FFFFF8
000007FFFFF8
000007FFFFF8
000007FFFFF8
000007FFFFF8
000007800078
000007800078
000007800078
000007800078
000007800078
000007800078
000007800078
000007800078
000007800078
000007800078
00003F800078
0000FF800078
0003FF800078
000FFF800078
003FFF800078
007FFF800078
01FFFF800078
03FFFFFFFFF8
07FFFFFFFFF8
0FFFFFFFFFF8
1FFFFFFFFFF8
3FFFFFFFFFF8
3FFFFFFFFFF8
7FFFFFFFFFF8
7FFFFFFFFFF8
7FFFFF800078
FFFFFF800078
FFFFFF800078
FFFFFF800078
FFFFFE000078
FFFFF0000078
FFFFC0000078
FFFF00000078
FFFC000000F8
FFF0000000F8
FFE0000000F0
FF80000001F0
FF00000003F0
FE00000003E0
FC00000007E0
FC0000001FC0
F80000003F80
F8000000FF00
F0000001FE00
F0000007FC00
F000000FF800
F000001FE000
F000007FC000
F00001FF0000
F00007FFFFF8
F00007FFFFF8
F00007FFFFF8
F00007FFFFF8
F00007800078
F00007800078
F00007800078
F00007800078
F00000000078
F00000000078
F00000000078
F00000000078
F00000000078
F800000000F8
7800000000F0
7800000000F0
7C00000001F0
3C00000003E0
3E00000003E0
1F00000007C0
0F8000000F80
0FC000003F00
07F000007F00
03FE0003FC00
00FFFFFFF800
007FFFFFF000
001FFFFFC000
0003FFFE0000
ENDCHAR
STARTCHAR 00C0
ENCODING 192
SWIDTH 464 0
DWIDTH 39 0
BBX 44 127 -1 -21
BITMAP
FFFFFFE00000
FFFFFFE00000
7FFFFFF00000
7FFFFFF00000
3E0000780000
3E0000780000
1F00003C0000
1F00003E0000
0F80001E0000
0780001F0000
07C0000F0000
03C0000F8000
03E000078000
01E00007C000
01F00003C000
00F00003E000
00F80001E000
00780000F000
007C0000F000
003E00007800
003E00007C00
001F00003C00
000F00003E00
000F80001E00
000780001F00
0007C0000F00
0003C0000F80
0003FFFFFF80
0001FFFFFFC0
000100000030
000700000010
001F00000010
007FFFFFFFF0
00FF000000F0
01FC000000F0
03F0000000F0
07E0000000F0
0FC0000000F0
0F80000000F0
1F00000000F0
1E00000000F0
3E00000000F0
3C00000000F0
3C00000000F0
3C00000000F0
3C00000000F0
7800000000F0
7800000000F0
7800000000F0
7800070000F0
7800070000F0
7800070000F0
7800070000F0
7800070000F0
7800070000F0
7800070000F0
7800070000F0
7800070000F0
7800070000F0
7800070000F0
7800070000F0
7800070000F0
7800070000F0
7800070000F0
7800070000F0
7800070000F0
7800070000F0
7800070000F0
7800070000F0
7800070000F0
7800070000F0
7800000000F0
7800000000F0
7800000000F0
7800000000F0
7800000000F0
7800000000F0
7800000000F0
7800000000F0
7800000000F0
7800000000F0
7800000000F0
7800000000F0
7800000000F0
7800000000F0
7800000000F0
7800000000F0
7800070000F0
7800070000F0
7800070000F0
7800070000F0
7800070000F0
7800070000F0
7800070000F0
7800070000F0
7800070000F0
7800070000F0
7800070000F0
7800070000F0
7800070000F0
7800070000F0
7800070000F0
7800070000F0
7800070000F0
7800070000F0
7800070000F0
7FFFFFFFFFF0
7FFFFFFFFFF0
7FFFFFFFFFF0
7FFFFFFFFFF0
7FFFFFFFFFF0
7FFFFFFFFFF0
7FFFFFFFFFF0
7FFFFFFFFFF0
7FFFFFFFFFF0
7FFFFFFFFFF0
7FFFFFFFFFF0
7FFFFFFFFFF0
7FFFFFFFFFF0
7FFFFFFFFFF0
7FFFFFFFFFF0
7FFFFFFFFFF0
7FFFFFFFFFF0
7FFFFFFFFFF0
7FFFFFFFFFF0
7FFFFFFFFFF0
7FFFFFFFFFF0
ENDCHAR
STARTCHAR 00C1
ENCODING 193
SWIDTH 464 0
DWIDTH 39 0
BBX 47 127 0 -21
BITMAP
00000FFFFFFE
00001FFFFFFE
00001FFFFFFC
00003FFFFFF8
00003C0000F8
00007C0000F0
0000780001F0
0000F80001E0
0000F00003E0
0001F00007C0
0003E0000780
0003C0000F80
0007C0000F00
000780001F00
000F80001E00
000F00003E00
001F00003C00
001E00007C00
003E0000F800
007C0000F000
00780001F000
00F80001E000
00F00003E000
01F00003C000
01E00007C000
03E000078000
07C0000F8000
07FFFFFF0000
0FFFFFFE0000
0FFFFFFFFFE0
1FFFFFFFFFE0
007FFFFFFFE0
00FFFFFFFFE0
01FE000001E0
03F0000001E0
07E0000001E0
0F80000001E0
1F00000001E0
3E00000001E0
3E00000001E0
7C00000001E0
7800000001E0
7800000001E0
F800000001E0
F000000001E0
F000000001E0
F000000001E0
F000000001E0
F000000001E0
F000000001E0
F0000E0001E0
F0000E0001E0
F0000E0001E0
F0000E0001E0
F0000E0001E0
F0000E0001E0
F0000E0001E0
F0000E0001E0
F0000E0001E0
F0000E0001E0
F0000E0001E0
F0000E0001E0
F0000E0001E0
F0000E0001E0
F0000E0001E0
F0000E0001E0
F0000E0001E0
F0000E0001E0
F0000E0001E0
F0000E0001E0
F0000E0001E0
F000000001E0
F000000001E0
F000000001E0
F000000001E0
F000000001E0
F000000001E0
F000000001E0
F000000001E0
F000000001E0
F000000001E0
F000000001E0
F000000001E0
F000000001E0
F000000001E0
F000000001E0
F000000001E0
F0000E0001E0
F0000E0001E0
F0000E0001E0
F0000E0001E0
F0000E0001E0
F0000E0001E0
F0000E0001E0
F0000E0001E0
F0000E0001E0
F0000E0001E0
F0000E0001E0
F0000E0001E0
F0000E0001E0
F0000E0001E0
F0000E0001E0
F0000E0001E0
F0000E0001E0
F0000E0001E0
F0000E0001E0
FFFFFFFFFFE0
FFFFFFFFFFE0
FFFFFFFFFFE0
FFFFFFFFFFE0
FFFFFFFFFFE0
FFFFFFFFFFE0
FFFFFFFFFFE0
FFFFFFFFFFE0
FFFFFFFFFFE0
FFFFFFFFFFE0
FFFFFFFFFFE0
FFFFFFFFFFE0
FFFFFFFFFFE0
FFFFFFFFFFE0
FFFFFFFFFFE0
FFFFFFFFFFE0
FFFFFFFFFFE0
FFFFFFFFFFE0
FFFFFFFFFFE0
FFFFFFFFFFE0
FFFFFFFFFFE0
ENDCHAR
STARTCHAR 00C2
ENCODING 194
SWIDTH 464 0
DWIDTH 39 0
BBX 71 125 -12 -21
BITMAP
00000007FFC0000000
0000000FFFE0000000
0000001FFFF0000000
0000003FFFF8000000
0000007E00FC000000
000000FC007E000000
000001F8003F000000
000003F0001F800000
000007E0000FC00000
00000FC00007E00000
00001F800003F00000
00003F000001F80000
00007E000000FC0000
0000FC0000007E0000
0001F80000003F0000
0003F00000001F8000
0007E00000000FC000
000FC000000007E000
001F8000000003F000
003F0000000001F800
007E0000000000FC00
00FC00000000007E00
01F800000000003F00
03F000001000001F80
07E000003800000FC0
0FC000007C000007E0
1FFFFFFFFFFFFFFFF0
3FFFFFFFFFFFFFFFF8
7FFFFFFFFFFFFFFFFC
FFFFFFFFFFFFFFFFFE
00000FFFFFFFFE0000
00001FE000001E0000
00003F0000001E0000
00007E0000001E0000
0000F80000001E0000
0001F00000001E0000
0003E00000001E0000
0003E00000001E0000
0007C00000001E0000
0007800000001E0000
0007800000001E0000
000F800000001E0000
000F000000001E0000
000F000000001E0000
000F000000001E0000
000F000000001E0000
000F000000001E0000
000F000000001E0000
000F0000E0001E0000
000F0000E0001E0000
000F0000E0001E0000
000F0000E0001E0000
000F0000E0001E0000
000F0000E0001E0000
000F0000E0001E0000
000F0000E0001E0000
000F0000E0001E0000
000F0000E0001E0000
000F0000E0001E0000
000F0000E0001E0000
000F0000E0001E0000
000F0000E0001E0000
000F0000E0001E0000
000F0000E0001E0000
000F0000E0001E0000
000F0000E0001E0000
000F0000E0001E0000
000F0000E0001E0000
000F0000E0001E0000
000F000000001E0000
000F000000001E0000
000F000000001E0000
000F000000001E0000
000F000000001E0000
000F000000001E0000
000F000000001E0000
000F000000001E0000
000F000000001E0000
000F000000001E0000
000F000000001E0000
000F000000001E0000
000F000000001E0000
000F000000001E0000
000F000000001E0000
000F000000001E0000
000F0000E0001E0000
000F0000E0001E0000
000F0000E0001E0000
000F0000E0001E0000
000F0000E0001E0000
000F0000E0001E0000
000F0000E0001E0000
000F0000E0001E0000
000F0000E0001E0000
000F0000E0001E0000
000F0000E0001E0000
000F0000E0001E0000
000F0000E0001E0000
000F0000E0001E0000
000F0000E0001E0000
000F0000E0001E0000
000F0000E0001E0000
000F0000E0001E0000
000F0000E0001E0000
000FFFFFFFFFFE0000
000FFFFFFFFFFE0000
000FFFFFFFFFFE0000
000FFFFFFFFFFE0000
000FFFFFFFFFFE0000
000FFFFFFFFFFE0000
000FFFFFFFFFFE0000
000FFFFFFFFFFE0000
000FFFFFFFFFFE0000
000FFFFFFFFFFE0000
000FFFFFFFFFFE0000
000FFFFFFFFFFE0000
000FFFFFFFFFFE0000
000FFFFFFFFFFE0000
000FFFFFFFFFFE0000
000FFFFFFFFFFE0000
000FFFFFFFFFFE0000
000FFFFFFFFFFE0000
000FFFFFFFFFFE0000
000FFFFFFFFFFE0000
000FFFFFFFFFFE0000
ENDCHAR
STARTCHAR 00C3
ENCODING 195
SWIDTH 464 0
DWIDTH 39 0
BBX 43 127 0 -21
BITMAP
020000000000
07C003FC0000
07F80FFF8000
07FF3FFFE000
0FFFFFFFF800
0F7FFE03FC00
0F0FF800FE00
0F01E0003E00
0F0000001F00
1E0000000F00
1E0000000F80
1E0000000780
1E0000000780
1E00000007C0
1E00000003C0
1E00000003C0
1E00000003C0
1E00000003C0
1E00000003C0
1F00000003C0
0F00000003C0
0F80000003C0
0F80000003C0
07C000000780
03E0003C0780
03F8007F8780
01FE03FFF780
00FFFFFFFF80
003FFFF7FF00
000FFFFFFFE0
001FFFFFFFE0
007FFFFFFFE0
00FFFFFFFFE0
01FE000001E0
03F0000001E0
07E0000001E0
0F80000001E0
1F00000001E0
3E00000001E0
3E00000001E0
7C00000001E0
7800000001E0
7800000001E0
F800000001E0
F000000001E0
F000000001E0
F000000001E0
F000000001E0
F000000001E0
F000000001E0
F0000E0001E0
F0000E0001E0
F0000E0001E0
F0000E0001E0
F0000E0001E0
F0000E0001E0
F0000E0001E0
F0000E0001E0
F0000E0001E0
F0000E0001E0
F0000E0001E0
F0000E0001E0
F0000E0001E0
F0000E0001E0
F0000E0001E0
F0000E0001E0
F0000E0001E0
F0000E0001E0
F0000E0001E0
F0000E0001E0
F0000E0001E0
F000000001E0
F000000001E0
F000000001E0
F000000001E0
F000000001E0
F000000001E0
F000000001E0
F000000001E0
F000000001E0
F000000001E0
F000000001E0
F000000001E0
F000000001E0
F000000001E0
F000000001E0
F000000001E0
F0000E0001E0
F0000E0001E0
F0000E0001E0
F0000E0001E0
F0000E0001E0
F0000E0001E0
F0000E0001E0
F0000E0001E0
F0000E0001E0
F0000E0001E0
F0000E0001E0
F0000E0001E0
F0000E0001E0
F0000E0001E0
F0000E0001E0
F0000E0001E0
F0000E0001E0
F0000E0001E0
F0000E0001E0
FFFFFFFFFFE0
FFFFFFFFFFE0
FFFFFFFFFFE0
FFFFFFFFFFE0
FFFFFFFFFFE0
FFFFFFFFFFE0
FFFFFFFFFFE0
FFFFFFFFFFE0
FFFFFFFFFFE0
FFFFFFFFFFE0
FFFFFFFFFFE0
FFFFFFFFFFE0
FFFFFFFFFFE0
FFFFFFFFFFE0
FFFFFFFFFFE0
FFFFFFFFFFE0
FFFFFFFFFFE0
FFFFFFFFFFE0
FFFFFFFFFFE0
FFFFFFFFFFE0
FFFFFFFFFFE0
ENDCHAR
STARTCHAR 00C4
ENCODING 196
SWIDTH 464 0
DWIDTH 39 0
BBX 46 123 -2 -21
BITMAP
FFFFFFFFFFFC
FFFFFFFFFFFC
FFFFFFFFFFFC
FFFFFFFFFFFC
F0000FC0003C
F0000FC0003C
F0000FC0003C
F0000FC0003C
F0000FC0003C
F0000FC0003C
F0000FC0003C
F0000FC0003C
F0000FC0003C
F0000FC0003C
F0000FC0003C
F0000FC0003C
F0000FC0003C
F0000FC0003C
F0000FC0003C
F0000FC0003C
F0000FC0003C
F0000FC0003C
F0000FC0003C
FFFFFFFFFFFC
FFFFFFFFFFFC
FFFFFFFFFFFC
FFFFFFFFFFFC
001FFFFFFFF8
003FFFFFFFF8
007F80000078
00FC00000078
01F800000078
03E000000078
07C000000078
0F8000000078
0F8000000078
1F0000000078
1E0000000078
1E0000000078
3E0000000078
3C0000000078
3C0000000078
3C0000000078
3C0000000078
3C0000000078
3C0000000078
3C0003800078
3C0003800078
3C0003800078
3C0003800078
3C0003800078
3C0003800078
3C0003800078
3C0003800078
3C0003800078
3C0003800078
3C0003800078
3C0003800078
3C0003800078
3C0003800078
3C0003800078
3C0003800078
3C0003800078
3C0003800078
3C0003800078
3C0003800078
3C0003800078
3C0000000078
3C0000000078
3C0000000078
3C0000000078
3C0000000078
3C0000000078
3C0000000078
3C0000000078
3C0000000078
3C0000000078
3C0000000078
3C0000000078
3C0000000078
3C0000000078
3C0000000078
3C0000000078
3C0003800078
3C0003800078
3C0003800078
3C0003800078
3C0003800078
3C0003800078
3C0003800078
3C0003800078
3C0003800078
3C0003800078
3C0003800078
3C0003800078
3C0003800078
3C0003800078
3C0003800078
3C0003800078
3C0003800078
3C0003800078
3C0003800078
3FFFFFFFFFF8
3FFFFFFFFFF8
3FFFFFFFFFF8
3FFFFFFFFFF8
3FFFFFFFFFF8
3FFFFFFFFFF8
3FFFFFFFFFF8
3FFFFFFFFFF8
3FFFFFFFFFF8
3FFFFFFFFFF8
3FFFFFFFFFF8
3FFFFFFFFFF8
3FFFFFFFFFF8
3FFFFFFFFFF8
3FFFFFFFFFF8
3FFFFFFFFFF8
3FFFFFFFFFF8
3FFFFFFFFFF8
3FFFFFFFFFF8
3FFFFFFFFFF8
3FFFFFFFFFF8
ENDCHAR
STARTCHAR 00C5
ENCODING 197
SWIDTH 464 0
DWIDTH 39 0
BBX 43 127 0 -21
BITMAP
00003FFC0000
0001FFFF8000
0007FFFFE000
000FFFFFF000
001FC003F800
003F0000FC00
007E00007E00
007C00001E00
00F800001F00
00F000000F00
00F000000F80
01E000000780
01E000000780
01E003800780
01E007800780
01E007800780
01E003800780
01E000000780
01E000000780
01E000000780
00F000000F80
00F000000F00
00F800001F00
007C00001E00
007E00003E00
003F0000FC00
001FC003F800
000FFFFFF000
0007FFFFE000
0003FFFFFFE0
001FFFFFFFE0
007FFFFFFFE0
00FFFFFFFFE0
01FE000001E0
03F0000001E0
07E0000001E0
0F80000001E0
1F00000001E0
3E00000001E0
3E00000001E0
7C00000001E0
7800000001E0
7800000001E0
F800000001E0
F000000001E0
F000000001E0
F000000001E0
F000000001E0
F000000001E0
F000000001E0
F0000E0001E0
F0000E0001E0
F0000E0001E0
F0000E0001E0
F0000E0001E0
F0000E0001E0
F0000E0001E0
F0000E0001E0
F0000E0001E0
F0000E0001E0
F0000E0001E0
F0000E0001E0
F0000E0001E0
F0000E0001E0
F0000E0001E0
F0000E0001E0
F0000E0001E0
F0000E0001E0
F0000E0001E0
F0000E0001E0
F0000E0001E0
F000000001E0
F000000001E0
F000000001E0
F000000001E0
F000000001E0
F000000001E0
F000000001E0
F000000001E0
F000000001E0
F000000001E0
F000000001E0
F000000001E0
F000000001E0
F000000001E0
F000000001E0
F000000001E0
F0000E0001E0
F0000E0001E0
F0000E0001E0
F0000E0001E0
F0000E0001E0
F0000E0001E0
F0000E0001E0
F0000E0001E0
F0000E0001E0
F0000E0001E0
F0000E0001E0
F0000E0001E0
F0000E0001E0
F0000E0001E0
F0000E0001E0
F0000E0001E0
F0000E0001E0
F0000E0001E0
F0000E0001E0
FFFFFFFFFFE0
FFFFFFFFFFE0
FFFFFFFFFFE0
FFFFFFFFFFE0
FFFFFFFFFFE0
FFFFFFFFFFE0
FFFFFFFFFFE0
FFFFFFFFFFE0
FFFFFFFFFFE0
FFFFFFFFFFE0
FFFFFFFFFFE0
FFFFFFFFFFE0
FFFFFFFFFFE0
FFFFFFFFFFE0
FFFFFFFFFFE0
FFFFFFFFFFE0
FFFFFFFFFFE0
FFFFFFFFFFE0
FFFFFFFFFFE0
FFFFFFFFFFE0
FFFFFFFFFFE0
ENDCHAR
STARTCHAR 00C6
ENCODING 198
SWIDTH 750 0
DWIDTH 63 0
BBX 66 103 1 -21
BITMAP
0003FFFE1FFFE00000
001FFFFFFFFFFC0000
007FFFFFFFFFFF0000
00FFFFFFFFFFFFC000
03FE0001E0001FE000
07F00000000003F000
0FC00000000001F800
0F8000000000007C00
1F0000000000003E00
3E0000000000003E00
3C0000000000001F00
7C0000000000000F00
780000000000000F80
F80000000000000780
F00000000000000780
F00000000000000780
F000000000000003C0
F000000000000003C0
F000000000000003C0
F000000000000003C0
F000000000000003C0
F0000F80007C0003C0
F0000F80007C0003C0
F0000F80007C0003C0
F0000F80007C0003C0
F0000F80007C0003C0
F0000F80007C0003C0
F0000F80007C0003C0
F0000F80007C0003C0
F0000F80007C0003C0
F0000F80007C0003C0
F0000F80007C0003C0
F0000F80007C0003C0
F0000F80007C0003C0
F0000F80007C0003C0
F000000000000003C0
F000000000000003C0
F000000000000003C0
F000000000000003C0
F000000000000003C0
F000000000000003C0
F000000000000003C0
F000000000000003C0
F000000000000003C0
F000000000000003C0
F000000000000003C0
F000000000000003C0
F000000000000003C0
F000000000000003C0
F000000000000003C0
F000000000000003C0
F0000F80007FFFFFC0
F0000F80007FFFFFC0
F0000F80007FFFFFC0
F0000F80007FFFFFC0
F0000F80007FFFFFC0
F0000F80007FFFFFC0
F0000F80007FFFFFC0
F0000F80007C0003C0
F0000F80007C0003C0
F0000F80007C0003C0
F0000F80007C0003C0
F0000F80007C0003C0
F0000F80007C0003C0
F0000F80007C0003C0
F0000F80007C0003C0
F0000F8000000003C0
F0000F8000000003C0
F0000F8000000003C0
F0000F8000000003C0
F0000F8000000007C0
F0000F8000000007C0
F0000FC000000007C0
F0000FC00000000FC0
F0000FE00000000FC0
F0000FE00000001FC0
F0000FF00000003FC0
F0000FF80000003FC0
F0000FFC0000007FC0
F0000FFE000001FFC0
F0000FFF800003FFC0
F0000FFFF0001FFFC0
FFFFFFFFFFFFFFFFC0
FFFFFFFFFFFFFFFFC0
FFFFFFFFFFFFFFFFC0
FFFFFFFFFFFFFFFFC0
FFFFFFFFFFFFFFFFC0
FFFFFFFFFFFFFFFF80
FFFFFFFFFFFFFFFF80
FFFFFFFFFFFFFFFF80
FFFFFFFFFFFFFFFF80
FFFFFFFFFFFFFFFF00
FFFFFFFFFFFFFFFF00
FFFFFFFFFFFFFFFE00
FFFFFFFFFFFFFFFE00
FFFFFF7FFFFFFFFC00
FFFFFF7FFFFFFFF800
FFFFFF3FFFFFFFF000
FFFFFF1FFFFFFFE000
FFFFFF0FFFFFFFC000
FFFFFF03FFFFFF0000
FFFFFF00FFFFFC0000
FFFFFF001FFFE00000
ENDCHAR
STARTCHAR 00C7
ENCODING 199
SWIDTH 464 0
DWIDTH 39 0
BBX 43 123 0 -46
BITMAP
0003FFF00000
001FFFFF0000
007FFFFF8000
00FFFFFFE000
01FE000FF000
07F00001F800
07E00000FC00
0F8000003E00
1F0000001F00
3E0000000F00
3C0000000F80
7C0000000780
7800000003C0
7800000003C0
F800000003C0
F000000001E0
F000000001E0
F000000001E0
F000000001E0
F000000001E0
F0000E0001E0
F0000E0001E0
F0000E0001E0
F0000E0001E0
F0000E0001E0
F0000E0001E0
F0000E0001E0
F0000E0001E0
F0000E0001E0
F0000E0001E0
F0000E0001E0
F0000E0001E0
F0000E0001E0
F0000E0001E0
F0000E0001E0
F0000E0001E0
F0000E0001E0
F0000E0001E0
F0000E0001E0
F0000E0001E0
F0000E0001E0
F0000E0001E0
F0000FFFFFE0
F0000FFFFFE0
F0000FFFFFE0
F0000E0001E0
F0000E0001E0
F0000E0001E0
F0000E0001E0
F0000E0001E0
F0000E0001E0
F0000E0001E0
F0000E0001E0
F0000E0001E0
F0000E0001E0
F0000E0001E0
F0000E0001E0
F0000E0001E0
F0000E0001E0
F0000E0001E0
F0000E0001E0
F000000001E0
F000000001E0
F000000001E0
F000000001E0
F000000001E0
F000000003E0
F800000003E0
7800000003E0
7C00000007E0
3C00000007E0
3E0000000FE0
1F0000001FE0
1F8000003FE0
0FC000007FE0
07F00000FFE0
03FC0001FFE0
01FC0001FFE0
00FC0001FFE0
003C0001FFE0
003C0001FFE0
003C0001FFE0
1FFC0001FFE0
1FFC0001FFE0
1FFC0001FFC0
1FFC0001FFC0
1E000001FFC0
1E000001FF80
1E000001FF80
1E000001FF00
1E000001FF00
1E000003FE00
1E000003FC00
1E000003F800
1E000007E000
1E00000FE000
1E00000FE000
1E00001FE000
1E00003FE000
1E0000FFE000
1E0001FFE000
1E000FFFE000
1FFFFFFFE000
1FFFFFFFE000
1FFFFFFFE000
1FFFFFFFE000
1FFFFFFFE000
1FFFFFFFE000
1FFFFFFFC000
1FFFFFFFC000
1FFFFFFFC000
1FFFFFFFC000
1FFFFFFF8000
1FFFFFFF8000
1FFFFFFF0000
1FFFFFFE0000
1FFFFFFC0000
1FFFFFF80000
1FFFFFF00000
1FFFFFE00000
1FFFFFC00000
1FFFFF000000
1FFFF8000000
ENDCHAR
STARTCHAR 00C8
ENCODING 200
SWIDTH 464 0
DWIDTH 39 0
BBX 44 127 -1 -21
BITMAP
FFFFFFE00000
FFFFFFE00000
7FFFFFF00000
7FFFFFF00000
3E0000780000
3E0000780000
1F00003C0000
1F00003E0000
0F80001E0000
0780001F0000
07C0000F0000
03C0000F8000
03E000078000
01E00007C000
01F00003C000
00F00003E000
00F80001E000
00780000F000
007C0000F000
003E00007800
003E00007C00
001F00003C00
000F00003E00
000F80001E00
000780001F00
0007C0000F00
0003C0000F80
0003FFFFFF80
0001FFFFFFC0
00010003FFC0
000700007FE0
001F00001FE0
007FFFFFF000
00FF0007FC00
01FC0000FE00
03F000003F00
07E000001F80
0FC000000F80
0F80000007C0
1F00000003C0
1E00000003E0
3E00000001E0
3C00000001F0
3C00000000F0
3C00000000F0
3C00000000F0
7800000000F0
7800000000F0
7800000000F0
7800070000F0
7800070000F0
7800070000F0
7800070000F0
7800070000F0
7800070000F0
7800070000F0
7800070000F0
7800070000F0
7800070000F0
7800070000F0
7800070000F0
7800070000F0
7800070000F0
7800070000F0
7800070000F0
7800070000F0
7800070000F0
7800070000F0
7800070000F0
7800070000F0
7800070000F0
7800000000F0
7800000000F0
7800000000F0
7800000000F0
7800000000F0
7800000000F0
7800000000F0
7800000000F0
7800000000F0
7800000000F0
7800000000F0
7800000000F0
7800000000F0
7800000000F0
7800000000F0
7800000000F0
780007FFFFF0
780007FFFFF0
780007FFFFF0
7800000000F0
7800000000F0
7800000000F0
7C00000000F0
7C00000000F0
7C00000000F0
7C00000000F0
7E00000000F0
7E00000000F0
7F00000000F0
7F80000000F0
7FC0000000F0
7FE0000000F0
7FF0000000F0
7FFC000000F0
7FFF000000F0
7FFFFFFFFFF0
7FFFFFFFFFF0
7FFFFFFFFFF0
7FFFFFFFFFF0
3FFFFFFFFFF0
3FFFFFFFFFF0
3FFFFFFFFFF0
3FFFFFFFFFF0
3FFFFFFFFFF0
1FFFFFFFFFF0
1FFFFFFFFFF0
0FFFFFFFFFF0
0FFFFFFFFFF0
07FFFFFFFFF0
03FFFFFFFFF0
01FFFFFFFFF0
00FFFFFFFFF0
007FFFFFFFF0
001FFFFFFFF0
0007FFFFFFF0
0000FFFFFFF0
ENDCHAR
STARTCHAR 00C9
ENCODING 201
SWIDTH 464 0
DWIDTH 39 0
BBX 47 127 0 -21
BITMAP
00000FFFFFFE
00001FFFFFFE
00001FFFFFFC
00003FFFFFF8
00003C0000F8
00007C0000F0
0000780001F0
0000F80001E0
0000F00003E0
0001F00007C0
0003E0000780
0003C0000F80
0007C0000F00
000780001F00
000F80001E00
000F00003E00
001F00003C00
001E00007C00
003E0000F800
007C0000F000
00780001F000
00F80001E000
00F00003E000
01F00003C000
01E00007C000
03E000078000
07C0000F8000
07FFFFFF0000
0FFFFFFE0000
0FFFFFFE0000
1FFFFFFF0000
007FFFFFC000
00FFFFFFE000
01FE000FF000
03F00001F800
07E00000FC00
0F8000003E00
1F0000001F00
3E0000000F80
3E0000000F80
7C00000007C0
7800000003C0
7800000003C0
F800000003C0
F000000001E0
F000000001E0
F000000001E0
F000000001E0
F000000001E0
F000000001E0
F0000E0001E0
F0000E0001E0
F0000E0001E0
F0000E0001E0
F0000E0001E0
F0000E0001E0
F0000E0001E0
F0000E0001E0
F0000E0001E0
F0000E0001E0
F0000E0001E0
F0000E0001E0
F0000E0001E0
F0000E0001E0
F0000E0001E0
F0000E0001E0
F0000E0001E0
F0000E0001E0
F0000E0001E0
F0000E0001E0
F0000E0001E0
F000000001E0
F000000001E0
F000000001E0
F000000001E0
F000000001E0
F000000001E0
F000000001E0
F000000001E0
F000000001E0
F000000001E0
F000000001E0
F000000001E0
F000000001E0
F000000001E0
F000000001E0
F000000001E0
F0000FFFFFE0
F0000FFFFFE0
F0000FFFFFE0
F000000001E0
F000000001E0
F000000001E0
F000000001E0
F000000001E0
F800000001E0
F800000001E0
F800000001E0
FC00000001E0
FC00000001E0
FE00000001E0
FF00000001E0
FF80000001E0
FFE0000001E0
FFF0000001E0
FFFE000001E0
FFFFFFFFFFE0
FFFFFFFFFFE0
FFFFFFFFFFE0
FFFFFFFFFFE0
FFFFFFFFFFE0
FFFFFFFFFFE0
FFFFFFFFFFE0
7FFFFFFFFFE0
7FFFFFFFFFE0
7FFFFFFFFFE0
3FFFFFFFFFE0
3FFFFFFFFFE0
1FFFFFFFFFE0
0FFFFFFFFFE0
07FFFFFFFFE0
03FFFFFFFFE0
01FFFFFFFFE0
00FFFFFFFFE0
007FFFFFFFE0
001FFFFFFFE0
0003FFFFFFE0
ENDCHAR
STARTCHAR 00CA
ENCODING 202
SWIDTH 464 0
DWIDTH 39 0
BBX 71 125 -12 -21
BITMAP
00000007FFC0000000
0000000FFFE0000000
0000001FFFF0000000
0000003FFFF8000000
0000007E00FC000000
000000FC007E000000
000001F8003F000000
000003F0001F800000
000007E0000FC00000
00000FC00007E00000
00001F800003F00000
00003F000001F80000
00007E000000FC0000
0000FC0000007E0000
0001F80000003F0000
0003F00000001F8000
0007E00000000FC000
000FC000000007E000
001F8000000003F000
003F0000000001F800
007E0000000000FC00
00FC00000000007E00
01F800000000003F00
03F000001000001F80
07E000003800000FC0
0FC000007C000007E0
1FFFFFFFFFFFFFFFF0
3FFFFFFFFFFFFFFFF8
7FFFFFFFFFFFFFFFFC
FFFFFFFFFFFFFFFFFE
00000FFFFFFE000000
00001FE000FF000000
00003F00001F800000
00007E00000FC00000
0000F8000003E00000
0001F0000001F00000
0003E0000000F80000
0003E0000000F80000
0007C00000007C0000
0007800000003C0000
0007800000003C0000
000F800000003C0000
000F000000001E0000
000F000000001E0000
000F000000001E0000
000F000000001E0000
000F000000001E0000
000F000000001E0000
000F0000E0001E0000
000F0000E0001E0000
000F0000E0001E0000
000F0000E0001E0000
000F0000E0001E0000
000F0000E0001E0000
000F0000E0001E0000
000F0000E0001E0000
000F0000E0001E0000
000F0000E0001E0000
000F0000E0001E0000
000F0000E0001E0000
000F0000E0001E0000
000F0000E0001E0000
000F0000E0001E0000
000F0000E0001E0000
000F0000E0001E0000
000F0000E0001E0000
000F0000E0001E0000
000F0000E0001E0000
000F0000E0001E0000
000F000000001E0000
000F000000001E0000
000F000000001E0000
000F000000001E0000
000F000000001E0000
000F000000001E0000
000F000000001E0000
000F000000001E0000
000F000000001E0000
000F000000001E0000
000F000000001E0000
000F000000001E0000
000F000000001E0000
000F000000001E0000
000F000000001E0000
000F000000001E0000
000F0000FFFFFE0000
000F0000FFFFFE0000
000F0000FFFFFE0000
000F000000001E0000
000F000000001E0000
000F000000001E0000
000F000000001E0000
000F000000001E0000
000F800000001E0000
000F800000001E0000
000F800000001E0000
000FC00000001E0000
000FC00000001E0000
000FE00000001E0000
000FF00000001E0000
000FF80000001E0000
000FFE0000001E0000
000FFF0000001E0000
000FFFE000001E0000
000FFFFFFFFFFE0000
000FFFFFFFFFFE0000
000FFFFFFFFFFE0000
000FFFFFFFFFFE0000
000FFFFFFFFFFE0000
000FFFFFFFFFFE0000
000FFFFFFFFFFE0000
0007FFFFFFFFFE0000
0007FFFFFFFFFE0000
0007FFFFFFFFFE0000
0003FFFFFFFFFE0000
0003FFFFFFFFFE0000
0001FFFFFFFFFE0000
0000FFFFFFFFFE0000
00007FFFFFFFFE0000
00003FFFFFFFFE0000
00001FFFFFFFFE0000
00000FFFFFFFFE0000
000007FFFFFFFE0000
000001FFFFFFFE0000
0000003FFFFFFE0000
ENDCHAR
STARTCHAR 00CB
ENCODING 203
SWIDTH 464 0
DWIDTH 39 0
BBX 50 123 0 -21
BITMAP
0FFFFFFFFFFFC0
0FFFFFFFFFFFC0
0FFFFFFFFFFFC0
0FFFFFFFFFFFC0
0F0000FC0003C0
0F0000FC0003C0
0F0000FC0003C0
0F0000FC0003C0
0F0000FC0003C0
0F0000FC0003C0
0F0000FC0003C0
0F0000FC0003C0
0F0000FC0003C0
0F0000FC0003C0
0F0000FC0003C0
0F0000FC0003C0
0F0000FC0003C0
0F0000FC0003C0
0F0000FC0003C0
0F0000FC0003C0
0F0000FC0003C0
0F0000FC0003C0
0F0000FC0003C0
0FFFFFFFFFFFC0
0FFFFFFFFFFFC0
0FFFFFFFFFFFC0
0FFFFFFFFFFFC0
007FFFFFC00000
00FFFFFFE00000
01FE000FF00000
03F00001F80000
07E00000FC0000
0F8000003E0000
1F0000001F0000
3E0000000F8000
3E0000000F8000
7C00000007C000
7800000003C000
7800000003C000
F800000003C000
F000000001E000
F000000001E000
F000000001E000
F000000001E000
F000000001E000
F000000001E000
F0000E0001E000
F0000E0001E000
F0000E0001E000
F0000E0001E000
F0000E0001E000
F0000E0001E000
F0000E0001E000
F0000E0001E000
F0000E0001E000
F0000E0001E000
F0000E0001E000
F0000E0001E000
F0000E0001E000
F0000E0001E000
F0000E0001E000
F0000E0001E000
F0000E0001E000
F0000E0001E000
F0000E0001E000
F0000E0001E000
F0000E0001E000
F000000001E000
F000000001E000
F000000001E000
F000000001E000
F000000001E000
F000000001E000
F000000001E000
F000000001E000
F000000001E000
F000000001E000
F000000001E000
F000000001E000
F000000001E000
F000000001E000
F000000001E000
F000000001E000
F0000FFFFFE000
F0000FFFFFE000
F0000FFFFFE000
F000000001E000
F000000001E000
F000000001E000
F000000001E000
F000000001E000
F800000001E000
F800000001E000
F800000001E000
FC00000001E000
FC00000001E000
FE00000001E000
FF00000001E000
FF80000001E000
FFE0000001E000
FFF0000001E000
FFFE000001E000
FFFFFFFFFFE000
FFFFFFFFFFE000
FFFFFFFFFFE000
FFFFFFFFFFE000
FFFFFFFFFFE000
FFFFFFFFFFE000
FFFFFFFFFFE000
7FFFFFFFFFE000
7FFFFFFFFFE000
7FFFFFFFFFE000
3FFFFFFFFFE000
3FFFFFFFFFE000
1FFFFFFFFFE000
0FFFFFFFFFE000
07FFFFFFFFE000
03FFFFFFFFE000
01FFFFFFFFE000
00FFFFFFFFE000
007FFFFFFFE000
001FFFFFFFE000
0003FFFFFFE000
ENDCHAR
STARTCHAR 00CC
ENCODING 204
SWIDTH 250 0
DWIDTH 21 0
BBX 44 127 -15 -21
BITMAP
FFFFFFE00000
7FFFFFF00000
7FFFFFF00000
3FFFFFF80000
3E0000780000
1E00007C0000
1F00003E0000
0F00003E0000
0780001F0000
0780000F0000
03C0000F8000
03C000078000
01E00007C000
01F00003C000
00F00003E000
00F80001E000
00780001F000
007C0000F800
003C00007800
001E00007C00
001E00003C00
000F00003E00
000F00001E00
000780001F00
0007C0000F00
0003C0000F80
0003E0000780
0001FFFFFFC0
0001FFFFFFC0
0001000000E0
0001000000F0
0000800000F0
0000FFFFFF00
0000F0000F00
0000F0000F00
0000F0000F00
0000F0000F00
0000F0000F00
0000F0000F00
0000F0000F00
0000F0000F00
0000F0000F00
0000F0000F00
0000F0000F00
0000F0000F00
0000F0000F00
0000F0000F00
0000F0000F00
0000F0000F00
0000F0000F00
0000F0000F00
0000F0000F00
0000F0000F00
0000F0000F00
0000F0000F00
0000F0000F00
0000F0000F00
0000F0000F00
0000F0000F00
0000F0000F00
0000F0000F00
0000F0000F00
0000F0000F00
0000F0000F00
0000F0000F00
0000F0000F00
0000F0000F00
0000F0000F00
0000F0000F00
0000F0000F00
0000F0000F00
0000F0000F00
0000F0000F00
0000F0000F00
0000F0000F00
0000F0000F00
0000F0000F00
0000F0000F00
0000F0000F00
0000F0000F00
0000F0000F00
0000F0000F00
0000F0000F00
0000F0000F00
0000F0000F00
0000F0000F00
0000F0000F00
0000F0000F00
0000F0000F00
0000F0000F00
0000F0000F00
0000F0000F00
0000F0000F00
0000F0000F00
0000F0000F00
0000F0000F00
0000F0000F00
0000F0000F00
0000F0000F00
0000F0000F00
0000F0000F00
0000F0000F00
0000F0000F00
0000F0000F00
0000F0000F00
0000F0000F00
0000FFFFFF00
0000FFFFFF00
0000FFFFFF00
0000FFFFFF00
0000FFFFFF00
0000FFFFFF00
0000FFFFFF00
0000FFFFFF00
0000FFFFFF00
0000FFFFFF00
0000FFFFFF00
0000FFFFFF00
0000FFFFFF00
0000FFFFFF00
0000FFFFFF00
0000FFFFFF00
0000FFFFFF00
0000FFFFFF00
0000FFFFFF00
0000FFFFFF00
0000FFFFFF00
ENDCHAR
STARTCHAR 00CD
ENCODING 205
SWIDTH 238 0
DWIDTH 20 0
BBX 44 127 -5 -21
BITMAP
00007FFFFFF0
0000FFFFFFF0
0000FFFFFFE0
0001FFFFFFC0
0001E00007C0
0003E0000780
0003C0000F80
0007C0000F00
000780001F00
000F80003E00
001F00003C00
001E00007C00
003E00007800
003C0000F800
007C0000F000
00780001F000
00F80001E000
00F00003E000
01F00007C000
03E000078000
03C0000F8000
07C0000F0000
0780001F0000
0F80001E0000
0F00003E0000
1F00003C0000
3E00007C0000
3FFFFFF80000
7FFFFFF00000
7FFFFFF80000
FFFFFFF80000
07FFFFF80000
07FFFFF80000
078000780000
078000780000
078000780000
078000780000
078000780000
078000780000
078000780000
078000780000
078000780000
078000780000
078000780000
078000780000
078000780000
078000780000
078000780000
078000780000
078000780000
078000780000
078000780000
078000780000
078000780000
078000780000
078000780000
078000780000
078000780000
078000780000
078000780000
078000780000
078000780000
078000780000
078000780000
078000780000
078000780000
078000780000
078000780000
078000780000
078000780000
078000780000
078000780000
078000780000
078000780000
078000780000
078000780000
078000780000
078000780000
078000780000
078000780000
078000780000
078000780000
078000780000
078000780000
078000780000
078000780000
078000780000
078000780000
078000780000
078000780000
078000780000
078000780000
078000780000
078000780000
078000780000
078000780000
078000780000
078000780000
078000780000
078000780000
078000780000
078000780000
078000780000
078000780000
078000780000
078000780000
07FFFFF80000
07FFFFF80000
07FFFFF80000
07FFFFF80000
07FFFFF80000
07FFFFF80000
07FFFFF80000
07FFFFF80000
07FFFFF80000
07FFFFF80000
07FFFFF80000
07FFFFF80000
07FFFFF80000
07FFFFF80000
07FFFFF80000
07FFFFF80000
07FFFFF80000
07FFFFF80000
07FFFFF80000
07FFFFF80000
07FFFFF80000
ENDCHAR
STARTCHAR 00CE
ENCODING 206
SWIDTH 238 0
DWIDTH 20 0
BBX 71 125 -22 -21
BITMAP
00000007FFC0000000
0000000FFFE0000000
0000001FFFF0000000
0000003FFFF8000000
0000007E00FC000000
000000FC007E000000
000001F8003F000000
000003F0001F800000
000007E0000FC00000
00000FC00007E00000
00001F800003F00000
00003F000001F80000
00007E000000FC0000
0000FC0000007E0000
0001F80000003F0000
0003F00000001F8000
0007E00000000FC000
000FC000000007E000
001F8000000003F000
003F0000000001F800
007E0000000000FC00
00FC00000000007E00
01F800000000003F00
03F000001000001F80
07E000003800000FC0
0FC000007C000007E0
1FFFFFFFFFFFFFFFF0
3FFFFFFFFFFFFFFFF8
7FFFFFFFFFFFFFFFFC
FFFFFFFFFFFFFFFFFE
000003FFFFFC000000
000003C0003C000000
000003C0003C000000
000003C0003C000000
000003C0003C000000
000003C0003C000000
000003C0003C000000
000003C0003C000000
000003C0003C000000
000003C0003C000000
000003C0003C000000
000003C0003C000000
000003C0003C000000
000003C0003C000000
000003C0003C000000
000003C0003C000000
000003C0003C000000
000003C0003C000000
000003C0003C000000
000003C0003C000000
000003C0003C000000
000003C0003C000000
000003C0003C000000
000003C0003C000000
000003C0003C000000
000003C0003C000000
000003C0003C000000
000003C0003C000000
000003C0003C000000
000003C0003C000000
000003C0003C000000
000003C0003C000000
000003C0003C000000
000003C0003C000000
000003C0003C000000
000003C0003C000000
000003C0003C000000
000003C0003C000000
000003C0003C000000
000003C0003C000000
000003C0003C000000
000003C0003C000000
000003C0003C000000
000003C0003C000000
000003C0003C000000
000003C0003C000000
000003C0003C000000
000003C0003C000000
000003C0003C000000
000003C0003C000000
000003C0003C000000
000003C0003C000000
000003C0003C000000
000003C0003C000000
000003C0003C000000
000003C0003C000000
000003C0003C000000
000003C0003C000000
000003C0003C000000
000003C0003C000000
000003C0003C000000
000003C0003C000000
000003C0003C000000
000003C0003C000000
000003C0003C000000
000003C0003C000000
000003C0003C000000
000003C0003C000000
000003C0003C000000
000003C0003C000000
000003C0003C000000
000003C0003C000000
000003C0003C000000
000003C0003C000000
000003FFFFFC000000
000003FFFFFC000000
000003FFFFFC000000
000003FFFFFC000000
000003FFFFFC000000
000003FFFFFC000000
000003FFFFFC000000
000003FFFFFC000000
000003FFFFFC000000
000003FFFFFC000000
000003FFFFFC000000
000003FFFFFC000000
000003FFFFFC000000
000003FFFFFC000000
000003FFFFFC000000
000003FFFFFC000000
000003FFFFFC000000
000003FFFFFC000000
000003FFFFFC000000
000003FFFFFC000000
000003FFFFFC000000
ENDCHAR
STARTCHAR 00CF
ENCODING 207
SWIDTH 238 0
DWIDTH 20 0
BBX 46 123 -11 -21
BITMAP
FFFFFFFFFFFC
FFFFFFFFFFFC
FFFFFFFFFFFC
FFFFFFFFFFFC
F0000FC0003C
F0000FC0003C
F0000FC0003C
F0000FC0003C
F0000FC0003C
F0000FC0003C
F0000FC0003C
F0000FC0003C
F0000FC0003C
F0000FC0003C
F0000FC0003C
F0000FC0003C
F0000FC0003C
F0000FC0003C
F0000FC0003C
F0000FC0003C
F0000FC0003C
F0000FC0003C
F0000FC0003C
FFFFFFFFFFFC
FFFFFFFFFFFC
FFFFFFFFFFFC
FFFFFFFFFFFC
001FFFFFE000
001FFFFFE000
001E0001E000
001E0001E000
001E0001E000
001E0001E000
001E0001E000
001E0001E000
001E0001E000
001E0001E000
001E0001E000
001E0001E000
001E0001E000
001E0001E000
001E0001E000
001E0001E000
001E0001E000
001E0001E000
001E0001E000
001E0001E000
001E0001E000
001E0001E000
001E0001E000
001E0001E000
001E0001E000
001E0001E000
001E0001E000
001E0001E000
001E0001E000
001E0001E000
001E0001E000
001E0001E000
001E0001E000
001E0001E000
001E0001E000
001E0001E000
001E0001E000
001E0001E000
001E0001E000
001E0001E000
001E0001E000
001E0001E000
001E0001E000
001E0001E000
001E0001E000
001E0001E000
001E0001E000
001E0001E000
001E0001E000
001E0001E000
001E0001E000
001E0001E000
001E0001E000
001E0001E000
001E0001E000
001E0001E000
001E0001E000
001E0001E000
001E0001E000
001E0001E000
001E0001E000
001E0001E000
001E0001E000
001E0001E000
001E0001E000
001E0001E000
001E0001E000
001E0001E000
001E0001E000
001E0001E000
001E0001E000
001E0001E000
001E0001E000
001E0001E000
001E0001E000
001FFFFFE000
001FFFFFE000
001FFFFFE000
001FFFFFE000
001FFFFFE000
001FFFFFE000
001FFFFFE000
001FFFFFE000
001FFFFFE000
001FFFFFE000
001FFFFFE000
001FFFFFE000
001FFFFFE000
001FFFFFE000
001FFFFFE000
001FFFFFE000
001FFFFFE000
001FFFFFE000
001FFFFFE000
001FFFFFE000
001FFFFFE000
ENDCHAR
STARTCHAR 00D0
ENCODING 208
SWIDTH 273 0
DWIDTH 23 0
BBX 63 63 4 8
BITMAP
003FFFFFFFFFF800
01FFFFFFFFFFFF00
07FFFFFFFFFFFFC0
0FFC07FFFFE01FE0
1FE000FFFF8007F0
3FC0007FFE0001F8
3F80003FFC0000F8
7F00001FF800007C
7E00000FF000003C
FC000007E000001C
F8000007E000001E
F8000003C000000E
F8000003C000000E
F000000180000006
F000000180000006
F000000180000006
F000000180000006
F000000180000006
F000000180000006
F000000180000006
F000000180000006
F8000003C000000E
F8000003C000000E
F8000007E000001E
FC000007E000001E
FE00000FF000003E
FF00001FF800007E
FF80003FFC0000FE
FFC0007FFE0001FE
FFE000FFFF8007FE
FFFC07FFFFE01FFE
FFFFFFFFFFFFFFFE
FFFFFFFFFFFFFFFE
FFFC07FFFFE01FFE
FFE000FFFF0003FE
FFC0007FFE0001FE
FF00001FF800007E
FE00000FF000003E
FC000007F000003E
FC000007E000001E
F8000003C000000E
F8000003C000000E
F00000018000000E
F000000180000006
F000000180000006
F000000180000006
F000000180000006
F000000180000006
F000000180000006
F00000018000000E
F8000003C000000E
F8000003C000000E
FC000007E000001E
FC000007E000003E
7E00000FF000003C
7F00001FF800007C
3F80003FFE0001F8
3FE000FFFF0003F8
1FFC07FFFFE01FF0
0FFFFFFFFFFFFFE0
07FFFFFFFFFFFFC0
01FFFFFFFFFFFF00
007FFFFFFFFFFC00
ENDCHAR
STARTCHAR 00D1
ENCODING 209
SWIDTH 464 0
DWIDTH 39 0
BBX 43 127 0 -21
BITMAP
020000000000
07C003FC0000
07F80FFF8000
07FF3FFFE000
0FFFFFFFF800
0F7FFE03FC00
0F0FF800FE00
0F01E0003E00
0F0000001F00
1E0000000F00
1E0000000F80
1E0000000780
1E0000000780
1E00000007C0
1E00000003C0
1E00000003C0
1E00000003C0
1E00000003C0
1E00000003C0
1F00000003C0
0F00000003C0
0F80000003C0
0F80000003C0
07C000000780
03E0003C0780
03F8007F8780
01FE03FFF780
00FFFFFFFF80
003FFFF7FF00
000FFFF0FF00
001FFFFF1F00
007FFFFFC200
00FFFFFFE000
01FE000FF000
03F00001F800
07E00000FC00
0F8000003E00
1F0000001F00
3E0000000F80
3E0000000F80
7C00000007C0
7800000003C0
7800000003C0
F800000003C0
F000000001E0
F000000001E0
F000000001E0
F000000001E0
F000000001E0
F0000E0001E0
F0000E0001E0
F0000E0001E0
F0000E0001E0
F0000E0001E0
F0000E0001E0
F0000E0001E0
F0000E0001E0
F0000E0001E0
F0000E0001E0
F0000E0001E0
F0000E0001E0
F0000E0001E0
F0000E0001E0
F0000E0001E0
F0000E0001E0
F0000E0001E0
F0000E0001E0
F0000E0001E0
F0000E0001E0
F0000E0001E0
F0000E0001E0
F0000E0001E0
F0000E0001E0
F0000E0001E0
F0000E0001E0
F0000E0001E0
F0000E0001E0
F0000E0001E0
F0000E0001E0
F0000E0001E0
F0000E0001E0
F0000E0001E0
F0000E0001E0
F0000E0001E0
F0000E0001E0
F0000E0001E0
F0000E0001E0
F0000E0001E0
F0000E0001E0
F0000E0001E0
F0000E0001E0
F0000E0001E0
F0000E0001E0
F0000E0001E0
F0000E0001E0
F0000E0001E0
F0000E0001E0
F0000E0001E0
F0000E0001E0
F0000E0001E0
F0000E0001E0
F0000E0001E0
F0000E0001E0
F0000E0001E0
F0000E0001E0
F0000E0001E0
FFFFFFFFFFE0
FFFFFFFFFFE0
FFFFFFFFFFE0
FFFFFFFFFFE0
FFFFFFFFFFE0
FFFFFFFFFFE0
FFFFFFFFFFE0
FFFFFFFFFFE0
FFFFFFFFFFE0
FFFFFFFFFFE0
FFFFFFFFFFE0
FFFFFFFFFFE0
FFFFFFFFFFE0
FFFFFFFFFFE0
FFFFFFFFFFE0
FFFFFFFFFFE0
FFFFFFFFFFE0
FFFFFFFFFFE0
FFFFFFFFFFE0
FFFFFFFFFFE0
FFFFFFFFFFE0
ENDCHAR
STARTCHAR 00D2
ENCODING 210
SWIDTH 464 0
DWIDTH 39 0
BBX 46 127 -3 -21
BITMAP
FFFFFFE00000
7FFFFFF00000
7FFFFFF00000
3FFFFFF80000
3C0000780000
1E00007C0000
1E00003C0000
0F00003E0000
0F00001E0000
0780001F0000
07C0000F0000
03C0000F8000
03E00007C000
01E00007C000
00F00003E000
00F00001E000
00780001F000
00780000F000
003C0000F800
003E00007800
001E00007C00
001F00003C00
000F00003E00
000F80001E00
000780000F00
0007C0000F80
0003C0000780
0001FFFFFFC0
0001FFFFFFC0
00008001FFE0
000300003FE0
000F80000FF0
001FFFFFFC00
007FC001FE00
00FE00007F00
01F800001F80
03F000000FC0
03E0000007E0
07C0000003E0
0780000001F0
0F80000000F0
0F00000000F8
1F0000000078
1E0000000078
1E0000000078
1E000000003C
1E000000003C
1E000000003C
1E000000003C
1E0001C0003C
1E0001C0003C
1E0001C0003C
1E0001C0003C
1E0001C0003C
1E0001C0003C
1E0001C0003C
1E0001C0003C
1E0001C0003C
1E0001C0003C
1E0001C0003C
1E0001C0003C
1E0001C0003C
1E0001C0003C
1E0001C0003C
1E0001C0003C
1E0001C0003C
1E0001C0003C
1E0001C0003C
1E0001C0003C
1E0001C0003C
1E0001C0003C
1E0001C0003C
1E0001C0003C
1E0001C0003C
1E0001C0003C
1E0001C0003C
1E0001C0003C
1E0001C0003C
1E0001C0003C
1E0001C0003C
1E0001C0003C
1E0001C0003C
1E0001C0003C
1E0001C0003C
1E0001C0003C
1E0001C0003C
1E0001C0003C
1E0001C0003C
1E0001C0003C
1E0001C0003C
1E000000003C
1E000000003C
1E000000003C
1E000000003C
1E000000007C
1E000000007C
1F000000007C
1F00000000FC
1F80000000FC
1F80000001FC
1FC0000003FC
1FE0000003FC
1FF000000FFC
1FF800001FFC
1FFE00007FFC
1FFFC001FFFC
1FFFFFFFFFFC
1FFFFFFFFFFC
1FFFFFFFFFFC
1FFFFFFFFFFC
1FFFFFFFFFFC
1FFFFFFFFFF8
1FFFFFFFFFF8
1FFFFFFFFFF8
0FFFFFFFFFF8
0FFFFFFFFFF0
07FFFFFFFFF0
07FFFFFFFFE0
03FFFFFFFFE0
03FFFFFFFFC0
01FFFFFFFF80
00FFFFFFFF00
007FFFFFFE00
001FFFFFFC00
000FFFFFF000
0003FFFFC000
00007FFE0000
ENDCHAR
STARTCHAR 00D3
ENCODING 211
SWIDTH 464 0
DWIDTH 39 0
BBX 47 127 0 -21
BITMAP
00000FFFFFFE
00001FFFFFFE
00001FFFFFFC
00003FFFFFF8
00003C0000F8
00007C0000F0
0000780001F0
0000F80001E0
0000F00003E0
0001F00007C0
0003E0000780
0003C0000F80
0007C0000F00
000780001F00
000F80001E00
000F00003E00
001F00003C00
001E00007C00
003E0000F800
007C0000F000
00780001F000
00F80001E000
00F00003E000
01F00003C000
01E00007C000
03E000078000
07C0000F8000
07FFFFFF0000
0FFFFFFE0000
0FFFFFFE0000
1FFFFFFF0000
007FFFFFC000
00FFFFFFE000
01FE000FF000
03F00001F800
07E00000FC00
0F8000003E00
1F0000001F00
3E0000000F80
3E0000000F80
7C00000007C0
7800000003C0
7800000003C0
F800000003C0
F000000001E0
F000000001E0
F000000001E0
F000000001E0
F000000001E0
F000000001E0
F0000E0001E0
F0000E0001E0
F0000E0001E0
F0000E0001E0
F0000E0001E0
F0000E0001E0
F0000E0001E0
F0000E0001E0
F0000E0001E0
F0000E0001E0
F0000E0001E0
F0000E0001E0
F0000E0001E0
F0000E0001E0
F0000E0001E0
F0000E0001E0
F0000E0001E0
F0000E0001E0
F0000E0001E0
F0000E0001E0
F0000E0001E0
F0000E0001E0
F0000E0001E0
F0000E0001E0
F0000E0001E0
F0000E0001E0
F0000E0001E0
F0000E0001E0
F0000E0001E0
F0000E0001E0
F0000E0001E0
F0000E0001E0
F0000E0001E0
F0000E0001E0
F0000E0001E0
F0000E0001E0
F0000E0001E0
F0000E0001E0
F0000E0001E0
F0000E0001E0
F000000001E0
F000000001E0
F000000001E0
F000000001E0
F000000001E0
F800000003E0
F800000003E0
F800000003E0
FC00000007E0
FC0000000FE0
FE0000000FE0
FF0000001FE0
FF8000003FE0
FFE00000FFE0
FFF00001FFE0
FFFE000FFFE0
FFFFFFFFFFE0
FFFFFFFFFFE0
FFFFFFFFFFE0
FFFFFFFFFFE0
FFFFFFFFFFE0
FFFFFFFFFFE0
FFFFFFFFFFE0
7FFFFFFFFFC0
7FFFFFFFFFC0
7FFFFFFFFFC0
3FFFFFFFFF80
3FFFFFFFFF80
1FFFFFFFFF00
0FFFFFFFFE00
07FFFFFFFC00
03FFFFFFF800
01FFFFFFF000
00FFFFFFE000
007FFFFFC000
001FFFFF0000
0003FFF80000
ENDCHAR
STARTCHAR 00D4
ENCODING 212
SWIDTH 464 0
DWIDTH 39 0
BBX 71 125 -12 -21
BITMAP
00000007FFC0000000
0000000FFFE0000000
0000001FFFF0000000
0000003FFFF8000000
0000007E00FC000000
000000FC007E000000
000001F8003F000000
000003F0001F800000
000007E0000FC00000
00000FC00007E00000
00001F800003F00000
00003F000001F80000
00007E000000FC0000
0000FC0000007E0000
0001F80000003F0000
0003F00000001F8000
0007E00000000FC000
000FC000000007E000
001F8000000003F000
003F0000000001F800
007E0000000000FC00
00FC00000000007E00
01F800000000003F00
03F000001000001F80
07E000003800000FC0
0FC000007C000007E0
1FFFFFFFFFFFFFFFF0
3FFFFFFFFFFFFFFFF8
7FFFFFFFFFFFFFFFFC
FFFFFFFFFFFFFFFFFE
00000FFFFFFE000000
00001FE000FF000000
00003F00001F800000
00007E00000FC00000
0000F8000003E00000
0001F0000001F00000
0003E0000000F80000
0003E0000000F80000
0007C00000007C0000
0007800000003C0000
0007800000003C0000
000F800000003C0000
000F000000001E0000
000F000000001E0000
000F000000001E0000
000F000000001E0000
000F000000001E0000
000F000000001E0000
000F0000E0001E0000
000F0000E0001E0000
000F0000E0001E0000
000F0000E0001E0000
000F0000E0001E0000
000F0000E0001E0000
000F0000E0001E0000
000F0000E0001E0000
000F0000E0001E0000
000F0000E0001E0000
000F0000E0001E0000
000F0000E0001E0000
000F0000E0001E0000
000F0000E0001E0000
000F0000E0001E0000
000F0000E0001E0000
000F0000E0001E0000
000F0000E0001E0000
000F0000E0001E0000
000F0000E0001E0000
000F0000E0001E0000
000F0000E0001E0000
000F0000E0001E0000
000F0000E0001E0000
000F0000E0001E0000
000F0000E0001E0000
000F0000E0001E0000
000F0000E0001E0000
000F0000E0001E0000
000F0000E0001E0000
000F0000E0001E0000
000F0000E0001E0000
000F0000E0001E0000
000F0000E0001E0000
000F0000E0001E0000
000F0000E0001E0000
000F0000E0001E0000
000F0000E0001E0000
000F0000E0001E0000
000F0000E0001E0000
000F000000001E0000
000F000000001E0000
000F000000001E0000
000F000000001E0000
000F000000001E0000
000F800000003E0000
000F800000003E0000
000F800000003E0000
000FC00000007E0000
000FC0000000FE0000
000FE0000000FE0000
000FF0000001FE0000
000FF8000003FE0000
000FFE00000FFE0000
000FFF00001FFE0000
000FFFE000FFFE0000
000FFFFFFFFFFE0000
000FFFFFFFFFFE0000
000FFFFFFFFFFE0000
000FFFFFFFFFFE0000
000FFFFFFFFFFE0000
000FFFFFFFFFFE0000
000FFFFFFFFFFE0000
0007FFFFFFFFFC0000
0007FFFFFFFFFC0000
0007FFFFFFFFFC0000
0003FFFFFFFFF80000
0003FFFFFFFFF80000
0001FFFFFFFFF00000
0000FFFFFFFFE00000
00007FFFFFFFC00000
00003FFFFFFF800000
00001FFFFFFF000000
00000FFFFFFE000000
000007FFFFFC000000
000001FFFFF0000000
0000003FFF80000000
ENDCHAR
STARTCHAR 00D5
ENCODING 213
SWIDTH 464 0
DWIDTH 39 0
BBX 43 127 0 -21
BITMAP
020000000000
07C003FC0000
07F80FFF8000
07FF3FFFE000
0FFFFFFFF800
0F7FFE03FC00
0F0FF800FE00
0F01E0003E00
0F0000001F00
1E0000000F00
1E0000000F80
1E0000000780
1E0000000780
1E00000007C0
1E00000003C0
1E00000003C0
1E00000003C0
1E00000003C0
1E00000003C0
1F00000003C0
0F00000003C0
0F80000003C0
0F80000003C0
07C000000780
03E0003C0780
03F8007F8780
01FE03FFF780
00FFFFFFFF80
003FFFF7FF00
000FFFF0FF00
001FFFFF1F00
007FFFFFC200
00FFFFFFE000
01FE000FF000
03F00001F800
07E00000FC00
0F8000003E00
1F0000001F00
3E0000000F80
3E0000000F80
7C00000007C0
7800000003C0
7800000003C0
F800000003C0
F000000001E0
F000000001E0
F000000001E0
F000000001E0
F000000001E0
F000000001E0
F0000E0001E0
F0000E0001E0
F0000E0001E0
F0000E0001E0
F0000E0001E0
F0000E0001E0
F0000E0001E0
F0000E0001E0
F0000E0001E0
F0000E0001E0
F0000E0001E0
F0000E0001E0
F0000E0001E0
F0000E0001E0
F0000E0001E0
F0000E0001E0
F0000E0001E0
F0000E0001E0
F0000E0001E0
F0000E0001E0
F0000E0001E0
F0000E0001E0
F0000E0001E0
F0000E0001E0
F0000E0001E0
F0000E0001E0
F0000E0001E0
F0000E0001E0
F0000E0001E0
F0000E0001E0
F0000E0001E0
F0000E0001E0
F0000E0001E0
F0000E0001E0
F0000E0001E0
F0000E0001E0
F0000E0001E0
F0000E0001E0
F0000E0001E0
F0000E0001E0
F000000001E0
F000000001E0
F000000001E0
F000000001E0
F000000001E0
F800000003E0
F800000003E0
F800000003E0
FC00000007E0
FC0000000FE0
FE0000000FE0
FF0000001FE0
FF8000003FE0
FFE00000FFE0
FFF00001FFE0
FFFE000FFFE0
FFFFFFFFFFE0
FFFFFFFFFFE0
FFFFFFFFFFE0
FFFFFFFFFFE0
FFFFFFFFFFE0
FFFFFFFFFFE0
FFFFFFFFFFE0
7FFFFFFFFFC0
7FFFFFFFFFC0
7FFFFFFFFFC0
3FFFFFFFFF80
3FFFFFFFFF80
1FFFFFFFFF00
0FFFFFFFFE00
07FFFFFFFC00
03FFFFFFF800
01FFFFFFF000
00FFFFFFE000
007FFFFFC000
001FFFFF0000
0003FFF80000
ENDCHAR
STARTCHAR 00D6
ENCODING 214
SWIDTH 464 0
DWIDTH 39 0
BBX 46 123 -1 -21
BITMAP
FFFFFFFFFFFC
FFFFFFFFFFFC
FFFFFFFFFFFC
FFFFFFFFFFFC
F0000FC0003C
F0000FC0003C
F0000FC0003C
F0000FC0003C
F0000FC0003C
F0000FC0003C
F0000FC0003C
F0000FC0003C
F0000FC0003C
F0000FC0003C
F0000FC0003C
F0000FC0003C
F0000FC0003C
F0000FC0003C
F0000FC0003C
F0000FC0003C
F0000FC0003C
F0000FC0003C
F0000FC0003C
FFFFFFFFFFFC
FFFFFFFFFFFC
FFFFFFFFFFFC
FFFFFFFFFFFC
003FFFFFE000
007FFFFFF000
00FF0007F800
01F80000FC00
03F000007E00
07C000001F00
0F8000000F80
1F00000007C0
1F00000007C0
3E00000003E0
3C00000001E0
3C00000001E0
7C00000001E0
7800000000F0
7800000000F0
7800000000F0
7800000000F0
7800000000F0
7800000000F0
7800070000F0
7800070000F0
7800070000F0
7800070000F0
7800070000F0
7800070000F0
7800070000F0
7800070000F0
7800070000F0
7800070000F0
7800070000F0
7800070000F0
7800070000F0
7800070000F0
7800070000F0
7800070000F0
7800070000F0
7800070000F0
7800070000F0
7800070000F0
7800070000F0
7800070000F0
7800070000F0
7800070000F0
7800070000F0
7800070000F0
7800070000F0
7800070000F0
7800070000F0
7800070000F0
7800070000F0
7800070000F0
7800070000F0
7800070000F0
7800070000F0
7800070000F0
7800070000F0
7800070000F0
7800070000F0
7800070000F0
7800000000F0
7800000000F0
7800000000F0
7800000000F0
7800000000F0
7C00000001F0
7C00000001F0
7C00000001F0
7E00000003F0
7E00000007F0
7F00000007F0
7F8000000FF0
7FC000001FF0
7FF000007FF0
7FF80000FFF0
7FFF0007FFF0
7FFFFFFFFFF0
7FFFFFFFFFF0
7FFFFFFFFFF0
7FFFFFFFFFF0
7FFFFFFFFFF0
7FFFFFFFFFF0
7FFFFFFFFFF0
3FFFFFFFFFE0
3FFFFFFFFFE0
3FFFFFFFFFE0
1FFFFFFFFFC0
1FFFFFFFFFC0
0FFFFFFFFF80
07FFFFFFFF00
03FFFFFFFE00
01FFFFFFFC00
00FFFFFFF800
007FFFFFF000
003FFFFFE000
000FFFFF8000
0001FFFC0000
ENDCHAR
STARTCHAR 00D8
ENCODING 216
SWIDTH 488 0
DWIDTH 41 0
BBX 45 103 0 -21
BITMAP
0003FFFC0000
001FFFFFC000
007FFFFFF000
00FFFFFFF800
03FE0003FC00
07F000007E00
07C000003F00
0F8000000F80
1F00000007C0
3E00000003C0
3C00000003E0
7C00000001E0
7800000000F0
7800000000F0
F800000000F0
F00000000078
F00000000078
F00000000078
F00000000078
F00000000078
F00000000078
F0000C000078
F00008000078
F00008000078
F00000000078
F00000000078
F00000000078
F00000000078
F00000000078
F00000000078
F00000000078
F00000000078
F00000000078
F00000000078
F00000000078
F00000000078
F00000000078
F00000000078
F00000000078
F00000000078
F00000000078
F00000000078
F00000000078
F00000000078
F00000000078
F00000000078
F00000000078
F00000000078
F00000000078
F00000000078
F00000000078
F00000000078
F00000000078
F00000000078
F00000000078
F00000000078
F00000000078
F00000000078
F00000000078
F00000000078
F00000000078
F00000800078
F00000800078
F00000800078
F00000800078
F00001800078
F00000000078
F00000000078
F00000000078
F00000000078
F00000000078
F000000000F8
F800000000F8
F800000000F8
FC00000001F8
FC00000003F8
FE00000003F8
FF00000007F8
FF8000000FF8
FFC000003FF8
FFF000007FF8
FFFE0003FFF8
FFFFFFFFFFF8
FFFFFFFFFFF8
FFFFFFFFFFF8
FFFFFFFFFFF8
FFFFFFFFFFF8
FFFFFFFFFFF8
FFFFFFFFFFF0
7FFFFFFFFFF0
7FFFFFFFFFF0
7FFFFFFFFFF0
3FFFFFFFFFE0
3FFFFFFFFFE0
1FFFFFFFFFC0
0FFFFFFFFF80
0FFFFFFFFF00
07FFFFFFFE00
03FFFFFFFC00
00FFFFFFF800
007FFFFFF000
001FFFFFC000
0003FFFE0000
ENDCHAR
STARTCHAR 00D9
ENCODING 217
SWIDTH 464 0
DWIDTH 39 0
BBX 48 127 -5 -21
BITMAP
FFFFFFE00000
7FFFFFF00000
7FFFFFF00000
3FFFFFF80000
3E00007C0000
1E00007C0000
0F00003E0000
0F00003E0000
0780001F0000
0780000F0000
03C0000F8000
03C000078000
01E00007C000
01F00003C000
00F00003E000
00F80001E000
00780001F000
007C0000F800
003C00007800
001E00007C00
001E00003C00
000F00003E00
000F80001E00
000780001F00
0007C0000F00
0003C0000F80
0003E0000780
0001FFFFFFC0
0001FFFFFFE0
07FF0000001F
07FF8000000F
07FF8000000F
07FFFFFFFFFF
07800070000F
07800070000F
07800070000F
07800070000F
07800070000F
07800070000F
07800070000F
07800070000F
07800070000F
07800070000F
07800070000F
07800070000F
07800070000F
07800070000F
07800070000F
07800070000F
07800070000F
07800070000F
07800070000F
07800070000F
07800070000F
07800070000F
07800070000F
07800070000F
07800070000F
07800070000F
07800070000F
07800070000F
07800070000F
07800070000F
07800070000F
07800070000F
07800070000F
07800070000F
07800070000F
07800070000F
07800070000F
07800070000F
07800070000F
07800070000F
07800070000F
07800070000F
07800070000F
07800070000F
07800070000F
07800070000F
07800070000F
07800070000F
07800070000F
07800070000F
07800070000F
07800070000F
07800070000F
07800070000F
07800070000F
07800070000F
07800070000F
07800000000F
07800000000F
07800000000F
07800000000F
07800000000F
07C00000001F
07C00000001F
07C00000001F
07E00000003F
07F00000003F
07F00000007F
07F8000000FF
07FC000001FF
07FF000007FF
07FF80000FFF
07FFF0007FFF
07FFFFFFFFFF
07FFFFFFFFFF
07FFFFFFFFFF
07FFFFFFFFFF
07FFFFFFFFFF
07FFFFFFFFFF
07FFFFFFFFFF
03FFFFFFFFFE
03FFFFFFFFFE
03FFFFFFFFFE
01FFFFFFFFFC
01FFFFFFFFFC
00FFFFFFFFF8
007FFFFFFFF0
003FFFFFFFE0
001FFFFFFFC0
000FFFFFFF80
0007FFFFFF00
0003FFFFFE00
0000FFFFF800
00001FFFC000
ENDCHAR
STARTCHAR 00DA
ENCODING 218
SWIDTH 464 0
DWIDTH 39 0
BBX 47 127 0 -21
BITMAP
00000FFFFFFE
00001FFFFFFE
00001FFFFFFC
00003FFFFFF8
00003C0000F8
00007C0000F0
0000780001F0
0000F80001E0
0000F00003E0
0001F00007C0
0003E0000780
0003C0000F80
0007C0000F00
000780001F00
000F80001E00
000F00003E00
001F00003C00
001E00007C00
003E0000F800
007C0000F000
00780001F000
00F80001E000
00F00003E000
01F00003C000
01E00007C000
03E000078000
07C0000F8000
07FFFFFF0000
0FFFFFFE0000
FFFFFFFFFFE0
FFFFFFFFFFE0
FFFFFFFFFFE0
FFFFFFFFFFE0
F0000E0001E0
F0000E0001E0
F0000E0001E0
F0000E0001E0
F0000E0001E0
F0000E0001E0
F0000E0001E0
F0000E0001E0
F0000E0001E0
F0000E0001E0
F0000E0001E0
F0000E0001E0
F0000E0001E0
F0000E0001E0
F0000E0001E0
F0000E0001E0
F0000E0001E0
F0000E0001E0
F0000E0001E0
F0000E0001E0
F0000E0001E0
F0000E0001E0
F0000E0001E0
F0000E0001E0
F0000E0001E0
F0000E0001E0
F0000E0001E0
F0000E0001E0
F0000E0001E0
F0000E0001E0
F0000E0001E0
F0000E0001E0
F0000E0001E0
F0000E0001E0
F0000E0001E0
F0000E0001E0
F0000E0001E0
F0000E0001E0
F0000E0001E0
F0000E0001E0
F0000E0001E0
F0000E0001E0
F0000E0001E0
F0000E0001E0
F0000E0001E0
F0000E0001E0
F0000E0001E0
F0000E0001E0
F0000E0001E0
F0000E0001E0
F0000E0001E0
F0000E0001E0
F0000E0001E0
F0000E0001E0
F0000E0001E0
F0000E0001E0
F0000E0001E0
F000000001E0
F000000001E0
F000000001E0
F000000001E0
F000000001E0
F800000003E0
F800000003E0
F800000003E0
FC00000007E0
FC0000000FE0
FE0000000FE0
FF0000001FE0
FF8000003FE0
FFE00000FFE0
FFF00001FFE0
FFFE000FFFE0
FFFFFFFFFFE0
FFFFFFFFFFE0
FFFFFFFFFFE0
FFFFFFFFFFE0
FFFFFFFFFFE0
FFFFFFFFFFE0
FFFFFFFFFFE0
7FFFFFFFFFC0
7FFFFFFFFFC0
7FFFFFFFFFC0
3FFFFFFFFF80
3FFFFFFFFF80
1FFFFFFFFF00
0FFFFFFFFE00
07FFFFFFFC00
03FFFFFFF800
01FFFFFFF000
00FFFFFFE000
007FFFFFC000
001FFFFF0000
0003FFF80000
ENDCHAR
STARTCHAR 00DB
ENCODING 219
SWIDTH 464 0
DWIDTH 39 0
BBX 71 125 -12 -21
BITMAP
00000007FFC0000000
0000000FFFE0000000
0000001FFFF0000000
0000003FFFF8000000
0000007E00FC000000
000000FC007E000000
000001F8003F000000
000003F0001F800000
000007E0000FC00000
00000FC00007E00000
00001F800003F00000
00003F000001F80000
00007E000000FC0000
0000FC0000007E0000
0001F80000003F0000
0003F00000001F8000
0007E00000000FC000
000FC000000007E000
001F8000000003F000
003F0000000001F800
007E0000000000FC00
00FC00000000007E00
01F800000000003F00
03F000001000001F80
07E000003800000FC0
0FC000007C000007E0
1FFFFFFFFFFFFFFFF0
3FFFFFFFFFFFFFFFF8
7FFFFFFFFFFFFFFFFC
FFFFFFFFFFFFFFFFFE
000FFFFFFFFFFE0000
000F0000E0001E0000
000F0000E0001E0000
000F0000E0001E0000
000F0000E0001E0000
000F0000E0001E0000
000F0000E0001E0000
000F0000E0001E0000
000F0000E0001E0000
000F0000E0001E0000
000F0000E0001E0000
000F0000E0001E0000
000F0000E0001E0000
000F0000E0001E0000
000F0000E0001E0000
000F0000E0001E0000
000F0000E0001E0000
000F0000E0001E0000
000F0000E0001E0000
000F0000E0001E0000
000F0000E0001E0000
000F0000E0001E0000
000F0000E0001E0000
000F0000E0001E0000
000F0000E0001E0000
000F0000E0001E0000
000F0000E0001E0000
000F0000E0001E0000
000F0000E0001E0000
000F0000E0001E0000
000F0000E0001E0000
000F0000E0001E0000
000F0000E0001E0000
000F0000E0001E0000
000F0000E0001E0000
000F0000E0001E0000
000F0000E0001E0000
000F0000E0001E0000
000F0000E0001E0000
000F0000E0001E0000
000F0000E0001E0000
000F0000E0001E0000
000F0000E0001E0000
000F0000E0001E0000
000F0000E0001E0000
000F0000E0001E0000
000F0000E0001E0000
000F0000E0001E0000
000F0000E0001E0000
000F0000E0001E0000
000F0000E0001E0000
000F0000E0001E0000
000F0000E0001E0000
000F0000E0001E0000
000F0000E0001E0000
000F0000E0001E0000
000F0000E0001E0000
000F0000E0001E0000
000F000000001E0000
000F000000001E0000
000F000000001E0000
000F000000001E0000
000F000000001E0000
000F800000003E0000
000F800000003E0000
000F800000003E0000
000FC00000007E0000
000FC0000000FE0000
000FE0000000FE0000
000FF0000001FE0000
000FF8000003FE0000
000FFE00000FFE0000
000FFF00001FFE0000
000FFFE000FFFE0000
000FFFFFFFFFFE0000
000FFFFFFFFFFE0000
000FFFFFFFFFFE0000
000FFFFFFFFFFE0000
000FFFFFFFFFFE0000
000FFFFFFFFFFE0000
000FFFFFFFFFFE0000
0007FFFFFFFFFC0000
0007FFFFFFFFFC0000
0007FFFFFFFFFC0000
0003FFFFFFFFF80000
0003FFFFFFFFF80000
0001FFFFFFFFF00000
0000FFFFFFFFE00000
00007FFFFFFFC00000
00003FFFFFFF800000
00001FFFFFFF000000
00000FFFFFFE000000
000007FFFFFC000000
000001FFFFF0000000
0000003FFF80000000
ENDCHAR
STARTCHAR 00DC
ENCODING 220
SWIDTH 464 0
DWIDTH 39 0
BBX 46 123 -2 -21
BITMAP
FFFFFFFFFFFC
FFFFFFFFFFFC
FFFFFFFFFFFC
FFFFFFFFFFFC
F0000FC0003C
F0000FC0003C
F0000FC0003C
F0000FC0003C
F0000FC0003C
F0000FC0003C
F0000FC0003C
F0000FC0003C
F0000FC0003C
F0000FC0003C
F0000FC0003C
F0000FC0003C
F0000FC0003C
F0000FC0003C
F0000FC0003C
F0000FC0003C
F0000FC0003C
F0000FC0003C
F0000FC0003C
FFFFFFFFFFFC
FFFFFFFFFFFC
FFFFFFFFFFFC
FFFFFFFFFFFC
3FFFFFFFFFF8
3FFFFFFFFFF8
3C0003800078
3C0003800078
3C0003800078
3C0003800078
3C0003800078
3C0003800078
3C0003800078
3C0003800078
3C0003800078
3C0003800078
3C0003800078
3C0003800078
3C0003800078
3C0003800078
3C0003800078
3C0003800078
3C0003800078
3C0003800078
3C0003800078
3C0003800078
3C0003800078
3C0003800078
3C0003800078
3C0003800078
3C0003800078
3C0003800078
3C0003800078
3C0003800078
3C0003800078
3C0003800078
3C0003800078
3C0003800078
3C0003800078
3C0003800078
3C0003800078
3C0003800078
3C0003800078
3C0003800078
3C0003800078
3C0003800078
3C0003800078
3C0003800078
3C0003800078
3C0003800078
3C0003800078
3C0003800078
3C0003800078
3C0003800078
3C0003800078
3C0003800078
3C0003800078
3C0003800078
3C0003800078
3C0003800078
3C0003800078
3C0003800078
3C0003800078
3C0000000078
3C0000000078
3C0000000078
3C0000000078
3C0000000078
3E00000000F8
3E00000000F8
3E00000000F8
3F00000001F8
3F00000003F8
3F80000003F8
3FC0000007F8
3FE000000FF8
3FF800003FF8
3FFC00007FF8
3FFF8003FFF8
3FFFFFFFFFF8
3FFFFFFFFFF8
3FFFFFFFFFF8
3FFFFFFFFFF8
3FFFFFFFFFF8
3FFFFFFFFFF8
3FFFFFFFFFF8
1FFFFFFFFFF0
1FFFFFFFFFF0
1FFFFFFFFFF0
0FFFFFFFFFE0
0FFFFFFFFFE0
07FFFFFFFFC0
03FFFFFFFF80
01FFFFFFFF00
00FFFFFFFE00
007FFFFFFC00
003FFFFFF800
001FFFFFF000
0007FFFFC000
0000FFFE0000
ENDCHAR
STARTCHAR 00DD
ENCODING 221
SWIDTH 511 0
DWIDTH 43 0
BBX 51 127 -1 -21
BITMAP
000007FFFFFF00
00000FFFFFFF00
00000FFFFFFE00
00001FFFFFFC00
00001E00007C00
00003E00007800
00003C0000F800
00007C0000F000
0000780001F000
0000F80003E000
0001F00003C000
0001E00007C000
0003E000078000
0003C0000F8000
0007C0000F0000
000780001F0000
000F80001E0000
000F00003E0000
001F00007C0000
003E0000780000
003C0000F80000
007C0000F00000
00780001F00000
00F80001E00000
00F00003E00000
01F00003C00000
03E00007C00000
03FFFFFF800000
07FFFFFF000000
FFFFFFFFFFFFE0
7FFFFFFFFFFFE0
7FFFFFFFFFFFE0
7FFFFFFFFFFFC0
3C0001F80003C0
3C0001F00007C0
3C0001F0000780
1E0000F0000780
1E0000E0000F80
1F0000E0000F00
0F000060000F00
0F000040001F00
0F800000001E00
07800000001E00
07800000003E00
07C00000003C00
03C00000003C00
03C00000007C00
03E00000007800
01E00000007800
01E0000000F800
01F0000000F000
00F0000000F000
00F0000001F000
00F8000001E000
0078000001E000
0078000003E000
003C000003C000
003C000003C000
003C000007C000
001E0000078000
001E0000078000
001F00000F8000
000F00000F0000
000F00000F0000
000F80001F0000
000780001E0000
000780001E0000
0007C0003E0000
0003C0003C0000
0003C0003C0000
0003C0003C0000
0003C0003C0000
0003C0003C0000
0003C0003C0000
0003C0003C0000
0003C0003C0000
0003C0003C0000
0003C0003C0000
0003C0003C0000
0003C0003C0000
0003C0003C0000
0003C0003C0000
0003C0003C0000
0003C0003C0000
0003C0003C0000
0003C0003C0000
0003C0003C0000
0003C0003C0000
0003C0003C0000
0003C0003C0000
0003C0003C0000
0003C0003C0000
0003C0003C0000
0003C0003C0000
0003C0003C0000
0003C0003C0000
0003C0003C0000
0003C0003C0000
0003C0003C0000
0003C0003C0000
0003C0003C0000
0003C0003C0000
0003C0003C0000
0003C0003C0000
0003C0003C0000
0003C0003C0000
0003FFFFFC0000
0003FFFFFC0000
0003FFFFFC0000
0003FFFFFC0000
0003FFFFFC0000
0003FFFFFC0000
0003FFFFFC0000
0003FFFFFC0000
0003FFFFFC0000
0003FFFFFC0000
0003FFFFFC0000
0003FFFFFC0000
0003FFFFFC0000
0003FFFFFC0000
0003FFFFFC0000
0003FFFFFC0000
0003FFFFFC0000
0003FFFFFC0000
0003FFFFFC0000
0003FFFFFC0000
0003FFFFFC0000
ENDCHAR
STARTCHAR 00DF
ENCODING 223
SWIDTH 488 0
DWIDTH 41 0
BBX 45 111 0 -29
BITMAP
0003FFFC0000
001FFFFFC000
007FFFFFF000
00FFFFFFF800
03FE0003FC00
07F000007E00
0FC000003F00
0F8000000F80
1F00000007C0
3E00000003C0
3C00000003E0
7C00000001E0
7800000000F0
7800000000F0
F000000000F0
F00000000078
F00000000078
F00000000078
F00000000078
F00000000078
F0000F000078
F0000F000078
F0000F000078
F0000F000078
F0000F000078
F0000F000078
F0000F000078
F0000F000078
F0000F000078
F0000F000078
F0000F000078
F0000F000078
F0000F000078
F0000F000078
F0000F000078
F0000C000078
F0000C000078
F0000C000078
F0000C000078
F0000C000078
F0000C000078
F0000C000078
F0000C000078
F0000C000078
F0000C000078
F0000C000078
F0000C000078
F0000C000078
F0000C000078
F0000C000078
F0000C000078
F0000F000078
F0000F000078
F0000F000078
F0000F000078
F0000F000078
F0000F000078
F0000F000078
F0000F000078
F0000F000078
F0000F000078
F0000F000078
F0000F000078
F0000F000078
F0000F000078
F0000F000078
F0000C000078
F0000C000078
F0000C000078
F0000C000078
F0000C000078
F0000C0000F8
F0000C0000F8
F0000C0000F8
F0000C0001F8
F0000C0003F8
F0000C0003F8
F0000C0007F8
F0000C000FF8
F0000C003FF8
F0000C007FF8
F0000C03FFF8
F0000FFFFFF8
F0000FFFFFF8
F0000FFFFFF8
F0000FFFFFF8
F0000FFFFFF8
F0000FFFFFF8
F0000FFFFFF0
F0000FFFFFF0
FFFFFFFFFFF0
FFFFFFFFFFE0
FFFFFFFFFFE0
FFFFFFFFFFC0
FFFFFFFFFFC0
FFFFFFFFFF80
FFFFFFFFFF00
FFFFFFFFFE00
FFFFFFFFFC00
FFFFFFFFF800
FFFFFFFFF000
FFFFFFFFC000
FFFFFFFC0000
FFFFFF000000
FFFFFF000000
FFFFFF000000
FFFFFF000000
FFFFFF000000
FFFFFF000000
FFFFFF000000
FFFFFF000000
ENDCHAR
STARTCHAR 00E0
ENCODING 224
SWIDTH 464 0
DWIDTH 39 0
BBX 44 127 -1 -21
BITMAP
FFFFFFE00000
FFFFFFE00000
7FFFFFF00000
7FFFFFF00000
3E0000780000
3E0000780000
1F00003C0000
1F00003E0000
0F80001E0000
0780001F0000
07C0000F0000
03C0000F8000
03E000078000
01E00007C000
01F00003C000
00F00003E000
00F80001E000
00780000F000
007C0000F000
003E00007800
003E00007C00
001F00003C00
000F00003E00
000F80001E00
000780001F00
0007C0000F00
0003C0000F80
0003FFFFFF80
0001FFFFFFC0
7FFE0003FFC0
7FFF00007FE0
7FFF00001FE0
7FFFFFFFF000
78000007FC00
78000000FE00
780000003F00
780000001F80
780000000F80
7800000007C0
7800000003C0
7800000003E0
7800000001E0
7800000001F0
7800000000F0
7800000000F0
7800000000F0
7800000000F0
7800000000F0
7800000000F0
7FFFFF0000F0
7FFFFF0000F0
7FFFFF0000F0
7FFF000000F0
03FC000000F0
07F0000000F0
0FE0000000F0
0FC0000000F0
1F80000000F0
1F00000000F0
3E00000000F0
3E00000000F0
3C00000000F0
3C00000000F0
3C00000000F0
7C00000000F0
7800000000F0
7800000000F0
7800000000F0
7800070000F0
7800070000F0
7800070000F0
7800070000F0
7800070000F0
7800070000F0
7800070000F0
7800070000F0
7800070000F0
7800070000F0
7800070000F0
7800070000F0
7800070000F0
7800070000F0
7800070000F0
7800070000F0
7800070000F0
7800070000F0
7800070000F0
7800070000F0
7800070000F0
7800070000F0
7800000000F0
7800000000F0
7800000000F0
7C00000000F0
7C00000000F0
7C00000000F0
7C00000000F0
7E00000000F0
7E00000000F0
7F00000000F0
7F80000000F0
7FC0000000F0
7FE0000000F0
7FF0000000F0
7FFC000000F0
7FFF000000F0
7FFFFFFFFFF0
7FFFFFFFFFF0
7FFFFFFFFFF0
7FFFFFFFFFF0
3FFFFFFFFFF0
3FFFFFFFFFF0
3FFFFFFFFFF0
3FFFFFFFFFF0
3FFFFFFFFFF0
1FFFFFFFFFF0
1FFFFFFFFFF0
0FFFFFFFFFF0
0FFFFFFFFFF0
07FFFFFFFFF0
03FFFFFFFFF0
01FFFFFFFFF0
00FFFFFFFFF0
007FFFFFFFF0
001FFFFFFFF0
0007FFFFFFF0
0000FFFFFFF0
ENDCHAR
ENDFONT
